<svg xmlns="http://www.w3.org/2000/svg" xmlns:xlink="http://www.w3.org/1999/xlink" viewBox="0 0 954.81 637.98"><defs><path id="reuse-0" fill="#485961" d="M561.99 172.33h.01c-.04.18-.08.36-.11.54.03-.18.07-.36.1-.54Z"/></defs><defs><radialGradient id="e" cx="2271.25" cy="574.4" r="306.51" fx="2271.25" fy="574.4" gradientTransform="matrix(.57 0 0 .04 -890.45 548.94)" gradientUnits="userSpaceOnUse"><stop offset=".18" stop-color="#1d1d1b"/><stop offset="1" stop-color="#1d1d1b" stop-opacity="0"/></radialGradient><radialGradient xlink:href="#e" id="i" cx="1570.22" cy="650" r="306.51" fx="1570.22" fy="650" gradientTransform="matrix(.28 0 0 .02 -115.72 602.67)"/><style>.k{fill:#5b4343}.l{fill:#485961}.m{fill:#414a4c}.n{fill:#f99e83}.o{fill:#788388}.p{fill:#404551}.q{fill:#1d3039}.r{fill:#1c2e38}.s{fill:#f5a3c2}.t{fill:#eff1f5}.u{fill:#e2674d}.v{fill:url(#i)}.w{fill:url(#e)}.x{fill:#0d1548}.y{fill:#383838}.aa{fill:#ffba96}.ab{fill:#bf4071}.ac{fill:#c1c5c6}.ad{fill:#f075b9}.ae{fill:#304b4f}.af{fill:#99335a}.ag{fill:#ededed}</style></defs><g id="b"><g id="c"><path fill="#f075b9" d="M882.07 9.82c-28.59 5.51-45.59 32.1-43.84 50.59 1.47 15.5 4.16 43.57 6.24 52.89 3.11 13.91-45.34-.83-44.51 22.68.67 19.16 26.62 56.25 27.4 74.38 1.13 26.14-60.21 2.24-71.78 21.84-5.89 9.97 24.08 49.11 28.48 63.78 7.48 24.93-71.37 6.15-65.08 39.07 5.06 26.49 49.97 87.55 50.87 107.93.79 18.03-54.02-15.66-53.99 2.62.04 17.71 51.25 83.5 104.44 73.84 66.15-12.02 110.14-101.86 98.7-129.75-10.73-26.16-66.85 10.53-69.47-6.22-3.36-21.52 97.32-67.05 95.88-99.6-1.05-23.78-51.57-7.62-53.33-33.65-2.11-31.12 66.3-82.55 62.58-107.76-3.34-22.65-58.28 7.98-61.08-14.89-2.47-20.18 10.52-33.27 15.62-57.44 4.65-22 18.67-69.16-27.14-60.32Z"/><path fill="#bf4071" d="M853.01 532.99c-35.55-49.33-67.36-110.35-54.75-172.88 4.04-20.46 13.79-39.13 24.76-56.64 8.08-13.09 16.32-26.01 22.36-40.16 4.02-9.37 6.97-19.17 8.83-29.19 1.85-10.07 2.38-20.29 2.47-30.52 1.39-45.84 4.79-93.48 25.39-135.22-20.12 41.91-23.01 89.47-23.9 135.25.01 10.3-.38 20.63-2.12 30.82-4.12 26.07-17 48.41-30.59 70.51-10.54 17.33-19.93 35.78-23.62 55.87-7.92 40.29 4.35 81.53 23.12 117.12 9.46 18.03 20.7 35.11 32.87 51.48l-4.83 3.56Z"/><path fill="#f075b9" d="M555.58.34c-25.62-4.37-32.27 34.43-31.77 57.84.52 24.46 8.94 60.55 6.65 68.15-2.41 7.99-41.41-58.2-43.15-50.34-13.2 55.3 39.93 82.95 42.38 118.71.57 8.31-51.27-51.35-51.49-41.67-1.71 76.16 64.21 103.01 55.99 116.39-7.36 11.97-53.18-34.76-52.18-25.39 6.61 62.07 77.34 85.12 73.25 104.48-3.1 14.65-67-45.77-65.26-35.93 10.12 57.24 92.91 90.73 91.45 103.74-1.42 12.68-83.53-48.03-83.53-48.03 25.05 90.84 58.78 84.56 58.46 99.47-.26 11.95-20.2 2.55-21.99 19.56-2.13 20.24 93.74 105.67 164.4 53.86 55.77-40.89 62.54-142.85 55.55-147.86-7.26-5.21-42.22 84.91-55.67 76.52-14.1-8.8 17.4-47.12 2.74-99.82-4.08-14.65-48.88 72.08-54.36 68.49-6.21-4.06 36.03-93.61 22.82-136.71-4.09-13.33-50.91 78.77-59 72.27-9.03-7.27 21.97-80.47 24.69-140.74 1.32-29.26-49.44 48.66-55.32 41.95-7.66-8.74 43.24-68.12 44.17-125.17.23-14.13-59.42 42.93-59.06 39.28 5.51-54.63 44.97-63.44 42.59-111.99-.43-8.84-34.65 33.79-36.61 27.72-1.79-5.54-3.93-26.2 3.47-50.83 7.17-23.87 4.97-49.8-19.21-53.93Z"/><path fill="#bf4071" d="M711.29 542.11c-82.51-59.13-133.67-153.85-155.51-251.53-12.27-54.84-6.4-111.17-4.27-166.7.8-22.26.9-44.54.15-66.8.98 22.26 1.1 44.55.53 66.82-1.54 55.41-6.85 111.65 5.94 166.17 17.59 75.35 52.73 147.81 106.42 204.03 15.31 15.95 32.02 30.58 50.18 43.08l-3.43 4.92Z"/><path fill="#ed5e95" d="M910.05 133.82c12.88 7.18 18.03 27.46 16.29 45.72-1.82 19.08-9.29 47.1-8.32 53.07 1.01 6.28 31.58-25.86 35.84-14.14-3.93 27.29-41.32 61.39-39.55 67.52 1.57 5.43 32.74-25.36 34.63-15.55 5.9 30.61-46.33 63.19-42.02 73.78 3.86 9.48 33.86-8.32 34.86-1.56 1.35 9.06-54.22 47.72-52.85 62.91 1.04 11.49 43.23-14.78 41.55-7.14-9.82 44.49-62.15 49.41-62.04 59.58.11 9.92 52.97-6.48 52.97-6.48-9.84 40.24-72.93 35.12-73.64 46.76-.57 9.33 45.61 2.67 45.68 15.98.09 15.84-64.97 80.77-105.9 39.05-32.3-32.93-30.28-112.63-25.61-116.41 4.85-3.93 21.15 67.04 30.06 60.73 9.34-6.61-7.98-37.1 4.4-77.96 3.44-11.36 26.09 57.14 29.73 54.44 4.12-3.06-16.75-73.71-5.87-107.11 3.37-10.33 26.95 62.41 32.39 57.48 6.08-5.51-13.18-86.69-6.79-110.29 3.42-12.63 27.87 38.88 31.96 33.75 5.32-6.68-26.95-88.77-19.9-98.49 5.6-7.72 33.16 34.05 34.45 31.73 1.59-2.84-37.07-72.03-31.64-84.04 4.2-9.29 31.47 22.86 33.07 18.16 1.46-4.29-14.14-38.43-11.64-54.82 1.93-12.67 11.66-35.69 27.87-26.65Z"/><path fill="#bf4071" d="M776.93 549.52c43.5-34.54 73.83-83.43 94.6-134.44 26.64-66.48 38.15-138.96 34.85-210.47 4.2 67.63-4.91 136.52-27.55 200.45-14.73 41.51-35.57 81.21-63.86 115.14-10.37 12.31-21.72 23.86-34.33 34.02l-3.72-4.71Z"/><path fill="#f5a3c2" d="M738.75 30.01c19.82 5.26 27.48 22.92 23.82 43.36-3.07 17.13-7.6 30.24-10.49 40.59-4.32 15.45 40.6-20.96 37.18 4.96-2.79 21.13-30.57 81.2-33.33 101.19-3.99 28.83 66.86-18.84 74.74 2.25 4.01 10.73-41.36 84.77-40.65 102.05.51 12.42 44.17-16.29 50.26.86 5.14 14.49-48.82 59.23-42.88 73.08 10.13 23.61 41.65-.85 42.69 6.49 4.28 30.17-64.24 73.51-67.36 96-2.76 19.89 58.78-14.16 56.65 5.97-2.06 19.5-57.28 61.74-102.74 53.36-17.56-3.24-95.42-42.14-90.09-89.86 1.42-12.7 46.67 42.44 54 11.05-12.29-31.46-45.68-57.14-39.32-72.15 12.4-29.26 58.7-14.46 62.91-33.02 5.41-23.83-60.38-69.37-57.1-105.49 1.85-20.36 62.77 15.73 41.99-32.04-14.02-32.24-54.33-60.82-45.45-87.99 4.76-14.54 45.25 27.38 50.33 2.09 4.48-22.33-11.81-57.03-8.17-80.33 3.86-24.78 29.64-45.97 43.02-42.42Z"/><path fill="#bf4071" d="M692.05 572.94c41.3-61.93 80.9-137.65 65.4-214.18-4.46-21.6-14.24-41.57-20.98-62.55-9.07-27.33-10.21-53.79-6.85-82.18 4.2-49.12 7.98-99.86-5.3-147.94 15.36 53.36 9.49 109.98 5.57 164.55-.8 16.42.51 33.02 4.39 49 3.84 16.1 10.29 31.25 16.32 46.67 6.37 16.08 11.44 32.97 13.22 50.28 2.85 27.06-.95 54.52-8.46 80.51-12.41 42.72-33.97 82.2-58.32 119.18l-4.98-3.34Z"/><path fill="#f5a3c2" d="M454.72 236.17c-21.7 3.89-29.75 33.17-27.26 54.72 2.36 20.48.51 27.03-1.37 34.5-2.83 11.23-27.43-26.96-37.35-15.19-11.56 13.73 21.43 53.67 13.63 68.77-12.02 23.27-36.24-23.85-42.44-10.84-14.19 29.8 5.46 29.57-9.29 60.72-5.58 11.77-29.88-41.68-37.48-29.74-15.66 24.61 4.18 43.68-18.83 69.7-12.47 10.58-32.97-40.16-29.96-4.18 1.27 15.23 15.34 44.14 7.21 59.48-24.61 46.4-8.17 43.08 37.21 44.03 58.89 1.23 27.54-23.76 27.3-39.54-.31-20.44 62.11-17.27 67.84-25.4 3.1-10.22-60.1-18.59-28.88-33.46 6.75-3.21 86.1-12.91 99.2-39.03 6.59-13.14-37.94-5.73-30.98-21.37 11.18-25.12 49.14-26.2 57.44-47.39 6.86-17.52-43.39 25.36-39.63-7.07 4-34.5 31.18-42.11 31.71-69.45.49-25.57-9.63-54.35-38.06-49.25Z"/><path fill="#bf4071" d="M316.07 593.22c-20.52-36.04-27.17-76.86.55-111.24 10.08-12.35 24.51-19.58 37.91-27.39 38.85-21.2 63.07-55.03 80.36-94.97 10.66-24.81 19.15-50.71 23.69-77.37-4.16 26.77-12.28 52.83-22.6 77.84-16.9 40.63-40.88 75.18-79.81 97.27-12.99 7.89-26.94 15.1-36.46 27.13-14.24 18.19-19.75 41.04-15.11 63.72 2.86 14.81 9 28.92 16.67 42.03l-5.21 2.98Z"/><path fill="#f075b9" d="M295.13 41.6c-25.02-7.23-45.68 8.49-55.22 35.6-5.66 16.1-2.92 40.74-.64 50.95 3.41 15.25-34.62-11.33-39.31 2.31-6.84 19.87 22.82 69.58 23.68 89.45 1.24 28.65-40.51-20.12-53.19 1.36-6.45 10.93 4.41 66.89 9.24 82.96 8.2 27.33-54.4 27.6-47.51 63.69 5.55 29.04 24.31 99.26 25.3 121.61.87 19.76-59.22-17.16-59.18 2.87.04 19.41 56.18 91.53 114.48 80.94 72.51-13.17 120.73-111.66 108.19-142.22-11.76-28.68-73.28 11.55-76.14-6.82-3.68-23.58 94.53-70.35 97.63-141.75 1.13-26.07-45.04 6.9-46.97-21.63-2.31-34.11 28.43-49.85 26.43-115.87-1.07-35.28-35.2 34.15-38.27 9.08-2.71-22.12-3.35-33.17 15.24-59.68 14.16-20.18 23.59-44.96-3.75-52.86Z"/><path fill="#bf4071" d="M248.86 588.02c-38.96-54.01-73.84-120.81-60.08-189.29 3.37-16.77 10.08-32.65 18.45-47.48 8.28-14.71 17.89-28.69 25.83-43.52 7.97-14.76 13.97-30.59 16.96-47.12 2.02-11.04 2.59-22.26 2.7-33.47 1.01-39.3 3.87-79.07 15.32-116.88 3.3-10.76 7.36-21.3 12.45-31.34-4.98 10.09-8.94 20.66-12.13 31.44-11.06 37.85-13.52 77.57-14.14 116.81 0 11.29-.43 22.61-2.34 33.76-1.93 11.16-5.08 22.11-9.42 32.58-10.68 26.15-28.56 48.49-39.99 74.21-24.18 52.68-11 111.02 15.21 160.25 10.36 19.79 22.68 38.53 36.02 56.49l-4.83 3.56Z"/><path fill="#ed5e95" d="M75.42 36.41c23.54 6.97 40.84 21.66 47.87 39.29 6.18 15.47-3.32 47.52-5.6 56.99-3.41 14.14 38.38.32 37.19 24.32-.97 19.56-19.86 56.72-20.93 75.22-1.54 26.68 46.24-16.94 57.9 3.34 5.94 10.32-6.08 62.6-10.84 77.49-8.09 25.31 61.4-8.78 54.42 24.72-5.61 26.96-44.25 112.58-45.48 133.39-1.08 18.4 56.02-14.82 55.71 3.85-.3 18.09-54.14 84.2-108.92 73.17C68.61 534.47 24.48 441.71 36.7 413.47c11.46-26.5 68.88 12.22 71.82-4.84C112.3 386.72 9 338 10.96 304.77c1.43-24.27 53.36-6.66 55.56-33.22 2.64-31.74-70.56-83.62-66.35-109.3 3.78-23.06 58.4 3.84 61.63-19.46 2.85-20.57-14.92-38.59-24.7-55.75-11.38-19.95 3.3-61.01 38.33-50.63Z"/><path fill="#bf4071" d="M97.95 557.62c37.32-48.24 71.42-108.37 60.17-171.43-2.75-15.35-8.58-30.01-15.94-43.74-7.42-13.91-16.03-27.09-23.18-41.22-7.21-14.13-12.55-29.28-14.98-44.98-1.65-10.44-1.91-21.02-1.75-31.56-.05-36.64-1.85-73.76-11.76-109.22-2.86-10.1-6.44-20.01-10.98-29.49 4.64 9.43 8.33 19.31 11.3 29.39 10.3 35.42 12.49 72.6 12.93 109.31-.05 10.47.35 20.94 2.11 31.27 2.6 15.46 8.04 30.3 15.33 44.15 7.26 13.92 16.09 27.08 23.68 40.89 7.69 13.93 13.83 28.82 16.84 44.52 8.44 42.19-4.5 85.5-24.45 122.61-9.98 18.7-21.8 36.32-34.57 53.16l-4.75-3.66Z"/><path fill="#ed5e95" d="M507.11 208.33c-20.8-4.28-28.75 19.46-30.27 38-1.47 17.94 4.82 36.65 5.11 51.08.66 33.37-27.06-17.92-28.56-5.34-1.66 14 29.13 64.12 27.56 74.23-1.41 9.02-37.89 2.03-39.46 11.05-2.14 12.3 61.23 42.1 59.35 54.22-1.49 9.64-57.68-28.21-51.69-14.59 19.37 58.1 73.57 46.46 72.58 55.74-.61 5.69-48.04 1.98-41.65 8.8 35.58 37.99 92.75 19.22 92.33 26.71-.32 5.74-46.76 9.99-49.07 24.32-2.19 13.63 37.22 19.48 72.61 32.97 40.15 15.3 71.71-66.34 59.81-84.64-3.25-5-36.41 42.71-42.06 33.56-6.16-9.98 42.3-47.77 7.84-92.67-3.93-5.12-12.06 50.72-24.42 41.82-14.63-10.53 8.99-77.31-.22-81.16-7.1-2.96-30.84 28.76-35.65 26.03-6.31-3.58 8.12-74.77 8.12-74.77-12.19-14.43-46.81 55.41-47.65 49.46-4.36-30.86 8.4-47.29 11.71-64.83 7.25-38.51-26.62 11.45-23.12-7.49 6.97-37.78 9.4-31.97 15.42-69.51 3.36-20.95-14.8-32.22-18.62-33Z"/><path fill="#bf4071" d="M597.11 580.44c13.88-41.89-3.57-88.47-31.96-120.29-5.14-5.21-10.62-10.1-16.07-14.99-11.18-9.66-21.95-20.19-30.81-32.08-4.46-5.96-8.96-11.83-12.7-18.31-20.5-38.14-11.52-90.22-1.42-130.44-9.44 39.95-17.74 92.08 3.05 129.51 2.72 4.73 6.18 9.1 9.5 13.46 5.59 7.27 11.59 14.26 18.14 20.65 9.88 9.6 21.05 17.99 31.13 27.45 6.17 5.85 11.32 12.65 16.08 19.57 21.08 30.81 32.48 70.72 20.78 107.3l-5.72-1.82Z"/><path fill="#f5a3c2" d="M115.18 163.24c21.21 17.31 29.61 58.92 16.95 75.31-12.03 15.58-32.2 37.77-33.68 45.23-2.22 11.22 39.89-1.82 41.22 11.42 1.18 18.54-43.37 28.39-42.12 46.05 1.93 27.23 70.94-35.48 60.25 6.65-7.46 29.39-32.54 30.02-32.54 54.98 2.38 32.75 58.93-10.31 65.95-1.01 4.91 6.5-23.03 30.22-19.14 57.49 5.35 37.49 55.28-9.17 56.11 0 6.09 67.42-41.95 19.54-48.49 79.21 67.73-47.68 38.76 51.05-69.65 23.99C59 549.75-.59 467.62 35 475.19c62.45 20.95 49.16-5.2 50.28-10.24 1.59-7.18-69.4-41.33-71.15-71.63-.88-15.25 32.68-4.76 32.57-22.34C46.52 342.75.18 314.64.18 290.99c0-19.1 36.35 24.27 47.45-5.26 11.8-31.42-13.5-55.38-1.35-78.56 11.37-21.68 41.12-66.62 68.91-43.95Z"/><path fill="#bf4071" d="M97.11 568.52c35.02-14.74 59.37-39.11 51.5-79.54-8.25-42.74-68.91-61.47-80.56-142.71-5.29-35.94 6.67-72.05 24.58-102.85-15.42 27.56-26.16 58.93-24.25 90.81 2.11 31.66 14.98 62.1 35.37 86.31 10.04 12.38 21.58 23.31 31.9 35.52 7.76 9.21 14.87 19.98 17.11 32.15 6.03 28.83-3.29 52.99-26.89 70.61-8.1 6.15-17.14 11.11-26.38 15.2l-2.38-5.51Z"/><path id="d" fill="#383838" d="M873.07 560.72c0-13.89-88.81-25.15-198.36-25.15-93.82 0-172.42 8.26-193.06 19.35-6.56-.05-13.17-.08-19.84-.08-61.62 0-119.25 2.18-168.39 5.98-21.64-3.63-55.87-5.98-94.39-5.98-65.45 0-118.5 6.77-118.5 15.12 0 6.19 29.11 11.5 70.81 13.85-9.89 3.97-15.24 8.21-15.24 12.6 0 22.96 145.83 41.57 325.71 41.57s325.71-18.61 325.71-41.57c0-4.77-6.3-9.34-17.87-13.61 61.62-4.27 103.42-12.56 103.42-22.09Z"/><ellipse id="f" cx="395.79" cy="574.4" fill="url(#e)" rx="175.41" ry="15.24"/><g id="g"><path fill="#1c2e38" d="M298 417.85s-13.76 54.71-2.92 96.81 116.73 31.68 116.73 31.68-21.15-53.14-6.41-142.46c0 0-75.72-6.55-107.4 13.97Z"/><path fill="#788388" d="M250.89 396.68s-18.51-.1-29.67-.09c-5.68 0-11.18-2.15-15.27-6.09-32.65-31.43-25.82-66.89-20.22-82.9 1.86-5.31 5.67-9.71 10.67-12.31l31.53-16.4 22.97 117.79Z"/><path fill="#1d3039" d="m205.46 323.9-21.41 2.96c-2.07.29-3.67-1.01-3.55-2.88l.25-3.99c.12-1.87 1.91-3.64 3.97-3.92l21.41-2.96c2.07-.29 3.67 1.01 3.55 2.88l-.25 3.99c-.12 1.87-1.91 3.64-3.97 3.92ZM207.74 347.79l-22.68 3.14c-2.19.3-4.26-.96-4.6-2.82l-.72-3.95c-.34-1.85 1.18-3.62 3.37-3.92l22.68-3.14c2.19-.3 4.26.96 4.6 2.82l.72 3.95c.34 1.85-1.18 3.62-3.37 3.92ZM214.66 371.49l-20.67 2.86c-2 .28-4.27-.91-5.04-2.64l-1.65-3.69c-.77-1.73.23-3.37 2.23-3.65l20.67-2.86c2-.28 4.27.91 5.04 2.64l1.65 3.69c.77 1.73-.23 3.37-2.23 3.65Z"/><path fill="#c1c5c6" d="m408.34 403.48-103.6 13.91c-40.93 5.55-90.39-40.48-90.39-90.4 0-44.74 28.74-76.3 72.75-90.48 0 0-85.81 44.98-43.57 127.24s147.54 28.19 147.54 28.19c5.26 3.91 11 7.76 17.28 11.54Z"/><path fill="#ededed" d="M391.06 391.93s-105.3 54.09-147.54-28.18 43.57-127.24 43.57-127.24c5.1-1.65 10.41-3.05 15.9-4.22l63.78-12.38s-76.16 97.24 24.28 172.01Z"/><path fill="#1c2e38" d="M644.48 449.03c-121.28-58.96-236.14-45.95-236.14-45.54-6.27-3.78-12.02-7.64-17.28-11.54-100.44-74.78-24.28-172.02-24.28-172.02 22.92-6.53 44.14-13.7 62.44-23.46C516.58 149.9 561.94 83.58 561.94 83.58s82.4 365.39 82.53 365.46Z"/><path fill="#788388" d="M704.38 458.34c-80.34 11.11-158.64-75.05-174.88-192.45-3.43-24.79-3.81-48.99-1.53-71.85l-169.11 70.41s3.2-21.17 9.73-28.53c.28.61 102.99-29.49 163.05-96.14l8.97-19.89c29.07-65.39 79.22-87.82 126.13-89.03 65.86 0 137.46 77.39 153.7 194.79 16.24 117.4-35.72 221.59-116.06 232.7Z"/><use xlink:href="#reuse-0"/><path fill="#485961" d="M698.74 422.63c-39.73 5.5-79.09-21.13-106.22-66.09 3.2-3.1 6.39-5.97 9.56-8.62v-.02c-47.75-115.89 22.55-169.5 22.55-169.5h.01c-35.43 1.48-61.99-5.88-62.64-6.07 11.93-57.49 44.36-99.77 87.49-105.74 63.22-8.74 125.5 63.87 139.1 162.19 13.6 98.32-26.63 185.11-89.85 193.85Z"/><path fill="#1c2e38" d="M698.74 422.63c-39.73 5.5-79.09-21.13-106.22-66.09 3.2-3.1 6.39-5.97 9.56-8.62v-.02c-47.75-115.89 22.55-169.5 22.55-169.5h.01c-35.43 1.48-61.99-5.88-62.64-6.07 11.93-57.49 44.36-99.77 87.49-105.74 63.22-8.74 125.5 63.87 139.1 162.19 13.6 98.32-26.63 185.11-89.85 193.85Z"/><path fill="#485961" d="M820.46 225.63c-16.24-117.4-89.58-204.25-163.8-193.98-74.22 10.26-121.22 113.76-104.97 231.17 16.24 117.4 89.57 204.25 163.79 193.98 74.22-10.27 121.22-113.76 104.98-231.17Zm-121.72 197c-39.73 5.5-79.09-21.13-106.22-66.09 3.2-3.1 6.39-5.97 9.56-8.62v-.02c-47.75-115.89 22.55-169.5 22.55-169.5h.01c-35.43 1.48-61.99-5.88-62.64-6.07-.04.18-.08.36-.11.54.03-.18.07-.36.1-.54h.01c11.93-57.49 44.36-99.77 87.49-105.74 63.22-8.74 125.5 63.87 139.1 162.19 13.6 98.32-26.63 185.11-89.85 193.85Z"/><use xlink:href="#reuse-0"/><path fill="#788388" d="M683.13 315.35s-38.88-2.69-81.04 32.56c-47.75-115.89 22.55-169.5 22.55-169.5h.01c12.12-.51 25.28-2.07 38.81-5.3l19.68 142.24Z"/><ellipse cx="673.29" cy="244.22" fill="#485961" rx="36.88" ry="71.8" transform="rotate(-7.88 672.97785636 244.16463058)"/></g><g id="h"><ellipse id="j" cx="329.04" cy="613.84" fill="url(#i)" rx="87.73" ry="5.91"/><path fill="#404551" d="M345.18 222.34s14.15-6.53 15.06-13.79c.91-7.26 1.63-19.05 8.89-22.5 11.67-5.54 1.73-22.05-.91-27.76-3.27-7.08-10.16-11.98-19.23-9.62-11.47 2.98-8.53-10.52-20.87-13.25-4.28-.94-17.01-1.32-25.22 6.9-8.17 8.17-10.05 16.69-10.05 23.95 0 6.71-4.83 16.88-14.26 19.23-9.44 2.36-20.87 6.71-24.32 13.79s-1.63 12.48-7.62 18.4c-5.99 5.92-26.67 9.55-33.03 20.8-6.35 11.25-4.54 24.49 0 29.85s13.07-1.87 14.7 5.92-3.63 14.86 3.08 22.66c6.71 7.8 15.79 11.69 20.87 8.84 5.08-2.85 11.79-11.38 18.15-9.39 6.35 2 17.68 11.68 23.41 11.43 25.4-1.09 51.35-85.47 51.35-85.47Z"/><path fill="#f99e83" d="M347.6 292.75s8.92 11.67 20.08 11.67 30.79-16.44 30.79-16.44l-18.18-3.4s-5.12 4.64-10.55 4.6-16.09-8.11-16.09-8.11l-6.05 11.67Z"/><path fill="#99335a" d="M292.85 237.6s1.52-7.21 7.45-10.96c5.93-3.75 15.98-8.23 15.98-8.23s24.45-2.71 27.88 2.41c3.44 5.12 23.8 35.27 22.83 46.61-1.54 18-6.75 4.93-22.05 59.49.24.36-18.15 9.31-41.25-1.21 2.9-52.14-10.84-88.12-10.84-88.12Z"/><path fill="#ffba96" d="M379.07 272.97s-9.25-.05-11.43.73c-2.81 1-13.32 9.9-13.32 9.9s-35.17 10.6-41.8 5.52c-6.62-5.08-.48-43.73-.18-47.18.3-3.45-12.88-17.84-21.72-.79-3.39 7.02.12 52.23 9.74 61.94 9.62 9.71 58.25-10.16 58.25-10.16s3.58-.73 7.8-.73c1.32-.05 1.45-4.22 3.99-5.85 1.41-1.09.54-8.85.54-8.85s9.07-1.41 8.12-4.54Z"/><path fill="#eff1f5" d="m414.29 250.28-19.23-2.06c-1.47-.16-2.87.65-3.47 2.01l-13.21 29.89c-.88 1.99.31 4.28 2.43 4.71l17.65 3.58c1.54.31 3.09-.47 3.75-1.88l14.8-31.41c1-2.12-.39-4.58-2.71-4.83Z"/><path fill="#f99e83" d="m404.03 282.81 8.35-14.06c.61-1.02.16-2.35-.95-2.79l-12.95-5.2s-6.84 11.68 1.68 22.36c1.02 1.28 3.03 1.11 3.87-.3Z"/><path fill="#ffba96" d="m338.11 167.54-9.25 10.34s-8.89-9.98-10.71-2.36 7.44 13.43 7.44 13.43l1.09 5.99s-9.62 19.6-10.34 22.86 6.53 7.26 20.32 4.17l1-9.71s22.32 14.88 22.59-39.47c0 .09-14.43.91-22.14-5.26Z"/><path fill="#5b4343" d="M337.65 212.27s-6.77-5.2-7.71-10.31c.79 6.2 7.29 14.42 7.29 14.42l.42-4.1Z"/><path fill="#f99e83" d="m344.96 450.92-1.23-2.66 25.88-.84s.56.5 1.16 1.49c-6.6-.17-15.98.72-25.82 2.01ZM369.01 464.47c-3.83 5.82-25.67 42.82-41.99 70.56-4.95 8.41-9.38 15.97-12.66 21.54-3.54 6.03-5.72 9.76-5.72 9.76s-5.45 8.58-5.45 25.76c0 7.02-.73 10.28 2.31 11.98-.12.11-10.17.6-10.53-5.45-.36-6.04-1.69-35.2-1.69-35.2s3.27 1.94 8.1-9.91c1.54-3.78 4.23-11.83 7.42-21.42 6.26-18.78 14.44-43.48 19.68-53.84.47-.93.92-1.73 1.33-2.42 4.92-8.03 10.97-14.02 14.52-17.19.7-.63 1.21-1.4 1.5-2.24 8.06-1.48 16.71-3.5 25.61-6.24 1.24 2.79 1.95 7.63-2.45 14.3Z"/><path fill="#ffba96" d="M329.2 453.26c-11.47 1.86-21.85 3.85-27.26 4.91l27.39-9.29s-.04 1.58-.13 4.38ZM341.8 605.65c-5.33.85-6.78-.73-6.78-.73s-22.29-31.69-22.62-31.69c4.6-4.35 2.54-14.16 2.54-14.16s-.2-.89-.57-2.5c-.98-4.3-3.13-13.69-5.56-24.48-4.31-19.09-9.51-42.62-10.81-50.32-1.78-10.59 1.52-18.91 3.11-22.13 4.92.57 14.97.64 27.93-.77-.15 5.06-.34 11.75-.55 19.39-.47 16.8-1.04 38.18-1.47 56.79-.2 8.35-.36 16.13-.47 22.69-.6 36.05 15.72 48.03 15.24 47.9Z"/><path fill="#e2674d" d="M329.2 453.26c-.03 1.52-.09 3.41-.16 5.61-12.96 1.41-23.01 1.34-27.93.77.47-.95.78-1.46.78-1.46.01 0 .03 0 .04-.01 5.4-1.06 15.79-3.05 27.26-4.91Z"/><path fill="#0d1548" d="M298 458.97s1.42-.29 3.89-.78c0 0-.31.5-.78 1.46-1.61-.18-2.66-.41-3.11-.67Z"/><path fill="#e2674d" d="M345.85 456.42c.46-1.29.4-2.73-.2-4.03l-.68-1.47c9.84-1.3 19.21-2.18 25.82-2.01.23.36.46.78.68 1.26-8.91 2.74-17.56 4.77-25.61 6.24Z"/><path fill="#0d1548" d="M345.65 452.39c.6 1.3.66 2.74.2 4.03-5.98 1.1-11.63 1.9-16.81 2.45.07-2.19.12-4.08.16-5.61 5.16-.84 10.53-1.65 15.77-2.34l.68 1.47ZM374.68 449.16c-1.07.35-2.15.68-3.22 1.01-.22-.48-.45-.91-.68-1.26 1.44.03 2.75.12 3.91.26Z"/><path fill="#304b4f" d="M374.68 449.16c-18.4-2.26-76.69 9.8-76.69 9.8-3.18-1.81-8.71-30.66-17.23-76.75-8.53-46.09 22.92-56.5 22.92-56.5 22.98 10.59 41.26 1.21 41.26 1.21-2.31 6.84.12 18.38.12 18.38s33.96 99.68 29.62 103.85Z"/><path fill="#414a4c" d="M293.29 563.43s-4.72-1.03-6.08 5.23c-1.36 6.26-10.28 22.18-10.28 22.18l1.09.9 10-11.47 2 26.95s-.54 3.36 6.26 3.54c6.8.18 12.43 0 12.43 0s2.57-.05 2.54-1.72c-.02-1.2-1.48-3.91-5.74-4.96-8.02-1.08-10-.81-10.45-7.88s-1.77-32.77-1.77-32.77ZM312.4 573.23s-5.57-.42-4.51 6.02c1.06 6.44 4.36 13.49 5.47 19.9s2.33 14.7 2.33 14.7h2.12l-2.66-23.26s7.23 7.05 10.95 17.9c.03.03 2.18 4.87 8.11 4.87h13.49s1.42-1.15 1.42-2.48-2.57-5.23-7.32-5.23-5.74.12-6.29-.39-23.11-32.03-23.11-32.03Z"/></g></g></g></svg>