<svg xmlns="http://www.w3.org/2000/svg" xmlns:xlink="http://www.w3.org/1999/xlink" viewBox="0 0 947.09 622.62"><defs><radialGradient id="e" cx="1511.28" cy="576.57" r="178.61" fx="1511.28" fy="576.57" gradientTransform="matrix(.55 0 0 .04 -455.35 559.01)" gradientUnits="userSpaceOnUse"><stop offset=".18" stop-color="#1d1d1b"/><stop offset="1" stop-color="#1d1d1b" stop-opacity="0"/></radialGradient><radialGradient xlink:href="#e" id="g" cx="1423.99" cy="582.34" r="178.61" fx="1423.99" fy="582.34" gradientTransform="matrix(.55 0 0 .04 -455.35 564.19)"/><radialGradient xlink:href="#e" id="i" cx="1905.3" cy="584.48" r="151.27" fx="1905.3" fy="584.48" gradientTransform="matrix(.57 0 0 .04 -458.75 558.58)"/><radialGradient xlink:href="#e" id="k" cx="1755.96" cy="583" r="138.65" fx="1755.96" fy="583" gradientTransform="matrix(.57 0 0 .04 -458.75 557.16)"/><style>.o{fill:#5b4343}.p{fill:#fff}.q{fill:#e0e7f5}.r{fill:#414a4c}.s{fill:#f99e83}.t{fill:#182e5b}.u{fill:#788388}.v{fill:#404551}.w{fill:#1d3039}.x{fill:url(#g)}.y{fill:#f5a3c2}.aa{fill:#273e44}.ab{fill:#f7bba4}.ac{fill:url(#e)}.ad{fill:#0d1548}.ae{fill:#383838}.af{fill:#ed5e95}.ag{fill:#ffba96}.ah{fill:#bf4071}.ai{fill:#f075b9}.aj{fill:url(#k)}.ak{fill:#304b4f}.al{fill:#99335a}</style></defs><g id="b"><g id="c"><path fill="#ed5e95" d="M894.94 7.95c-27.36-9.97-50.67 8.22-58.89 29.62-5.58 14.54-1.38 51.05.7 60.36 3.11 13.91-45.34-.83-44.51 22.68.67 19.16 26.62 56.25 27.4 74.38 1.13 26.14-60.21 2.24-71.78 21.84-5.89 9.97 24.08 49.11 28.48 63.78 7.48 24.93-71.37 6.15-65.08 39.07 5.06 26.49 49.97 87.55 50.87 107.93.79 18.03-54.02-15.66-53.99 2.62.04 17.71 51.25 83.5 104.44 73.84 66.15-12.02 110.14-101.86 98.7-129.75-10.73-26.16-66.85 10.53-69.47-6.22-3.36-21.52 97.32-67.05 95.88-99.6-1.05-23.78-51.57-7.62-53.33-33.65-2.11-31.12 66.3-82.55 62.58-107.76-3.34-22.65-58.28 7.98-61.08-14.89-2.47-20.18 36.97-94.1 9.08-104.26Z"/><path fill="#bf4071" d="M845.29 517.63c-35.55-49.33-67.36-110.35-54.75-172.88 4.04-20.46 13.79-39.13 24.76-56.64 8.08-13.09 16.32-26.01 22.36-40.16 4.02-9.37 6.97-19.17 8.83-29.19 1.85-10.07 2.38-20.29 2.47-30.52 1.39-45.84 4.79-93.48 25.39-135.22-20.12 41.91-23.01 89.47-23.9 135.25.01 10.3-.38 20.63-2.12 30.82-4.11 26.05-17.01 48.43-30.59 70.51-10.54 17.33-19.93 35.78-23.62 55.87-7.92 40.29 4.35 81.53 23.12 117.12 9.46 18.03 20.7 35.11 32.87 51.48l-4.83 3.56Z"/><path fill="#ed5e95" d="M652.75 122.15c-16.82-2.87-21.19 22.61-20.86 37.98.34 16.06 5.87 39.76 4.37 44.75-1.58 5.25-27.19-38.21-28.34-33.05-8.66 36.31 26.22 54.47 27.83 77.95.37 5.46-33.66-33.71-33.81-27.36-1.12 50.01 42.16 67.64 36.76 76.42-4.83 7.86-34.92-22.82-34.26-16.67 4.34 40.76 50.78 55.89 48.09 68.6-2.04 9.62-43.99-30.05-42.85-23.59 6.64 37.58 61 59.58 60.05 68.12-.93 8.33-54.84-31.54-54.84-31.54 16.45 59.65 38.6 55.52 38.38 65.31-.17 7.85-13.26 1.68-14.44 12.84-1.4 13.29 61.55 69.38 107.95 35.36 36.62-26.85 41.06-93.79 36.47-97.09-4.77-3.42-27.72 55.75-36.55 50.24-9.26-5.78 11.43-30.94 1.8-65.54-2.68-9.62-32.1 47.33-35.69 44.97-4.08-2.67 23.66-61.46 14.98-89.76-2.68-8.75-33.43 51.72-38.74 47.45-5.93-4.77 14.43-52.84 16.21-92.41.87-19.21-32.46 31.95-36.33 27.55-5.03-5.74 28.39-44.73 29-82.19.15-9.28-39.02 28.19-38.78 25.79 3.62-35.87 29.53-41.65 27.96-73.54-.29-5.8-22.75 22.19-24.04 18.2-1.18-3.64-2.58-17.2 2.28-33.37 4.71-15.68 3.26-32.7-12.61-35.41Z"/><path fill="#bf4071" d="M754.4 478.73c-59.2-42.77-96.19-116.11-105.36-187.68-3.28-29.23-.13-58.55.92-87.78.56-14.61.67-29.24.22-43.85.68 14.61.8 29.25.47 43.88-.58 29.15-3.27 58.5.44 87.52 10.12 70.47 47.64 141.87 106.75 183l-3.43 4.92Z"/><path fill="#f075b9" d="M253.14 162.38c31.41 18.67-19.74 61-22.9 69.19-4.76 12.32 39.61-5.65 37.87 8.52-3.11 19.91-49.14 34.65-51.98 53.61-4.37 29.22 77.86-44.85 57.66 1.62-14.09 32.42-38.88 35.42-44.62 62.36-5.19 35.14 60.28-16.57 65.03-7.18 3.33 6.57-29.58 34.75-32.03 63.84-3.37 39.98 56.42-15 55.13-5.18-9.52 72.23-45.71 24.96-65.87 90 18.99 6.41 58.97-32.84 48.16-1.38-8.58 24.97-31.54 64.64-123.65 45.73-47.2-9.12-85.32-104.31-52.09-99.43 56.54 16.85 49.5-10.15 51.75-15.7 3.22-7.89-52.91-73.25-47.66-105.81 2.64-16.38 27.44 26.88 31.38 7.91 6.32-30.46-28.71-68.46-23.27-93.99 4.39-20.62 26.09 34.77 43.79 1.86 18.82-35.01 27.62-103.15 73.29-76Z"/><path fill="#bf4071" d="m151.94 545.18 11.24-6.14c3.63-2.24 7.23-4.53 10.83-6.81 3.07-2.25 7.4-5.23 10.31-7.56 2.84-2.4 7.11-5.72 9.7-8.3 12.5-11.44 23.19-25.15 30.4-40.51 20.05-42.64-1.29-58.25-21.68-92.86-18.56-31.19-21.32-69.69-12.99-104.51 8.02-32.7 24.82-62.61 44.06-89.97-18.8 27.57-35.11 57.58-42.65 90.3-7.69 34.41-4.55 72.24 14.16 102.67 22.08 35.81 43.17 51.33 23.18 96.24-7.26 16.06-18.1 30.41-30.9 42.47-2.63 2.72-7.03 6.22-9.89 8.72-1.53 1.43-3.61 2.72-5.23 4.01-4.99 3.89-11.02 7.71-16.33 11.1l-11.46 6.47-2.75-5.33Z"/><path fill="#f5a3c2" d="M73.12 2.6C56.81 11.69 50.3 37.36 52.5 60.47c2.31 24.16 11.76 59.62 10.54 67.17-1.28 7.95-39.98-32.74-45.37-17.9 4.98 34.54 52.3 77.71 50.06 85.46-1.98 6.88-41.45-32.1-43.84-19.69-7.46 38.75 58.65 79.99 53.19 93.4-4.89 12-42.85-10.53-44.13-1.98-1.71 11.47 68.64 60.41 66.9 79.63-1.31 14.55-54.72-18.71-52.59-9.04 12.43 56.32 78.68 62.54 78.53 75.42-.14 12.56-67.05-8.2-67.05-8.2 12.46 50.94 92.31 44.46 93.21 59.19.72 11.81-57.73 3.39-57.83 20.23-.12 20.05 82.24 102.24 134.05 49.43 40.89-41.68 38.33-142.57 32.42-147.36-6.14-4.98-26.77 84.86-38.05 76.88-11.82-8.37 10.1-46.96-5.58-98.68-4.36-14.38-33.03 72.33-37.64 68.91-5.22-3.87 21.21-93.31 7.43-135.58-4.26-13.07-34.11 79-41 72.75-7.69-6.97 16.69-109.74 8.59-139.61-4.33-15.98-35.28 49.21-40.45 42.72-6.73-8.46 34.12-112.37 25.19-124.68-7.09-9.77-41.97 43.1-43.61 40.17-2.01-3.59 46.92-91.18 40.05-106.38-5.31-11.77-39.84 28.94-41.86 22.99-1.84-5.43 17.89-48.65 14.73-69.4-2.44-16.04-14.76-45.17-35.28-33.73Z"/><path fill="#bf4071" d="M237.73 533.75c-59.13-48.25-98.78-117.04-124.44-188.04-28.84-80.76-40.61-167.97-35.52-253.5-3.17 60.42 2.77 121.35 16.25 180.27 1.35 5.3 4.23 16.9 5.56 21.99 1.33 4.54 4.98 17.05 6.36 21.76 2.86 8.24 6.67 20.57 9.86 28.56 12.19 32.92 27.47 65.14 46.25 94.79 21.4 33.86 47.29 65.39 78.8 90.24l-3.1 3.92Z"/><path fill="#f075b9" d="M708.15 16.17c18.79-8.23 40.74 14.16 44.62 34.56 3.15 16.54-5.52 37.52-8.41 47.87-4.32 15.45 40.6-20.96 37.18 4.96-2.79 21.13-30.57 81.2-33.33 101.19-3.99 28.83 66.86-18.84 74.74 2.25 4.01 10.73-41.36 84.77-40.65 102.05.51 12.42 44.17-16.29 50.26.86 5.14 14.49-48.82 59.23-42.88 73.08 10.13 23.61 41.65-.85 42.69 6.49 4.28 30.17-64.24 73.51-67.36 96-2.76 19.89 58.78-14.16 56.65 5.97-2.06 19.5-57.28 61.74-102.74 53.36-17.56-3.24-95.42-42.14-90.09-89.86 1.42-12.7 46.67 42.44 54 11.05-12.29-31.46-45.68-57.14-39.32-72.15 12.4-29.26 58.7-14.46 62.91-33.02 5.41-23.83-60.38-69.37-57.1-105.49 1.85-20.36 62.77 15.73 41.99-32.04-14.02-32.24-54.33-60.82-45.45-87.99 4.76-14.54 45.25 27.38 50.33 2.09 4.48-22.33-4.69-42.32-9.36-65.45-4.49-22.27 6.51-49.3 21.33-55.78Z"/><path fill="#bf4071" d="M684.33 557.58c41.3-61.93 80.9-137.65 65.4-214.18-4.46-21.6-14.24-41.57-20.98-62.55-9.07-27.33-10.21-53.79-6.85-82.18 4.2-49.11 7.98-99.86-5.3-147.94 15.36 53.36 9.49 109.98 5.57 164.55-.8 16.42.51 33.02 4.39 49 3.84 16.1 10.29 31.25 16.32 46.67 6.37 16.08 11.44 32.97 13.22 50.28 2.85 27.06-.95 54.52-8.46 80.51-12.41 42.72-33.97 82.2-58.32 119.18l-4.98-3.34Z"/><path fill="#f5a3c2" d="M934.14 198.69c11.28 18.94-5.55 44.21-23.46 56.45-17.01 11.64-20.75 17.33-25.16 23.65-6.63 9.5 38.34 3.05 35.95 18.25-2.79 17.73-55.34 29.17-61.63 44.96-9.7 24.34 37.81.39 36.76 14.76-1.66 22.64-25.91 15.26-39.76 46.81-5.24 11.93 51.07-4.75 47.03 8.82-8.32 27.96-22.84 10.69-38.52 51.38-6.16 24.27 41.38-6.81 34.46 20.65-3.73 14.82-65.6 28.26-49.96 35.78 13.97 6.72 41.25-13.47 41.34-6.31.65 48-92.3 34.49-112.11 12.59-39.53-43.67 1.45-32.05 13.52-42.21 15.64-13.17-25.74-64.94-23.35-74.59 5.69-9.04 49.95 35.6 40.72 2.27-1.99-7.2-46.68-73.49-35.54-100.5 5.61-13.59 29.2 24.9 36.45 9.39 11.64-24.91-12.42-54.29-1.85-74.44 8.74-16.66 9.28 49.39 31.31 25.3 23.44-25.63 11.36-51.15 31.67-69.47 18.99-17.13 47.36-28.35 62.14-3.54Z"/><path fill="#bf4071" d="M759.44 535.56c39-8.2 72.59-29.06 79.74-70.83 2.44-15.24-1.59-30.46-4.56-45.42-1.51-7.6-2.8-15.28-3.47-23.03-4.83-53.7 21.11-107.92 50.01-151.74 4.34-6.4 8.89-12.66 13.78-18.65-4.83 6.04-9.3 12.35-13.57 18.79-28.23 43.82-53.6 98.15-48.23 151.42 1.38 15.43 5.78 30.26 8.28 45.57 2.86 15.84.31 31.4-6.37 46-6.58 14.38-17.83 26.37-31.22 34.64-13.34 8.38-28.3 13.76-43.53 17.17l-.86-3.91Z"/><path fill="#f5a3c2" d="M496.94 22.58c39.16-13.71 60.86 73.97 60.17 84.08-1.03 15.1 33.86-7.44 36.16 17.25 1.87 20.13-9.59 61.8-7.96 80.87 2.36 27.5 38.38-26.61 51.48-8.32 6.67 9.31 3.37 65.01 1.25 81.14-3.6 27.43 52.87-21.37 51.4 14.17-1.19 28.6-23.3 123.65-21.48 145.1 1.61 18.97 47.29-26.44 49.62-7.35 2.26 18.49-35.97 96.74-85.78 96.59-61.94-.19-113.75-85.76-106.92-117.01 6.41-29.31 62.39-1.49 62.61-19.46.28-23.09-97.53-51.82-100.44-86.07-2.12-25.02 46.09-17.59 44.33-45.09-2.11-32.88-73.84-70.92-73.7-97.93.12-24.26 51.99-7.9 51.59-32.3-.36-21.53-51.42-92-12.33-105.69Z"/><path fill="#bf4071" d="M598.56 543.71c29.95-64.98 54.15-144.87 18.84-212.4-15.01-28.03-38.86-50.99-50.2-81.15-6-14.87-9.07-30.75-10.93-46.6-6.74-46.92-14.87-95.39-39.3-136.76 24.9 41.17 33.54 89.64 40.78 136.56 1.41 10.52 3.18 20.93 6.15 31.1 3 10.12 6.97 19.93 12 29.21 7.55 14.02 17.29 26.52 26.79 39.3 12.87 17.01 24.1 35.81 29.86 56.53 17.6 62.92-2.92 128.98-28.55 186.72l-5.45-2.51Z"/><path fill="#ed5e95" d="M65.67 201.25c-20.8-4.28-28.75 19.46-30.27 38-1.47 17.94 4.82 36.65 5.11 51.08.66 33.37-27.06-17.92-28.56-5.34-1.66 14 29.13 64.12 27.56 74.23-1.41 9.02-37.89 2.03-39.46 11.05-2.14 12.3 61.23 42.1 59.35 54.22-1.49 9.64-57.68-28.21-51.69-14.59 19.37 58.1 73.57 46.46 72.58 55.74-.61 5.69-48.04 1.98-41.65 8.8 35.58 37.99 92.75 19.22 92.33 26.71-.32 5.74-46.76 9.99-49.07 24.32-2.19 13.63 37.22 19.48 72.61 32.97 40.15 15.3 71.71-66.34 59.81-84.64-3.25-5-36.41 42.71-42.06 33.56-6.16-9.98 42.3-47.77 7.84-92.67-3.93-5.12-12.06 50.72-24.42 41.82-14.63-10.53 8.99-77.31-.22-81.16-7.1-2.96-30.84 28.76-35.65 26.03-6.31-3.58 8.12-74.77 8.12-74.77-12.19-14.43-46.81 55.41-47.65 49.46-4.36-30.86 8.4-47.29 11.71-64.83 7.25-38.51-26.62 11.45-23.12-7.49 6.97-37.78 9.4-31.97 15.42-69.51 3.36-20.95-14.8-32.22-18.62-33Z"/><path fill="#bf4071" d="M155.67 573.37c13.88-41.89-3.57-88.47-31.96-120.29-5.14-5.21-10.62-10.1-16.07-14.99-11.18-9.66-21.95-20.19-30.81-32.08-4.46-5.96-8.96-11.83-12.7-18.31-20.5-38.14-11.52-90.22-1.42-130.44-9.44 39.95-17.74 92.08 3.05 129.51 2.72 4.73 6.18 9.1 9.5 13.46 5.59 7.27 11.59 14.26 18.14 20.65 9.88 9.6 21.05 17.99 31.13 27.45 6.17 5.85 11.32 12.65 16.08 19.57 21.08 30.81 32.48 70.72 20.78 107.3l-5.72-1.82Z"/><path fill="#ed5e95" d="M252.9 317.06c-11.08-5.31-21.3 1.09-26.98 13.93-3.38 7.62-3.33 20.07-2.79 25.3.81 7.82-15.27-8.01-18.08-1.54-4.1 9.42 7.02 36.18 6.43 46.12-.84 14.34-17.53-12.79-24.38-2.97-3.49 5-1.26 33.58.15 41.9 2.41 14.16-26.22 10-24.84 28.43 1.11 14.83 6.24 51.05 5.6 62.23-.57 9.89-26.22-12.6-27.19-2.63-.93 9.66 21.19 49.39 48.35 48.11 33.79-1.58 60.66-47.27 56.43-63.34-3.97-15.07-34.06.72-34.47-8.61-.53-11.98 46.66-28.52 51.58-63.83 1.8-12.89-20.93.34-20.41-13.98.62-17.13 15.44-22.85 17.76-55.83 1.24-17.62-17.76 14.57-17.94 1.89-.15-11.19.09-16.73 9.89-28.64 7.46-9.07 12.99-20.75.88-26.56Z"/><path fill="#bf4071" d="M203.48 586.39c-17.4-34.22-31.32-77.48-11.58-113.64 5.34-9.9 12.81-18.33 18.87-27.66 6.07-9.18 10.29-19.53 12.09-30.4.93-5.44 1.42-11.03 2.26-16.51 3.31-21.89 7.75-44.35 19.25-63.56-11.1 19.41-15.07 41.84-17.93 63.74-.73 5.54-1.12 11.05-1.92 16.6-1.57 11.16-5.67 21.93-11.65 31.46-5.82 9.46-13.04 18.02-18.07 27.88-18.17 35.35-3.55 76.62 13.98 109.31l-5.31 2.79Z"/><path id="d" fill="#383838" d="M865.35 545.36c0-13.89-88.81-25.15-198.36-25.15-93.82 0-172.42 8.26-193.06 19.35-6.56-.05-13.17-.08-19.84-.08-61.62 0-119.25 2.18-168.39 5.98-21.64-3.63-55.87-5.98-94.39-5.98-65.45 0-118.5 6.77-118.5 15.12 0 6.19 29.11 11.5 70.81 13.85-9.89 3.97-15.24 8.21-15.24 12.6 0 22.96 145.83 41.57 325.71 41.57s325.71-18.61 325.71-41.57c0-4.77-6.3-9.34-17.87-13.61 61.62-4.27 103.42-12.56 103.42-22.09Z"/><ellipse id="f" cx="370.46" cy="583" fill="url(#e)" rx="98.62" ry="8.34"/><ellipse id="h" cx="322.76" cy="588.42" fill="url(#g)" rx="98.62" ry="8.34"/><ellipse id="j" cx="626.01" cy="584.48" fill="url(#i)" rx="87.03" ry="7.52"/><ellipse id="l" cx="540.99" cy="583" fill="url(#k)" rx="79.77" ry="6.9"/><g id="m"><path fill="#404551" d="M535.47 187.13s-4.43-1.33-3.98-5.83c.45-4.5-2.25-11.4-4.05-15s4.65-8.85 10.35-10.65 2.4-7.8.75-12.6 4.5-4.95 6.15-7.95c1.65-3-.3.45-1.2-8.85s-1.05-7.5 4.2-13.8c5.25-6.3 6.65-10.1 6.35-13.55-.3-3.45 10.71-1.8 16.15-5.45 4.85-3.25 16.8-8.15 21.3-5.3 4.5 2.85 13.5 10.5 13.95 12.9.45 2.4 1.95 10.8 3.45 12.9 1.5 2.1 6.15 6.45 5.25 11.1-.9 4.65-2.77 10.2.11 14.4 2.89 4.2 14.14 12.45 13.54 16.05s7.35 6.15 10.05 10.2-11.25 17.1-11.25 17.1l-91.14 4.33Z"/><path fill="#99335a" d="m507.64 224.81 11.4 22.5 20.02-19.73s2.33 29.63 3.38 31.74 4.5 2.7 4.5 2.7 39.61 2.4 54.61 0c0-.3 14.1-31.51 12.6-50.11 16.95 18.45 29.71 26.1 30.01 28.2.3 2.1-1.8 3.3-1.8 3.3s19.8-2.4 24.9 5.7c0-.6 1.07-11.4 0-13.8-2.4-4.8-35.41-52.21-42.61-58.51-4.5-4.05-26.9-5.88-26.9-5.88l-28.61-2.23s-18.45 1.95-24 6.3c-3.6 3.15-37.51 49.81-37.51 49.81Z"/><path fill="#383838" d="M565.17 167.72c-.81.67-3.28 7.37-5.07 15.39-.12.53.47.94.93.64 2.34-1.49 3.61-1.11 3.61-1.11s-.23 16.13 4.5 16.65c3.75.3 12.75-3.6 23.1-19.5 0 .13 1.65 2.37 2.74 6.61.25.95 1.52 1.14 1.99.28 2.21-3.97 6.15-11.73 5.73-14.62-.57-3.96-8.54-6.12-9.95-8.95.03.04-22.86-1.65-27.6 4.61Z"/><path fill="#f7bba4" d="M592.55 145.89c-4.64 12.6.6 17.71.76 17.86 1.79 15.6-16.21 31.73-22.73 31.13-6.53-.6-1.42-26.18-1.42-26.18.56-1.54.85-2.85.96-3.96.24-2.29-.24-3.7-.65-4.39-.25-.44-.46-.58-.46-.5-16.81-6.9-11.56-38.26-11.56-38.26 15.45 3.75 27.9.6 30.24-2.7 2.33-3.3 4.86.75 4.86.75s-1.84 14.72.11 15.77c1.95 1.05 3.68-9.62 8.89-4.07 4.8 10.2-6.6 7.5-9 14.55Z"/><path fill="#5b4343" d="M570.11 164.74c.24-2.29-.24-3.7-.65-4.39l13.11-.35-12.46 4.77v-.03Z"/><path fill="#414a4c" d="M537.74 564.07s-2.6-.8-4.4 0c0-.1-4.1 8.7-14.2 13.1s-8.2 3.9-8.2 7.2c.2 0 31.01.8 35.01-1.9 4-2.7 5.18-14.2 7.24-16.6 2.06-2.4 6.36-7.3 6.36-7.3l4.3 20.9 2.9.3s1.9-30.71-2.7-39.21c-.1-.1-1.74-2.43-4.05 0-11.55 24.9-22.26 23.5-22.26 23.5ZM620.16 580.57c2.47 8.7 18.6 8.5 20.4-2.4 1.8-10.9.44-28.09-1.58-29.85-2.02-1.76-13.1-1.7-16.27 1.6s-4.85 22.55-2.55 30.65Z"/><path fill="#ffba96" d="M595.42 424.82c-.35-.92-.57-1.48-.57-1.48l31.93-1.6.98-.25s.06.32.19.93c.17.84.44 2.23.79 4.04-6.99-1.53-19.58-1.87-33.31-1.64Z"/><path fill="#f7bba4" d="M639.86 555.27s-.5 15.4-10.25 15.4c-6.47 0-8.84-6.59-8.55-11.16.74-7.32 2.66-12.83 1.69-32.25-1.11-22.23-16.47-70.91-22.75-90.05-.45-1.37-1.05-3.04-1.67-4.75 9.26-1.12 19.47-2.76 30.6-5.01.22 1.17.47 2.48.73 3.92 2.48 13.62 6.46 37.99 5.9 51.48-.8 19.4 4.3 72.41 4.3 72.41Z"/><path fill="#ffba96" d="M539.32 427.71c-.11-.79-.19-1.27-.19-1.27l28.61-1.68s.03.4.08 1.08c-12.1.65-22.71 1.42-28.5 1.87Z"/><path fill="#f7bba4" d="M566.74 476.05c-4.2 19.59-6.6 66.2-6.99 66.81-6 17.4-18 29.41-20.61 29.21-2.6-.2-1.59-8.4-1.4-8 7.59-18.29 3.83-103.76 2.65-126.89-.08-1.6-.33-3.85-.59-5.87 5.51 1.94 15.14 3.3 28.62 3.22.1 1.67.19 3.34.28 4.87.49 9.7.63 24.61-1.95 36.66Z"/><path fill="#304b4f" d="M630.96 427.04c-17.71-5.7-96.28 1.05-96.28 1.05-.2-.34-.31-.69-.33-1.05-6.31-65.71 10.88-165.54 10.88-165.54 32.41 3.61 56.32.51 56.32.51 26.4 25.51 22.12 55.82 19.21 89.42-2.06 23.85 12.6 74.72 10.2 75.61Z"/><path fill="#f7bba4" d="M601.4 278.82s-4.4 1.24-4.8 7.13c-.37 5.48 5.85 5.63 9.91 4.73s3.53 6.23 8.85 7.65c4.45 1.19 8.7 0 8.7 0s33.16-31.36 38.86-44.26c.75-.45-19.35-7.8-20.25-6.6s-13.95 32.26-20.1 37.96c-2.1 1.65-4.43-5.03-6.83-5.33-2.4-.3-14.33-1.28-14.33-1.28Z"/><path fill="#383838" d="M642.36 243.41s-3.85 6.72-3.85 8.67c0 2.75 6.13-1.93 12.63-.12 9.63 2.69 9.41 8.19 11.22 6.17 1.82-2.03 4.93-9.48 4.93-9.48s-7.08-11.01-24.93-5.24ZM497.53 228.21c-1.9 3.37 7.41 20 10.5 21.3 1.8.46 7.6 2.2 11-2.2l-11.4-22.5s-8.1-1.13-10.1 3.4Z"/><path fill="#5b4343" d="M568.42 434.52c-13.48.08-23.1-1.28-28.62-3.22-.17-1.4-.35-2.7-.48-3.6 5.79-.44 16.4-1.22 28.5-1.87.12 1.69.37 5.15.59 8.69Z"/><path fill="#0d1548" d="M539.32 427.71c.13.9.31 2.2.48 3.6-2.73-.97-4.45-2.07-5.13-3.22 0 0 1.69-.15 4.64-.38Z"/><path fill="#5b4343" d="M628.92 427.46c-11.13 2.26-21.33 3.89-30.6 5.01-1.07-2.91-2.23-5.92-2.9-7.65 13.73-.23 26.31.11 33.31 1.64.06.32.13.65.19 1Z"/><path fill="#0d1548" d="M595.42 424.82c.68 1.73 1.83 4.74 2.9 7.65-11.44 1.4-21.44 2.02-29.91 2.05-.22-3.53-.47-6.99-.59-8.69 8.84-.47 18.48-.87 27.6-1.02ZM630.96 427.04l-2.04.42c-.07-.35-.13-.68-.19-1 .82.18 1.56.37 2.23.58Z"/><path fill="#f7bba4" d="M437.97 266.96s7.05-7.28 11.1-9.83 7.74-4.33 49.6-26.61l8.38 16.99s-33.5 10.42-41.53 17.76c-3.91 3.57-8.1 13.3-8.1 13.3s-15.3-2.63-19.45-11.63ZM429.01 280.3s5.79-4.32 7.96-4.77c2.21-.46 8.4 9.15 8.4 9.15l-4.72 6.68-11.64-11.06Z"/></g><g id="n"><path fill="#f99e83" d="M354.41 64.65s-27.31-6.3-32.41-6c-5.1.31-10.5 19.51-10.5 19.51s-5.4 1.2-5.7 6.6c-.31 5.32 8.11 7.42 8.11 7.2 1.14 1.91 3.42 5.28 6.47 8.8.3.35-.91 3.71-.6 4.06 4.45 4.93 11.8 6.86 17.96 8.17 2.92.64 5.91.45 8.86-.93 14.1-6.6 7.8-47.4 7.8-47.4Z"/><path fill="#f99e83" d="M319.78 104.81c-.68 2.19-2.07 4.91-4.98 7.24l6.6 16.5s5.37 7.84 19.13 6.15l-3.52-15.37c-6.6-4.03-13.83-11.06-17.23-14.53Z"/><path fill="#5b4343" d="m337.74 112.98-.73 6.36c-6.6-4.04-13.83-11.06-17.23-14.53 0 0 11.37 6.78 17.96 8.17Z"/><path fill="#f99e83" d="M386.89 327.89s7.23 18.51 15.26 22.48c.08 0-24.84.31-24.84.31l-2.55-20.27 12.13-2.52Z"/><path fill="#788388" d="M428.94 365.1h-12.92v-6.3c0-5.85-4.76-10.6-10.6-10.6h-28.9v9.8h28.9c.44 0 .8.36.8.8v6.3h-50.73c-6.95 0-12.58 5.63-12.58 12.58v51.25c0 6.95 5.63 12.58 12.58 12.58h73.45c6.95 0 12.58-5.63 12.58-12.58v-51.25c0-6.95-5.63-12.58-12.58-12.58Z"/><path fill="#f99e83" d="M379.39 360.8s7.05 3.65 13.05 2.03c6.08-1.65 7.18-1.68 8.75-3.33 1.58-1.65-3-8.5-4.45-7.73-1.45.5 1.39 4.09-.13 4.63-1.51.53-3.12-6.47-4.93-5.71-2.33.98.82 4.93-.18 5.31-2.2.84-1.7-5.07-4.18-4.48-2.89 1.09.78 4.35-.87 4.91-1.25.42-2.41-3.78-3.78-3.56-1.73.28-.18 3.69-.88 3.97-.85.34-2.23-.66-4.63-3.09-.67-.68 2.2 7.05 2.2 7.05Z"/><path fill="#fff" d="m417.31 258.64 8.06 1.94-4.03 21.3h-9.29l5.26-23.24zM388.62 322.59l1.14 4.6-17.7 4.3-.65-8.7 17.21-.2z"/><path fill="#e0e7f5" d="M351.86 559.88v4.65l14.85.75.75-6.9-15.6 1.5zM299.95 558.38v8.63l18.15 1.73v-12.61l-18.15 2.25z"/><path fill="#1d3039" d="M373.91 325.67s19.35 90.77 19.35 107.29c0 20.83-24.15 126.92-24.15 126.92h-20.53s4.67-106.66 4.67-125.36c0-16.53-33.47-86.33-33.47-86.33l35.82-30.36 18.3 7.83Z"/><path fill="#273e44" d="M359.36 321.64s-30.67 83.94-34.32 146.05c-3.64 62.11-3.3 91.44-3.3 91.44l-24.77.75s-14.43-109.75-9.93-141.26c4.5-31.51.91-104.64.91-104.64l71.41 7.65Z"/><path fill="#404551" d="M319.78 104.81s-44.3-27.26-16.38-56.67c6.34-6.21 11.41-6.15 17.42-5.18 5.9.95 11.92-.72 16.44-4.63 4.57-3.96 10.51-7.36 16.84-6.39 13.8 2.1 17.21 32.26 1.7 34.96-6.01 1.05-16.99-5.41-22.26 2.55-4.37 6.6-.9 18.75-9.6 9.15-3.56-3.93-10.05 2.1-3.23 16.28 2.28 4.73-.95 9.94-.95 9.94Z"/><path fill="#fff" d="M337.04 120.64s4.09 13.1-.03 13.62c-2.37.3-10.41-.04-15.26-6.02-.35.32 34.76 178.05 34.76 178.05l18.92 3.51-3.91-103.38-23.28-79.66-11.18-6.11Z"/><path fill="#0d1548" d="M271.29 322.49s11.1 2.45 19.3 1c.06.04 19.82-.82 34.96-.7 24.99.2 49.68 3.77 49.66 2.88-.03-1.44-84.59-7.83-84.59-7.83l-19.33 4.65Z"/><path fill="#273e44" d="M390.41 321.34c-8.55-21.3-12.3-110.72-14.55-117.62-8.4-21.9-13.8-68.56-13.8-68.56-3.9-7.5-25.05-18.75-25.05-18.75l.03 4.24 9.26 6.11 20.88 90.1 7.7 92.95-14.13-2.73-.96-38.34-31.01-8.75c-9.79-2.77-18.23-9.04-23.67-17.63-4.26-6.73-8.82-13.2-13.27-20.45l-.35 2.17s-15.8 47.61-20.21 98.42c29-8 102.62 3.17 102.62 3.17s17.4-2.08 16.5-4.33Z"/><path fill="#182e5b" d="m291.85 221.9-2.71 9.63s5.38 7.25 20.56 23.88c7.05 7.73 29.48 12.38 50.45 17.31.4 0-.48-8.99-.48-8.99l-67.81-41.83Z"/><path fill="#0d1548" d="m379.61 324.85-4.93.72-7.59-109.14 12.52 108.42z"/><path fill="#182e5b" d="m293.59 125.17 11.23-6.51 54.77 97.77-16.36 5.47-49.64-96.73z"/><path fill="#304b4f" d="m417.72 256.83-6 26.56-51.92-14.65-31.01-8.75c-9.79-2.77-18.23-9.04-23.67-17.63-4.26-6.73-8.82-13.2-13.27-20.45-7.38-12.04-14.43-26.21-19.21-47.29-5.75-25.39.65-38.52 8.31-43.39l5.26 9.54s0 .03.02.04c3.39 7.29 8.38 17.81 14.03 28.97 11.32 22.37 25.28 47.33 34.19 54.06 5.09 3.83 14.5 8.3 25.21 12.69 25.36 10.38 58.05 20.31 58.05 20.31Z"/><path fill="#273e44" d="M359.59 216.43 314.8 112.05l-16.03 9.99-17.82 9.18 19.31 38.54c11.32 22.37 25.28 47.33 34.19 54.06 5.09 3.83 14.5 8.3 25.21 12.69l-.07-20.09Zm-49.49-60.57 4.7-7.4-9.01-1.2-6.19-22.23 9.95 17.79 9.38.68-3.09 9.67 42.57 61.57.36.7-48.67-59.57Z"/><path fill="#414a4c" d="M299.95 565.28s-1.98 3.59-2.78 8.18c-.81 4.66 2.78 9.22 9.63 15.02 10.25 5 18.87 3.15 23.65 3 10.6-.33-4.3-12.45-7.8-15.8-4.77-4.56-4.55-11.3-4.55-11.3s-6.7 6.05-18.15.9ZM351.86 564.53s-4.79 8.82-3.84 15.02c6.18 5.36 37.45 5.36 50.56 2.68 2.56-.52-.06-6.35-5.86-6.85s-17.61-2.92-20.91-5.22-5.1-4.88-5.1-4.88l-14.85-.75Z"/><path fill="#f99e83" d="M425.37 263.13s12.36-.72 16.46.03c.39.07-4.4 3.27-3.41 4.43 1.65 1.95 7.11-2.56 8.7-1.46 5.75 4 13.18 10.85 13.5 13.8.29 2.68-10.45 10-13 11.65s-5.69.78-7-.45c-.1-.09 2.73-2.95 2.25-5.5-.94-2.85-1.38-7.45-5.45-9.02-1.95-.75-8 4.07-8.75 3.72-2.94-1.37-6.41-3.33-6.41-3.33l3.11-13.88Z"/></g></g></g></svg>