<svg xmlns="http://www.w3.org/2000/svg" viewBox="0 0 950.29 639.38"><path fill="#f5a3c2" d="M282.19 91.08c-1.19-3.17-6.77-5.53-12.34-5.28-5.73-7.09-27.48-6.28-30.77 2.17-7.67.5-13.77 3.97-14.7 8.36h65.34c-.72-2.42-3.64-4.4-7.53-5.26ZM784.07 49.41c-1.79-4.75-10.16-8.31-18.52-7.92-8.6-10.65-41.24-9.42-46.19 3.26-11.52.74-20.67 5.96-22.06 12.55h98.08c-1.08-3.63-5.46-6.61-11.31-7.89ZM407.29 62.28c-1.95-5.76-10.83-10.04-19.91-9.59-9.45-13.01-44.38-11.29-49.64 3.95-12.38.9-22.21 7.21-23.71 15.2h105.4c-1.16-4.39-5.87-8-12.15-9.55Z"/><path fill="#ed5e95" d="M148.6 109.19c-26.75 16.98-28.66 57.35-15.57 79.78 12.44 21.32 30.86 75.85 31.78 85.23 1.39 14.1-57.01-45.13-61.95-14.94-3.68 22.48 9.86 113.69 6.49 134.97-5.2 32.81-70.86-39.78-90.49-11.32-9.89 14.34 34.07 63.61 35.58 88.67 2.21 36.47-56.61-21.22-54.39 6.02 3.01 16.7 42.51 52 53.84 72.01 9.11 16.1-37.42 7.31-26.59 20.11 10.83 12.8 79.27 28.08 93.71 27.4 61.61-2.9 163.5-99.43 120.93-97.11-75.51 13.41-31.51-35.76-27.18-44.45 4.07-8.16 66.69-72.03 68.96-108.65 1.15-18.57-43.81-3.71-41.79-25.11 3.25-34.37 44.56-69.59 31.2-105.27-9.24-24.67-38.93 41.33-48.76 3.2-10.47-40.57 9.8-55.94-1.96-86.55-11-28.63-38.77-46.24-73.81-24Z"/><path fill="#bf4071" d="M143.16 620.04c-29.09-18.78-54.92-46.04-63.34-80.46-4.13-16.97-4.47-35.85 3.54-51.76 7.83-15.74 21.56-27.49 34.47-38.74 8.66-7.47 17.33-14.88 25.4-22.88 28.47-27.6 48.05-65.07 51.57-104.81 1.41-17.06 1.02-34.22.09-51.31-2.08-34.2-6.38-68.32-13.24-101.91-2.42-11.16-4.86-22.39-9.06-33.03 4.28 10.61 6.82 21.83 9.33 32.97 7.13 33.57 11.71 67.66 14.07 101.9 1.07 17.13 1.6 34.36.32 51.5-3.23 40.22-22.48 78.48-50.99 106.78-8.07 8.2-16.71 15.78-25.26 23.34-12.6 11.29-25.63 22.63-33.07 37.96-4.92 10.03-6.25 21.32-5.38 32.36 1.6 22.4 11.84 43.51 26.31 60.46 10.96 12.85 24.21 23.53 38.46 32.58l-3.23 5.05Z"/><path fill="#f5a3c2" d="M91.88 152.93c-23.86-6.26-53.63 25.39-55.71 48.05-2.01 21.92 21.93 37.97 18.96 54.91-3.69 21.1-43.49 11.42-45.44 26.77-2.16 17.08 45.06 45.34 43.06 57.65-1.78 10.99-40.71-3.43-42.67 7.55-2.68 14.98 66.77 58.67 64.4 73.44-1.89 11.75-56.5-11.74-58.47-4.12 6.82 39.47 83.09 44.26 81.78 55.6-.8 6.95-34.68.36-33.58 4.12 11.46 39.12 91.88 32.7 91.27 41.87-.47 7.03-53.99 9.99-56.89 27.45-2.76 16.6 38.26 55.54 82.97 43.93 46.93-12.19 73.53-94.38 70.33-100.9-3.22-6.54-42.65 50.61-48.99 39.12-6.92-12.54 15.82-105.36 10.67-113.25-4.29-6.57-14.77 61.61-28.84 50.1-16.65-13.62 11.71-94.37 1.19-99.52-8.11-3.97-36 33.78-41.48 30.2-7.2-4.69 10.67-91.29 10.67-91.29-13.77-18.29-52.11 62.47-55.71 58.34-3.03-3.49 22.41-85.91 14.62-78.93-25.29 22.65-30.83 12.76-26.47-10.3 8.69-45.99 31.8-32.95 26.08-71.38-3.96-26.61-17.36-48.27-21.73-49.42Z"/><path fill="#bf4071" d="M183.05 609.15c16.58-52.04-2.06-109.94-34.49-152.02-11.88-13.9-25.65-25.89-37.57-39.8-8.99-10.47-16.81-21.82-24.09-33.5-5.02-7.67-9.13-16.11-11.98-24.85-14.82-47.92-5.46-101.43 6.29-149.08-11.02 47.48-19.68 101.08-4.34 148.42 4.25 13 11.95 24.38 19.67 35.56 5.19 7.47 10.72 14.69 16.72 21.49 11.3 12.77 24.3 24.14 35.86 36.73 24.37 28.69 40.75 66.06 44.82 103.54 1.9 18.47.3 37.43-5.17 55.31l-5.73-1.79Z"/><path fill="#f28cc4" d="M210.05 296.96c11.9 7.05 25.07 23.09 23.39 34.3-1.4 9.39-7.94 19.48-9.48 25.11-2.3 8.39 29.28.23 27.97 14.5-1.06 11.63-20.3 33.78-21.4 44.77-1.58 15.86 35.05 2.45 41.11 14.56 3.08 6.17-15.77 29.4-18.86 38.23-5.24 15.01 41.42 5.02 36.6 24.91-3.88 16-32.23 52.29-33.47 64.65-1.1 10.94 32.07-8.54 31.4 2.56-.64 10.76-32.83 49.81-63.52 42.98-38.17-8.49-60.67-63.87-53.02-80.6 7.18-15.7 38.63 7.61 40.74-2.52 2.72-13.01-54.42-42.49-52.44-62.24 1.45-14.43 30.35-3.7 32.29-19.48 2.32-18.87-34.9-51.33-31.85-66.58 2.75-13.7 32.85 5.88 35.29-7.96 2.15-12.22-16.77-22.53-15.22-35.33 1.64-13.61 7.09-45.71 30.47-31.86Z"/><path fill="#bf4071" d="M200.53 608.21c22.26-28.2 42.87-62.63 38.94-99.86-1.27-12.24-5.92-23.67-11.5-34.59-7.17-13.78-14.1-28.3-15.42-44.03-.98-9.34.09-18.69.31-28.03.6-24.65-.08-50.09-9.25-73.3 9.6 23.08 10.75 48.63 10.58 73.33-.23 12.32-1.24 24.79 1.85 36.85 4.06 18.37 15.86 33.47 22.43 50.92 11.78 30.14 2.8 63.84-12.46 91-6.07 11.03-13.15 21.44-20.75 31.4l-4.72-3.7Z"/><path fill="#f28cc4" d="M839.64.37c19.4-4.88 39.32 39.79 25.67 86.3-11.74 40.03-37.69 72.34-36.77 81.48 1.08 10.63 76.82-9.63 62.31 12.67-24.88 38.23-91.4 61.4-89.47 76.93 1.7 13.65 85.96-18.43 75.02 10.41-26.53 69.93-127.09 81.74-127.67 108.05-.48 21.64 93.69-16.86 77.03 11.45-45.73 77.72-124.15 86.35-123.6 109.76.37 15.83 84.53-8.57 70.07 14.62-27.75 44.5-68.55 88.65-108.7 99.77-42.46-31.58-91.34-146.44-80.27-164.27 10.37-16.71 64.66 58.3 71.64 44.83 7.76-14.97-13.05-105.79-15.9-152.08-1.83-29.77 46.99 38.65 60.58 8.61 14.17-31.31-28.61-75.31-23.88-140.01 1.41-19.25 50.4 41.08 62.56 22.4 13.27-20.39-16.02-58.12-.78-133.88 10.21-50.75 13.92 54.37 43.03 40.58C816.49 120.93 814.47 6.7 839.64.37Z"/><path fill="#bf4071" d="M660.36 605.02c7.84-72.1 22.45-143.5 45.51-212.27 6.73-19.87 14.61-39.9 23.31-59 2.21-4.59 5.56-11.85 7.92-16.32 9.69-18.52 19.11-37.74 27.43-56.9 28.9-66.24 53.63-134.27 76.94-202.67-22.47 68.73-46.37 137.07-74.48 203.73-8.11 19.28-17.29 38.72-26.82 57.37-2.29 4.44-5.58 11.69-7.73 16.27-8.48 19.05-16.14 39.02-22.66 58.83-15.06 45.67-25.88 92.67-33.92 140.06-3.96 23.69-7.33 47.58-9.53 71.41l-5.98-.51Z"/><path fill="#f5a3c2" d="M910.86 103.79c23.53 13 16.72 42.15 3.72 61.62-11.96 17.91-12.23 31.63-9.61 38.07 1.81 4.46 6.58-3.11 14.04-8.54 4.8-3.5 11.52.17 11.12 6.1-1.57 23.28-31.05 53.74-27.94 59.14 3.31 5.73 34.85-27.88 42.11-18.74 19.81 24.96-59.71 84.39-51.57 95.33 7.29 9.8 43.72-15.36 46.57-8.06 3.82 9.79-53.45 54.46-48.25 71.03 3.93 12.54 51.3-26.58 56.43-17.72 19.73 34.06-83.83 76.49-81.43 87.74 1.76 8.25 42.05-11.59 62.06-15.48 14.95-2.91 24 5.13 21.87 9.78-16.31 35.66-104.32 42.24-102.85 54.06 1.29 10.44 32.77-19.07 49.49 1.99 20.97 26.4-71.21 18.07-71.21 38.19 0 7.85 50.79-7.11 56.35 0 24.77 31.69-109 38.85-115.64 43.34-49.08 33.19-53.47-130.87-48.02-135.91 5.66-5.24 43.25 70.39 53.85 61.79 11.11-9.02-18.92-39.63-11.27-87.13 2.13-13.2 36.91 34.44 41.21 30.79 4.87-4.14-18.88-42.48-11.61-81.43 2.25-12.05 40.2 39.88 46.44 33.43 6.96-7.2-27.8-60.96-24.4-88.25 1.82-14.6 33.51 9.27 37.87 2.85 5.68-8.37-41.25-65.56-33.9-77.6 5.83-9.56 41.75 12.22 42.98 9.42 1.51-3.43-42.83-51.83-38.18-66.11 3.6-11.05 24.87 8.99 25.98 3.5 1.01-5.01-7.86-34.55 0-51.41 7.43-15.94 45.83-61.71 63.8-51.78Z"/><path fill="#bf4071" d="M764.11 587.75c46.06-43.4 75.15-103.04 92.22-163.37 14.85-51.99 16.49-106.37 16.57-160.12.74-38.7-.01-80.2 20-114.73-19.56 34.74-18.3 76.05-18.57 114.73.45 49.04-.13 98.61-11.2 146.65-13.23 57.55-37.27 113.41-74.69 159.46-6.29 7.66-12.95 15.03-20.32 21.83l-4.02-4.46Z"/><path fill="#ed5e95" d="M860.62 273.6c-15.55 3.06-35.81 14.97-38.17 27.14-1.97 10.2 1.36 22.94.94 29.3-.63 9.49-31.87-10.14-35.77 5.07-3.18 12.39 9.46 42.09 6.55 53.84-4.2 16.94-38.96-9.9-50.05.47-5.65 5.28 6.17 35.97 6.23 46.18.1 17.37-46.84-9.5-49.01 12.76-1.75 17.91 15.51 65.44 12.25 78.66-2.88 11.69-31.63-20.19-35.05-8.48-3.31 11.34 17.09 63.09 52.95 66.92 44.6 4.76 89.66-44.47 87.59-64.47-1.95-18.76-44.77-5.84-43.29-17.05 1.9-14.4 74.91-24.6 80.11-45.71 3.8-15.42-31.57-14.58-27.8-31.57 4.51-20.32 57.02-40.65 59.38-57.49 2.12-15.12-37.85-5.57-35.34-20.73 2.22-13.38 26.6-17.33 29.69-31.1 3.28-14.64 9.33-49.73-21.21-43.72Z"/><path fill="#bf4071" d="M748.94 600.61c-13.42-38.51-22.17-83.79-2.12-121.58 6.49-12.36 16.37-22.56 26.72-31.66 12.8-11.15 25.47-22.88 33.05-38.3 4.71-9.11 7.22-19.11 10.62-28.76 9.02-25.71 19.89-51.76 38.69-71.94-18.44 20.46-28.84 46.56-37.43 72.36-3.27 9.76-5.62 19.88-10.19 29.17-7.36 15.77-20.1 28.1-32.8 39.59-9.98 9.14-19.32 19.11-25.41 31.25-12.49 24.17-12.29 52.74-6.92 78.87 2.69 13.26 6.7 26.25 11.44 38.96l-5.64 2.05Z"/><path fill="#383838" d="M353.48 622.24c62.7 11.46 429.17 39.14 496.48-16.07 56.09-51.82-456.27-25.01-498.66-20.85-34.57 6.56-67.23 24.24 2.18 36.92Z"/><ellipse cx="270.12" cy="602.88" fill="#383838" rx="228.92" ry="23.09"/><rect width="271.54" height="512.12" x="420.04" y="94.92" fill="#44465f" rx="16.46" ry="16.46"/><rect width="257.59" height="499.9" x="427.02" y="100.16" fill="#35374d" rx="16.46" ry="16.46"/><rect width="245.59" height="488.73" x="432.61" y="105.39" fill="#ededed" rx="16.46" ry="16.46"/><path fill="#35374d" d="M489.07 105.25h133.48v4.87c0 7.79-6.32 14.11-14.11 14.11H503.17c-7.79 0-14.11-6.32-14.11-14.11v-4.87Z"/><circle cx="509.87" cy="110.75" r="4.49" fill="#788388"/><rect width="77.47" height="6.85" x="525.59" y="107.33" fill="#485961" rx="2.55" ry="2.55"/><path fill="#292929" d="M636.88 118.18h-1.51v-2.45h1.51v2.45Zm3.13-4.6h-1.51v4.6h1.51v-4.6Zm2.95-1.77h-1.51v6.37h1.51v-6.37ZM664.09 113.48h-1.56v-1.19c0-.27-.22-.49-.49-.49h-10.35c-.27 0-.49.22-.49.49v5.4c0 .27.22.49.49.49h10.35c.27 0 .49-.22.49-.49v-1.19h1.56c.18 0 .33-.15.33-.33v-2.36c0-.18-.15-.33-.33-.33ZM456.07 118.18h-1.33v-4.24l-1.31.38v-1.01l2.52-.87h.12v5.74Zm1.81-2.8.35-2.93h3.35v1.02h-2.27l-.13 1.15c.09-.05.22-.1.37-.15.15-.04.3-.06.45-.06.57 0 1.01.17 1.31.51.31.34.46.81.46 1.42 0 .37-.08.7-.25 1-.16.3-.39.53-.69.69s-.65.24-1.05.24c-.36 0-.7-.07-1.01-.22-.32-.15-.56-.35-.74-.61s-.27-.55-.26-.88h1.33c.01.21.08.38.2.5.12.12.28.19.48.19.45 0 .67-.33.67-.99 0-.61-.27-.92-.82-.92-.31 0-.54.1-.69.3l-1.06-.25Zm5.44-1.63c.21 0 .38.06.52.19.14.12.21.29.21.48s-.07.35-.21.48c-.14.12-.31.19-.52.19s-.39-.06-.53-.19-.21-.29-.21-.48.07-.35.21-.48c.14-.13.31-.19.53-.19Zm0 3.14c.21 0 .38.06.52.19.14.12.21.28.21.48s-.07.35-.21.48c-.14.12-.31.19-.52.19s-.39-.06-.53-.19-.21-.29-.21-.48.07-.35.21-.48c.14-.13.31-.19.53-.19Zm5.56-1.06c0 .78-.17 1.37-.52 1.79-.35.42-.84.63-1.47.63s-1.13-.21-1.48-.63c-.35-.42-.52-1.02-.52-1.79v-1.05c0-.78.17-1.37.52-1.79s.84-.63 1.48-.63 1.13.21 1.48.63c.35.42.52 1.02.52 1.79v1.04Zm-1.33-1.22c0-.41-.05-.72-.16-.92-.11-.2-.28-.31-.51-.31s-.39.09-.5.28c-.1.19-.16.48-.17.86v1.47c0 .43.05.74.16.94.11.2.28.3.51.3s.39-.1.5-.29c.11-.19.16-.5.17-.91v-1.42Zm6 1.22c0 .78-.17 1.37-.52 1.79-.35.42-.84.63-1.47.63s-1.13-.21-1.48-.63c-.35-.42-.52-1.02-.52-1.79v-1.05c0-.78.17-1.37.52-1.79s.84-.63 1.48-.63 1.13.21 1.48.63c.35.42.52 1.02.52 1.79v1.04Zm-1.33-1.22c0-.41-.05-.72-.16-.92-.11-.2-.28-.31-.51-.31s-.39.09-.5.28c-.1.19-.16.48-.17.86v1.47c0 .43.05.74.16.94.11.2.28.3.51.3s.39-.1.5-.29c.11-.19.16-.5.17-.91v-1.42Z"/><path fill="#eb4786" d="M254.09 593.25c2.11 0 3.99-1.4 4.55-3.44 3.91-14.15 11.62-28.08-5.92-14.37-4.79 3.74-13.3-20.18-19.31-20.68-6.06-.51-7.86 14.46-16.55 14.59-8.46.13-14.18-16.94-22.75-9.51-5.25 4.54 6.93 14.12 9.52 29.18.4 2.35 2.38 4.1 4.76 4.11 39.26.26-1.97.16 45.69.12ZM605.16 617.18c-2.63 0-4.94-1.79-5.55-4.34-6.07-25.76-23.44-40.35-18.37-46.19 5.75-6.62 39.98 27.56 44.61 27.35 3.94-.18 4.18-23.99 10.2-24.7 6.88-.81 16.54 21.84 24.35 21.15 7.63-.67 12.19-16.22 19.75-16.84 7.63-.62 4.79 12.5 15.73 12.66 10.66.16 15.49-19.08 35.25-17.03 9.18.96-12.21 26.98-14.46 43.25-.37 2.69-2.71 4.68-5.43 4.68h-106.1Z"/><path fill="#f28cc4" d="M599.44 628.7c-2.6 0-4.68-1.79-5.59-4.22-2.29-6.11-15.71-19.62 6.66-9.68 5.8 2.58-4.23-10.2 0-17.82 3.63-6.53 11.69 13.61 22.36 13.77 4.32.07 6.55-16.06 13.84-19.26 3.87-1.7 3.07 20.16 7.78 19.89 6.16-.35 17.59-14.34 21.08-11.32 6.44 5.58-7.6 4.56-6.59 23.94.15 2.92-.48 4.52-3.41 4.54-48.23.32 2.42.2-56.13.15Z"/><path fill="#ea4c89" d="M267.94 596.15c1.79 0 2.24-1.67 3.58-2.85 4.88-4.32 5.94-15.78-3.58-7.58-3.32 2.86-.63-4.25-3.55-9.5-2.5-4.5-2.84 7.63-10.2 7.74-2.98.05-7.53-5.54-12.55-7.74-2.67-1.17-3.36 8.12-6.61 7.94-4.25-.24-12.04-7.84-14.45-5.75-4.44 3.85 2.99 5.1 7.7 14.36.91 1.8 1.34 3.46 3.36 3.48 33.27.22-4.08-.05 36.3-.09Z"/><path fill="#f99e83" d="m408.1 500.02 5.53 3.85-9.67 18.18-8.94-5.23 13.08-16.8z"/><path fill="#eff1fe" d="m419.52 503.94.78.43c.19.1.3.3.3.51l.15 39.93-1.23-.08v-40.79Z"/><path fill="#f075b9" d="M415.23 501.67c-.78-.23-1.61.14-1.97.86l-9.73 19.35c-.28.55-.1 1.22.43 1.54l5.39 3.25s.6 9.22 4.74 14.13c4.13 4.9 5.43 3.94 5.43 3.94v-40.79s-2.13-1.64-4.28-2.27Z"/><path fill="#1d3039" d="m327.6 362.53-34.8 85.29s-7.47 25.3 10.66 34.9c18.13 9.6 90.78 44.23 90.78 44.23l15.6-28.66-23.25-18.84L333.3 364.1l-5.7-1.57Z"/><path fill="#f99e83" d="m364.61 589.37.76 6.22 20.56-1.15-.98-8.72-20.34 3.65z"/><path fill="#eff1fe" d="M345.85 606v.8c0 .38.31.68.69.68l40.81-.1c.43 0 .8-.33.85-.76l.12-1.01-42.47.38Z"/><path fill="#f075b9" d="M363.41 594.44s-2.4 4.09-3.93 4.31c-1.53.22-11.12 1.25-12.49 3.16-1.36 1.91-1.15 4.09-1.15 4.09h42.42s1.42-11.62-.49-11.83c-1.91-.21-24.37.27-24.37.27Z"/><path fill="#273e44" d="m331.27 363.54 28.56 227.3 28.95-1.51-.99-172.03c-.06-2.37.6-4.68 1.78-6.73 1.43-2.49 3.14-7.36 3.11-16.42-.04-11.36-3.24-14.47-3.24-14.47l-.98-2.9-57.21-13.26Z"/><path fill="#d87a64" d="M307.85 273.01s-6.22-5.45-16.03-6.65v6.22l17.01 9.49-.98-9.05Z"/><path fill="none" stroke="#485961" stroke-linecap="round" stroke-miterlimit="10" stroke-width="4" d="m281.02 245.2 10.96 28.13"/><path fill="#f99e83" d="M306.98 277.91s-6.22-6.98-22.03-6.98c-1.64 0-1.54 3.43-.23 3.37 1.31-.05 3.39 2.08 3.17 3.5s-.1 10.41 1.82 13.12c2.94 4.14 16.17 4.11 16.17 4.11l1.09-17.12ZM360.35 196.56s-4.74 42.97 14.45 37.73c1.09.03.88 10.91.88 10.91l26.4 2.3c0-19.97-11.13-55.52-11.13-55.52l-30.6 4.58Z"/><path fill="#f075b9" d="M375.64 240.51s-17.08 15.38-26.89 42.31c.1.2-33.45-8.35-39.85-9.98-.53-.14-1.05.27-1.05.82v3.28l-2.4-.33-1.78 19.43L339.78 309s-11.97 27.93-17.12 52.32c-.32 1.52.59 3.03 2.07 3.48 10.15 3.1 47.31 14.32 66.36 16.29 8.54-16.65 5.79-33.92 11.14-49.19 5.34-15.27 17.62-31.19 17.62-51.25s-17.23-35.88-17.23-35.88-7.07 2.07-26.98-4.25Z"/><path fill="#bf4071" d="M378.53 267.98c-.33-.08-.28-.09-.36.07l-.09.2-.18.4c-3.19 6.88-6.48 14.55-9.66 21.42-.72 1.87-3.12 2.86-4.96 2.16l-1.68-.44-3.37-.88c-4.26-1.11-15.8-4.11-20.21-5.26-2.07-.54-28.93-7.53-30.32-7.88l-.38-.1c-.07-.01-.13-.02-.19 0-.23.04-.42.23-.45.47-.08.5-1.12 7.26-1.23 7.95l-1.07 6.88c-.06.27-.15 1.01-.2 1.28-.13.85.4 1.73 1.21 2.01l.4.14 1.64.57 52.6 18.29c1.07.35 7.24 2.53 8.22 2.86 3.09 1.42 6.59.05 8.17-2.9l.99-1.43c26.12-37.93 26.96-37.35 1.07.74l-.97 1.44c-1.84 3.44-6.11 5.05-9.7 3.42-.95-.31-7.11-2.48-8.22-2.85l-52.62-18.25-1.64-.57-.42-.15c-1.59-.55-2.46-2.35-2.04-3.95l.14-.86 1.1-6.87 1.1-6.87c.13-.63.12-1.47.57-1.98.53-.68 1.5-.83 2.27-.53 10.69 2.83 33.23 8.79 43.74 11.57 2.19.58 7.97 2.11 10.09 2.67.43.1 2.03.57 2.46.62 1.24.15 2.47-.56 2.97-1.74l1.5-3.14c2.8-5.86 6.15-12.52 8.91-18.41l.09-.2c.07-.15.1-.13-.17-.32l.91.42Z"/><path fill="#44465f" d="M349.54 187.37c1.6.68 4.02 1.11 7.09-.11l19.78-11.92s4.65-3.05 11.05 1.6 6.69 6.69 6.4 8.29c0 0 3.49-.36 4.36.62s5.38 1.56 3.2 18.14c-1.53 11.63.46 18.78 1.78 22.01.31.75-.45 1.49-1.19 1.18-4.2-1.75-13.02-5.96-13.56-10.64-.71-6.16 3.65-11.89-2.29-12.81-5.94-.93-5.02 4.42-5.02 4.42l-3.27-.27s1.64-8.62-5.56-8.94c-7.2-.33-13.69-.16-13.69-.16s-7.88-3.77-10.5-9.89c-.4-.93.5-1.88 1.43-1.48Z"/><g fill="#292929"><path d="M496.06 490.28h7.16v3.16h-11.27v-17.06h4.11v13.9ZM510.91 493.68c-1.95 0-3.52-.58-4.72-1.74s-1.8-2.67-1.8-4.53v-.33c0-1.3.24-2.44.72-3.43s1.18-1.76 2.1-2.3 2.02-.81 3.28-.81c1.78 0 3.19.55 4.22 1.66s1.55 2.65 1.55 4.62v1.54h-7.85c.14.71.45 1.27.93 1.68s1.09.61 1.85.61c1.25 0 2.23-.44 2.93-1.31l1.8 2.13c-.49.68-1.19 1.22-2.09 1.62s-1.87.6-2.91.6Zm-.45-10.1c-1.16 0-1.84.77-2.06 2.3h3.98v-.3c.02-.63-.14-1.12-.48-1.47s-.82-.52-1.44-.52ZM522.44 477.61v3.15h2.09v2.74h-2.09v5.8c0 .48.09.81.26 1s.51.28 1.02.28c.39 0 .72-.02.98-.07v2.82c-.71.23-1.45.34-2.23.34-1.36 0-2.36-.32-3.01-.96s-.97-1.61-.97-2.92v-6.29h-1.62v-2.74h1.62v-3.15h3.95ZM527.76 481.73l-1.73-.94c.65-1.12.98-2.23 1-3.3v-2.04h2.88v1.91c0 .73-.21 1.5-.63 2.33s-.92 1.51-1.52 2.04ZM536.1 489.88c0-.34-.18-.61-.53-.81s-1.02-.41-2-.63-1.8-.51-2.44-.86-1.13-.79-1.46-1.29-.5-1.09-.5-1.75c0-1.16.48-2.12 1.44-2.88s2.22-1.13 3.77-1.13c1.67 0 3.02.38 4.03 1.14s1.52 1.75 1.52 2.99h-3.96c0-1.02-.54-1.52-1.61-1.52-.41 0-.76.12-1.04.35s-.42.52-.42.86.17.64.52.86.89.4 1.65.54 1.42.31 1.99.5c1.91.66 2.86 1.83 2.86 3.53 0 1.16-.51 2.1-1.54 2.82s-2.36 1.09-3.99 1.09c-1.09 0-2.05-.2-2.91-.59s-1.52-.92-1.99-1.59-.71-1.38-.71-2.12h3.69c.02.59.21 1.01.59 1.28s.86.4 1.44.4c.54 0 .94-.11 1.21-.33s.4-.5.4-.86ZM552.33 477.61v3.15h2.09v2.74h-2.09v5.8c0 .48.09.81.26 1s.51.28 1.02.28c.39 0 .72-.02.98-.07v2.82c-.71.23-1.45.34-2.23.34-1.36 0-2.36-.32-3.01-.96s-.97-1.61-.97-2.92v-6.29h-1.62v-2.74h1.62v-3.15h3.95ZM555.12 486.99c0-1.27.25-2.39.74-3.38s1.2-1.75 2.12-2.28 2-.8 3.25-.8c1.9 0 3.39.59 4.49 1.76s1.64 2.78 1.64 4.8v.14c0 1.98-.55 3.54-1.65 4.71s-2.58 1.74-4.46 1.74-3.25-.54-4.35-1.62-1.68-2.55-1.77-4.4v-.67Zm3.94.25c0 1.17.18 2.03.55 2.58s.91.82 1.63.82c1.41 0 2.12-1.08 2.16-3.25v-.4c0-2.27-.73-3.41-2.18-3.41-1.32 0-2.04.98-2.14 2.94v.71ZM580.44 490.63c.55 0 .98-.15 1.29-.45s.45-.72.45-1.26h3.7c0 1.39-.5 2.53-1.49 3.42s-2.28 1.34-3.85 1.34c-1.84 0-3.3-.58-4.36-1.73s-1.59-2.76-1.59-4.8v-.16c0-1.28.24-2.41.71-3.39s1.15-1.73 2.04-2.26 1.95-.79 3.16-.79c1.65 0 2.96.46 3.93 1.37s1.45 2.15 1.45 3.71h-3.7c0-.66-.16-1.16-.48-1.51s-.75-.53-1.29-.53c-1.02 0-1.62.65-1.79 1.96-.05.41-.08.98-.08 1.71 0 1.27.15 2.16.46 2.65s.79.74 1.45.74ZM591.4 482.13c.84-1.06 1.92-1.59 3.23-1.59 1.4 0 2.45.41 3.16 1.24s1.07 2.05 1.09 3.67v8h-3.96v-7.91c0-.67-.14-1.17-.41-1.48s-.74-.47-1.39-.47c-.81 0-1.39.26-1.72.77v9.09h-3.95v-18h3.95v6.68ZM608.23 493.45c-.14-.26-.27-.64-.38-1.14-.73.91-1.74 1.37-3.05 1.37-1.2 0-2.21-.36-3.05-1.08s-1.25-1.63-1.25-2.72c0-1.38.51-2.41 1.52-3.12s2.49-1.05 4.43-1.05h1.22v-.67c0-1.17-.5-1.75-1.51-1.75-.94 0-1.41.46-1.41 1.39h-3.95c0-1.22.52-2.22 1.56-2.98 1.04-.76 2.37-1.15 3.99-1.15s2.89.39 3.83 1.18 1.42 1.87 1.44 3.25v5.61c.02 1.16.2 2.05.54 2.67v.2h-3.95Zm-2.47-2.58c.49 0 .9-.11 1.22-.32s.56-.45.7-.71v-2.03h-1.15c-1.38 0-2.06.62-2.06 1.85 0 .36.12.65.36.87s.55.33.93.33ZM618.43 477.61v3.15h2.09v2.74h-2.09v5.8c0 .48.09.81.26 1s.51.28 1.02.28c.39 0 .72-.02.98-.07v2.82c-.71.23-1.45.34-2.23.34-1.36 0-2.36-.32-3.01-.96s-.97-1.61-.97-2.92v-6.29h-1.62v-2.74h1.62v-3.15h3.95Z"/></g><circle cx="553.75" cy="350.98" r="85.26" fill="#2ca9ed"/><path fill="#fff" d="m501.01 351.3 87.12-36.67c3.74-1.57 7.75 1.56 7.13 5.57l-10.54 67.84c-.9 5.77-5.87 7.73-11.61 4.97l-29.47-19.71c-2.99-2.08-3.31-6.38-.67-8.88l26.92-25.57c3.73-4.19 1.75-5.75-3.41-2.83l-36.05 24.63c-3.73 2.53-8.41 3.21-12.71 1.86l-16.41-5.18c-2.85-.9-3.04-4.87-.28-6.03Z"/></svg>