<svg xmlns="http://www.w3.org/2000/svg" xmlns:xlink="http://www.w3.org/1999/xlink" viewBox="0 0 860.64 581.66"><defs><style>.cls-1{fill:#e3d7ff;}.cls-2{fill:#944bfd;}.cls-3{fill:#271f33;}.cls-4{fill:#ea4c89;}.cls-5{fill:#f26bb2;}.cls-6{fill:#c5a5f9;}.cls-7{fill:#9471ea;}.cls-8{fill:#1c2e38;}.cls-9{fill:#6442a5;}.cls-10{fill:#44465f;}.cls-11{fill:#35374d;}.cls-12{fill:url(#linear-gradient);}.cls-13{fill:#788388;}.cls-14{fill:#485961;}.cls-15{fill:#fff;}.cls-16{fill:#f99e83;}.cls-17{fill:#eff1fe;}.cls-18{fill:#a975fc;}.cls-19{fill:#1d3039;}.cls-20{fill:#273e44;}.cls-21{fill:#d87a64;}.cls-22{fill:none;stroke:#1a162c;stroke-linecap:round;stroke-miterlimit:10;stroke-width:4px;}</style><linearGradient id="linear-gradient" x1="517.6" y1="519.93" x2="511.22" y2="86.56" gradientUnits="userSpaceOnUse"><stop offset="0" stop-color="#b591f9"/><stop offset="1" stop-color="#c5a5f9"/></linearGradient></defs><g id="Layer_2" data-name="Layer 2"><g id="contact"><path id="cloud" class="cls-1" d="M173.37,68c-1.25-3-6-5.29-11.66-5.29H161c-2.85-2.94-8.33-4.93-14.62-4.93-7.74,0-14.26,3-16.15,7.11-7.68.49-13.77,4-14.7,8.36H180.9C180.18,70.86,177.26,68.87,173.37,68Z"/><path id="cloud-2" data-name="cloud" class="cls-1" d="M791.43,49.61c-1.87-4.55-9-7.94-17.49-7.94l-1,0c-4.28-4.42-12.5-7.41-21.95-7.41-11.61,0-21.39,4.52-24.24,10.67-11.52.74-20.67,6-22.06,12.55h98.08C801.66,53.87,797.27,50.89,791.43,49.61Z"/><path id="cloud-3" data-name="cloud" class="cls-1" d="M294.69,38c-2-5.51-9.66-9.61-18.79-9.61l-1.11,0c-4.6-5.35-13.43-9-23.58-9-12.48,0-23,5.48-26.06,12.93-12.37.9-22.21,7.21-23.7,15.2h105.4C305.69,43.15,301,39.54,294.69,38Z"/><path class="cls-2" d="M196.05,48.54c-29.22,18.12-47.06,67-34.45,88.33,12,20.22,32.79,49.42,33.26,58.57.7,13.76-62.31.29-69.19,30.17-5.12,22.25,19.47,54.85,14.73,75.91-7.29,32.47-82.69,11.68-105,40.68-11.24,14.61,31.14,42.67,31.37,67.17.33,35.65-53.62-.32-52.77,26.28,2.27,16.21,37.77,13.43,48.65,32.43,8.75,15.29-11.08,29.56-.33,41.51s52.65,20.72,67.95,19.26c65.32-6.22,153.22-100.1,108.08-95.49C157.75,450.65,163.46,423,163,416.84c-.66-8.82,123.18-58.48,130.8-94.66,3.84-18.2-54.34,5.63-51-15.47,5.33-33.89,72.19-86.21,75.06-114.07,2.38-23-52.49,48.43-60.8,11.56C248.18,165,283.63,139.39,272.86,110,262.8,82.53,234.32,24.81,196.05,48.54Z"/><path class="cls-3" d="M152.81,550.16c-17.47-10-33.87-22.7-45.91-39-15.61-20.76-23.2-48.56-16.25-74a71.49,71.49,0,0,1,13.79-25c16.18-19.09,37.41-32.81,55.72-49.57C204.9,324.12,233.55,264.54,224.7,205c-2.53-19.65-8.06-38.85-15.4-57.26,7.57,18.32,13.35,37.47,16.14,57.16,9.69,60-18.6,120.58-63.26,160-18,16.9-38.91,30.79-54.69,49.83a67.44,67.44,0,0,0-12.71,23.66C86.57,470,102,503.24,125.9,524a160,160,0,0,0,29.85,20.92l-2.94,5.24Z"/><path class="cls-4" d="M82.25,85.15c-23.86-6.26-53.63,25.39-55.71,48-2,21.92,21.93,38,19,54.91C41.82,209.21,2,199.52.07,214.88-2.09,232,45.13,260.22,43.14,272.53c-1.78,11-40.71-3.43-42.67,7.55-2.68,15,66.77,58.67,64.4,73.44C63,365.27,8.37,341.79,6.39,349.4c6.82,39.47,83.09,44.27,81.79,55.6-.8,6.95-34.69.36-33.59,4.12,11.46,39.12,91.89,32.7,91.27,41.87-.47,7-54,10-56.89,27.45-2.77,16.6,38.26,55.54,83,43.93,46.92-12.19,73.53-94.38,70.32-100.9s-42.65,50.62-49,39.12c-6.92-12.53,15.82-105.36,10.67-113.25-4.3-6.57-14.78,61.62-28.84,50.11-16.65-13.62,11.71-94.37,1.18-99.52-8.11-4-36,33.77-41.48,30.2-7.21-4.7,10.66-91.29,10.66-91.29-13.76-18.29-52.11,62.47-55.7,58.34-3-3.49,22.41-85.91,14.62-78.93C79.09,238.9,73.55,229,77.9,206,86.6,160,109.71,173,104,134.57,100,108,86.62,86.3,82.25,85.15Z"/><path class="cls-5" d="M173.42,541.38c16.57-52.05-2.06-109.94-34.49-152-11.87-13.9-25.65-25.89-37.56-39.81a270.35,270.35,0,0,1-24.1-33.5,105.5,105.5,0,0,1-12-24.85c-14.82-47.92-5.45-101.43,6.29-149.08-11,47.48-19.68,101.08-4.33,148.42,4.25,13,11.94,24.38,19.66,35.56a235.26,235.26,0,0,0,16.72,21.48c11.3,12.77,24.29,24.14,35.86,36.73,24.37,28.69,40.75,66.06,44.82,103.55a140.72,140.72,0,0,1-5.16,55.31l-5.73-1.79Z"/><path class="cls-6" d="M188.06,221.62c11.91,7,25.07,23.09,23.39,34.3-1.4,9.39-7.94,19.48-9.48,25.11-2.3,8.39,29.28.23,28,14.5-1.06,11.62-20.3,33.77-21.4,44.77-1.57,15.86,35.05,2.45,41.11,14.56,3.09,6.17-15.77,29.41-18.85,38.23-5.24,15,41.42,5,36.59,24.91-3.88,16-32.23,52.29-33.47,64.66-1.1,10.94,32.07-8.54,31.4,2.56-.64,10.76-32.83,49.81-63.52,43-38.17-8.49-60.67-63.87-53-80.6,7.18-15.7,38.63,7.6,40.74-2.53,2.72-13-54.42-42.49-52.43-62.24,1.44-14.42,30.35-3.69,32.29-19.48,2.32-18.86-34.9-51.33-31.85-66.57,2.75-13.7,32.85,5.87,35.29-8,2.15-12.21-16.77-22.52-15.22-35.33C159.24,239.88,164.69,207.78,188.06,221.62Z"/><path class="cls-7" d="M178.54,532.86c22.26-28.19,42.87-62.63,38.94-99.85-1.26-12.24-5.91-23.67-11.5-34.59-7.17-13.78-14.09-28.3-15.42-44-1-9.34.09-18.69.31-28,.6-24.64-.08-50.08-9.25-73.3,9.6,23.08,10.74,48.63,10.58,73.33-.23,12.32-1.24,24.79,1.85,36.85,4,18.36,15.85,33.47,22.42,50.92,11.78,30.14,2.8,63.84-12.46,91a252.21,252.21,0,0,1-20.75,31.4l-4.72-3.7Z"/><path class="cls-2" d="M816.71,1.12c-25.35,5-58.4,24.41-62.24,44.26C751.25,62,756.69,82.79,756,93.15c-1,15.47-52-16.53-58.33,8.26-5.17,20.21,15.43,68.63,10.69,87.79-6.85,27.63-63.54-16.13-81.62.77-9.21,8.6,10.06,58.65,10.15,75.3.16,28.32-76.37-15.48-79.91,20.82-2.85,29.2,25.3,106.7,20,128.26-4.7,19.06-51.58-32.92-57.15-13.84-5.39,18.5,27.87,102.88,86.35,109.12,72.72,7.75,146.2-72.52,142.82-105.13-3.17-30.6-73-9.52-70.59-27.81,3.09-23.48,122.14-40.12,130.63-74.53,6.2-25.14-51.49-23.78-45.34-51.48,7.35-33.13,93-66.3,96.82-93.75,3.46-24.66-61.72-9.09-57.63-33.81,3.61-21.82,43.37-28.26,48.41-50.71C856.64,48.53,866.5-8.69,816.71,1.12Z"/><path class="cls-8" d="M636.39,533.71c-22-62.34-36.49-135.71-4.21-197.07,7.91-15,18.74-28.27,30.86-40s25.07-22.31,36.78-34.21a157.41,157.41,0,0,0,29.34-40.11,194.24,194.24,0,0,0,11.94-31.11c12-37.14,25.82-74.21,47.3-107A196.23,196.23,0,0,1,809,57.81a195.35,195.35,0,0,0-20.35,26.54c-21.12,33-34.58,70.07-46.16,107.26a197.16,197.16,0,0,1-11.67,31.5,152.54,152.54,0,0,1-18.09,28.38C695.27,273.41,672,289.67,653.91,311c-37.76,43.38-41.54,102.62-30.37,156.82A426.3,426.3,0,0,0,642,531.65l-5.64,2.06Z"/><path class="cls-9" d="M307.8,564.51C363.63,576,690,603.65,749.88,548.44c50-51.82-406.28-25-444-20.85C275.07,534.15,246,551.83,307.8,564.51Z"/><ellipse class="cls-9" cx="196.59" cy="541.45" rx="143.16" ry="14.44"/><path class="cls-4" d="M755.09,185.88c16.43,9.08,11.68,29.44,2.6,43-8.36,12.5-8.54,22.09-6.72,26.59,1.27,3.11,4.6-2.17,9.81-6a4.89,4.89,0,0,1,7.77,4.26c-1.1,16.25-21.69,37.53-19.51,41.3,2.31,4,24.33-19.47,29.4-13.09,13.84,17.43-41.7,58.93-36,66.57C747.52,355.42,773,337.86,775,343c2.67,6.84-37.33,38-33.7,49.61,2.75,8.75,35.83-18.57,39.41-12.38,13.78,23.79-58.54,53.42-56.86,61.27,1.22,5.76,29.36-8.09,43.34-10.81,10.44-2,16.76,3.59,15.27,6.83C771,462.38,709.56,467,710.58,475.23c.91,7.29,22.89-13.32,34.57,1.38,14.64,18.44-49.73,12.63-49.73,26.68,0,5.48,35.47-5,39.35,0,17.29,22.12-76.12,27.13-80.76,30.26-34.27,23.18-37.34-91.39-33.54-94.91s30.2,49.16,37.61,43.15c7.75-6.29-13.22-27.67-7.88-60.84C651.69,411.73,676,445,679,442.45c3.41-2.89-13.19-29.66-8.1-56.87,1.57-8.41,28.07,27.85,32.43,23.35,4.86-5-19.41-42.57-17-61.63,1.27-10.2,23.4,6.47,26.44,2,4-5.84-28.8-45.78-23.67-54.19,4.07-6.68,29.15,8.53,30,6.58,1.06-2.4-29.91-36.2-26.66-46.17,2.51-7.72,17.37,6.27,18.15,2.44.7-3.5-5.49-24.13,0-35.91C715.72,210.91,742.54,179,755.09,185.88Z"/><path class="cls-5" d="M652,523.19c32.16-30.14,52.49-71.57,64.52-113.56C727,373.39,728.21,335.45,728.37,298c.58-27,.14-56,14.18-80.12-6.82,11.94-10,25.55-11.4,39.12-3.5,41,1.51,82.4-5.17,123.21A292.87,292.87,0,0,1,717,420.48C705.12,460,686,498.6,656,527.64l-4-4.45Z"/><g id="phone"><rect class="cls-10" x="378.83" y="33.48" width="271.54" height="512.12" rx="16.46"/><rect class="cls-11" x="385.81" y="38.72" width="257.59" height="499.9" rx="16.46"/><rect class="cls-12" x="391.4" y="43.95" width="245.59" height="488.73" rx="16.46"/><path class="cls-11" d="M447.86,43.81H581.34a0,0,0,0,1,0,0v4.87a14.11,14.11,0,0,1-14.11,14.11H462a14.11,14.11,0,0,1-14.11-14.11V43.81a0,0,0,0,1,0,0Z"/><circle class="cls-13" cx="468.66" cy="49.31" r="4.49"/><rect class="cls-14" x="484.39" y="45.89" width="77.47" height="6.85" rx="2.55"/><rect class="cls-15" x="594.17" y="54.29" width="1.51" height="2.45"/><rect class="cls-15" x="597.29" y="52.14" width="1.51" height="4.6"/><rect class="cls-15" x="600.25" y="50.37" width="1.51" height="6.37"/><rect class="cls-15" x="610" y="50.37" width="11.32" height="6.37" rx="0.49"/><rect class="cls-15" x="619.21" y="52.04" width="4" height="3.02" rx="0.33"/><path class="cls-15" d="M414.87,56.74h-1.33V52.5l-1.31.38v-1l2.51-.87h.13Z"/><path class="cls-15" d="M416.68,53.94,417,51h3.35v1h-2.27L418,53.17a1.51,1.51,0,0,1,.37-.14,1.76,1.76,0,0,1,.45-.07,1.66,1.66,0,0,1,1.31.51,2,2,0,0,1,.46,1.42,2.08,2.08,0,0,1-.24,1,1.72,1.72,0,0,1-.7.69,2.14,2.14,0,0,1-1.05.24,2.48,2.48,0,0,1-1-.22,1.87,1.87,0,0,1-.74-.61,1.43,1.43,0,0,1-.26-.88h1.33a.74.74,0,0,0,.2.5.64.64,0,0,0,.47.18c.45,0,.67-.33.67-1s-.27-.91-.81-.91a.83.83,0,0,0-.7.3Z"/><path class="cls-15" d="M422.12,52.31a.77.77,0,0,1,.52.18.63.63,0,0,1,.21.48.6.6,0,0,1-.21.48.73.73,0,0,1-.52.19.73.73,0,0,1-.53-.19.63.63,0,0,1-.21-.48.59.59,0,0,1,.21-.47A.73.73,0,0,1,422.12,52.31Zm0,3.14a.73.73,0,0,1,.52.19.6.6,0,0,1,.21.48.63.63,0,0,1-.21.48.77.77,0,0,1-.52.18.73.73,0,0,1-.53-.19.59.59,0,0,1-.21-.47.63.63,0,0,1,.21-.48A.73.73,0,0,1,422.12,55.45Z"/><path class="cls-15" d="M427.68,54.39a2.8,2.8,0,0,1-.52,1.8,2,2,0,0,1-3,0,2.73,2.73,0,0,1-.52-1.79v-1a2.74,2.74,0,0,1,.52-1.8,2,2,0,0,1,2.95,0,2.73,2.73,0,0,1,.53,1.79Zm-1.33-1.21a2.07,2.07,0,0,0-.16-.93.54.54,0,0,0-.51-.3.52.52,0,0,0-.5.28,1.89,1.89,0,0,0-.17.86v1.47a2.06,2.06,0,0,0,.16.94.55.55,0,0,0,.51.29.51.51,0,0,0,.5-.29,1.86,1.86,0,0,0,.17-.9Z"/><path class="cls-15" d="M432.35,54.39a2.74,2.74,0,0,1-.52,1.8,1.81,1.81,0,0,1-1.47.63,1.78,1.78,0,0,1-1.48-.64,2.73,2.73,0,0,1-.53-1.79v-1a2.8,2.8,0,0,1,.52-1.8,1.82,1.82,0,0,1,1.48-.63,1.84,1.84,0,0,1,1.48.64,2.73,2.73,0,0,1,.52,1.79ZM431,53.18a2.07,2.07,0,0,0-.16-.93.54.54,0,0,0-.51-.3.52.52,0,0,0-.5.28,2,2,0,0,0-.17.86v1.47a2.21,2.21,0,0,0,.16.94.56.56,0,0,0,.52.29.53.53,0,0,0,.5-.29,2,2,0,0,0,.16-.9Z"/></g><path class="cls-2" d="M212.88,531.81a4.7,4.7,0,0,0,4.55-3.44c3.91-14.15,11.62-28.08-5.91-14.37-4.79,3.74-13.3-20.18-19.31-20.68s-7.86,14.46-16.55,14.59c-8.46.13-14.17-16.94-22.75-9.51-5.24,4.54,6.93,14.12,9.52,29.17a4.89,4.89,0,0,0,4.76,4.12C206.45,531.94,165.22,531.85,212.88,531.81Z"/><path class="cls-2" d="M564,555.75a5.69,5.69,0,0,1-5.55-4.35C552.34,525.64,535,511.06,540,505.21c5.75-6.62,40,27.56,44.61,27.35,3.94-.17,4.18-24,10.2-24.7,6.89-.81,16.54,21.84,24.36,21.15,7.62-.67,12.19-16.22,19.75-16.83s4.79,12.49,15.73,12.66c10.66.16,15.5-19.09,35.26-17,9.18.95-12.21,27-14.47,43.25a5.46,5.46,0,0,1-5.42,4.68Z"/><path class="cls-6" d="M558.24,567.26a6.08,6.08,0,0,1-5.59-4.22c-2.29-6.11-15.72-19.63,6.65-9.68,5.81,2.58-4.23-10.21,0-17.82,3.63-6.53,11.7,13.61,22.37,13.77,4.32.07,6.55-16.06,13.83-19.26,3.87-1.69,3.08,20.16,7.79,19.9,6.15-.35,17.59-14.35,21.07-11.33,6.45,5.58-7.6,4.56-6.59,24,.16,2.92-.48,4.52-3.4,4.54C566.14,567.42,616.79,567.31,558.24,567.26Z"/><path class="cls-4" d="M226.73,534.71c1.79,0,2.24-1.66,3.58-2.85,4.88-4.32,5.94-15.78-3.58-7.58-3.32,2.86-.63-4.25-3.55-9.5-2.5-4.5-2.84,7.63-10.2,7.74-3,.05-7.53-5.53-12.55-7.74-2.67-1.17-3.36,8.12-6.61,7.94-4.25-.24-12-7.84-14.45-5.75-4.44,3.85,3,5.09,7.7,14.35.92,1.8,1.34,3.47,3.36,3.48C223.69,535,186.35,534.75,226.73,534.71Z"/><g id="men"><g id="leg"><polygon class="cls-16" points="366.9 438.58 372.42 442.44 362.75 460.61 353.81 455.38 366.9 438.58"/><path class="cls-17" d="M378.31,442.5l.78.43a.57.57,0,0,1,.3.51l.15,39.93-1.23-.08Z"/><path class="cls-18" d="M374,440.23a1.68,1.68,0,0,0-2,.86l-9.74,19.35a1.17,1.17,0,0,0,.44,1.54l5.38,3.25s.61,9.22,4.74,14.13,5.43,3.93,5.43,3.93V442.5A15.29,15.29,0,0,0,374,440.23Z"/><path class="cls-19" d="M286.4,301.09l-34.81,85.29s-7.46,25.3,10.66,34.9S353,465.51,353,465.51l15.6-28.66L345.38,418,292.09,302.66Z"/></g><g id="leg-2" data-name="leg"><polygon class="cls-16" points="323.4 527.93 324.17 534.15 344.72 533.01 343.74 524.28 323.4 527.93"/><path class="cls-17" d="M304.65,544.57v.8a.67.67,0,0,0,.68.68l40.81-.1a.85.85,0,0,0,.85-.75l.12-1Z"/><path class="cls-18" d="M322.2,533s-2.39,4.09-3.92,4.3-11.12,1.26-12.49,3.17a6.58,6.58,0,0,0-1.14,4.09h42.42s1.42-11.62-.49-11.84S322.2,533,322.2,533Z"/><path class="cls-20" d="M290.06,302.11l28.57,227.3,28.95-1.51-1-172a12.76,12.76,0,0,1,1.78-6.73c1.43-2.49,3.15-7.37,3.12-16.42,0-11.36-3.24-14.47-3.24-14.47l-1-2.9Z"/></g><g id="hands"><path class="cls-21" d="M266.64,211.57a32.1,32.1,0,0,0-16-6.65v6.21l17,9.49Z"/><line class="cls-22" x1="239.81" y1="183.76" x2="250.77" y2="211.9"/><path class="cls-16" d="M265.77,216.48s-6.22-7-22-7c-1.64,0-1.54,3.43-.23,3.37s3.39,2.08,3.17,3.5-.1,10.41,1.83,13.12c2.94,4.14,16.17,4.11,16.17,4.11Z"/></g><path id="face" class="cls-16" d="M319.14,135.12s-4.73,43,14.46,37.74c1.09,0,.87,10.9.87,10.9l26.4,2.31c0-20-11.13-55.53-11.13-55.53Z"/><g id="body"><path class="cls-18" d="M334.43,179.07s-17.08,15.38-26.89,42.31c.1.2-33.45-8.35-39.85-10a.85.85,0,0,0-1.05.82v3.28l-2.4-.33-1.78,19.43,36.11,13s-12,27.93-17.12,52.32a3,3,0,0,0,2.07,3.48c10.15,3.09,47.31,14.32,66.36,16.29,8.54-16.65,5.79-33.92,11.14-49.19s17.62-31.19,17.62-51.26-17.23-35.88-17.23-35.88S354.34,185.4,334.43,179.07Z"/><g id="body-2" data-name="body"><path class="cls-10" d="M337.33,206.55c-.34-.08-.29-.09-.36.07l-.09.2-.19.39c-3.18,6.88-6.47,14.55-9.65,21.42a4,4,0,0,1-5,2.17l-1.68-.44-3.37-.88-20.21-5.25-30.32-7.89-.38-.1a.67.67,0,0,0-.2,0,.54.54,0,0,0-.44.47c-.09.5-1.12,7.26-1.24,8l-1.06,6.87c-.06.28-.15,1-.2,1.28a1.86,1.86,0,0,0,1.21,2l.4.14,1.64.58,52.6,18.29c1.07.35,7.24,2.53,8.22,2.85a6.29,6.29,0,0,0,8.17-2.9l1-1.43c26.12-37.93,27-37.35,1.08.74l-1,1.44a7.59,7.59,0,0,1-9.7,3.42c-1-.32-7.11-2.48-8.22-2.85l-52.62-18.25-1.64-.57-.42-.15a3.33,3.33,0,0,1-2-3.95l.13-.86,1.1-6.88,1.09-6.87a4.11,4.11,0,0,1,.58-2,2,2,0,0,1,2.27-.53l43.74,11.57,10.09,2.67c.43.11,2,.57,2.46.62a2.89,2.89,0,0,0,3-1.74l1.5-3.14c2.8-5.86,6.15-12.52,8.91-18.41l.09-.19c.07-.16.11-.13-.17-.33l.91.43Z"/></g></g><path id="hear" class="cls-10" d="M308.33,125.93a9.08,9.08,0,0,0,7.09-.11l19.78-11.93s4.65-3,11.05,1.6,6.69,6.69,6.4,8.29c0,0,3.49-.36,4.36.62s5.38,1.56,3.2,18.14c-1.53,11.63.46,18.78,1.78,22a.91.91,0,0,1-1.2,1.17c-4.2-1.75-13-6-13.56-10.64-.71-6.16,3.66-11.89-2.29-12.81s-5,4.41-5,4.41l-3.28-.27s1.64-8.62-5.56-8.94-13.68-.17-13.68-.17-7.88-3.76-10.51-9.89A1.1,1.1,0,0,1,308.33,125.93Z"/></g><path class="cls-15" d="M454.85,428.84H462V432H450.74V415h4.11Z"/><path class="cls-15" d="M469.7,432.24A6.52,6.52,0,0,1,465,430.5a6,6,0,0,1-1.81-4.53v-.33a7.79,7.79,0,0,1,.73-3.43,5.26,5.26,0,0,1,2.1-2.3,6.36,6.36,0,0,1,3.28-.82,5.51,5.51,0,0,1,4.22,1.66,6.54,6.54,0,0,1,1.55,4.63v1.53h-7.86a2.91,2.91,0,0,0,.93,1.68,2.79,2.79,0,0,0,1.85.61,3.54,3.54,0,0,0,2.93-1.32l1.81,2.14a5,5,0,0,1-2.1,1.62A7.08,7.08,0,0,1,469.7,432.24Zm-.44-10.1c-1.16,0-1.85.77-2.07,2.3h4v-.31a2,2,0,0,0-.48-1.47A1.91,1.91,0,0,0,469.26,422.14Z"/><path class="cls-15" d="M481.23,416.18v3.15h2.09v2.74h-2.09v5.8a1.5,1.5,0,0,0,.26,1,1.37,1.37,0,0,0,1,.28,5.6,5.6,0,0,0,1-.07v2.82a7.26,7.26,0,0,1-2.23.34,4.14,4.14,0,0,1-3-1,3.93,3.93,0,0,1-1-2.92v-6.29h-1.61v-2.74h1.61v-3.15Z"/><path class="cls-15" d="M486.55,420.29l-1.73-.94a6.8,6.8,0,0,0,1-3.3v-2h2.88v1.91a5.13,5.13,0,0,1-.63,2.32A6.89,6.89,0,0,1,486.55,420.29Z"/><path class="cls-15" d="M494.9,428.45a.91.91,0,0,0-.53-.81,7.72,7.72,0,0,0-2-.64,8.65,8.65,0,0,1-2.44-.86,4.06,4.06,0,0,1-1.47-1.29,3.15,3.15,0,0,1-.5-1.75,3.49,3.49,0,0,1,1.44-2.87,5.9,5.9,0,0,1,3.77-1.14,6.58,6.58,0,0,1,4,1.14,3.56,3.56,0,0,1,1.52,3h-4c0-1-.54-1.52-1.61-1.52a1.59,1.59,0,0,0-1,.34,1.07,1.07,0,0,0-.42.86,1,1,0,0,0,.51.86,4.93,4.93,0,0,0,1.65.54,15.16,15.16,0,0,1,2,.5c1.9.66,2.86,1.83,2.86,3.53a3.33,3.33,0,0,1-1.54,2.82,6.76,6.76,0,0,1-4,1.09,6.89,6.89,0,0,1-2.9-.58,4.84,4.84,0,0,1-2-1.6,3.59,3.59,0,0,1-.72-2.12h3.69a1.54,1.54,0,0,0,.59,1.29,2.45,2.45,0,0,0,1.44.4,1.88,1.88,0,0,0,1.21-.33A1,1,0,0,0,494.9,428.45Z"/><path class="cls-15" d="M511.13,416.18v3.15h2.08v2.74h-2.08v5.8a1.45,1.45,0,0,0,.26,1,1.37,1.37,0,0,0,1,.28,5.48,5.48,0,0,0,1-.07v2.82a7.17,7.17,0,0,1-2.23.34,4.14,4.14,0,0,1-3-1,3.93,3.93,0,0,1-1-2.92v-6.29h-1.62v-2.74h1.62v-3.15Z"/><path class="cls-15" d="M513.92,425.55a7.4,7.4,0,0,1,.74-3.38,5.2,5.2,0,0,1,2.12-2.28,6.38,6.38,0,0,1,3.24-.8,5.82,5.82,0,0,1,4.49,1.77,6.77,6.77,0,0,1,1.64,4.8v.14a6.56,6.56,0,0,1-1.65,4.7,5.82,5.82,0,0,1-4.45,1.74,5.91,5.91,0,0,1-4.35-1.62,6.29,6.29,0,0,1-1.77-4.4Zm4,.25a4.71,4.71,0,0,0,.55,2.58,1.84,1.84,0,0,0,1.63.82c1.4,0,2.12-1.09,2.15-3.25v-.4c0-2.27-.72-3.41-2.18-3.41s-2,1-2.14,2.94Z"/><path class="cls-15" d="M539.23,429.2a1.74,1.74,0,0,0,1.29-.46,1.66,1.66,0,0,0,.44-1.26h3.71a4.38,4.38,0,0,1-1.5,3.43,5.55,5.55,0,0,1-3.85,1.33,5.66,5.66,0,0,1-4.36-1.73,6.86,6.86,0,0,1-1.59-4.81v-.16a7.75,7.75,0,0,1,.71-3.39,5.1,5.1,0,0,1,2-2.26,6.09,6.09,0,0,1,3.17-.8,5.44,5.44,0,0,1,3.92,1.38,4.85,4.85,0,0,1,1.46,3.71H541a2.16,2.16,0,0,0-.48-1.51,1.67,1.67,0,0,0-1.29-.53c-1,0-1.62.65-1.79,2a14.77,14.77,0,0,0-.08,1.71,5.37,5.37,0,0,0,.46,2.65A1.58,1.58,0,0,0,539.23,429.2Z"/><path class="cls-15" d="M550.2,420.69a4.32,4.32,0,0,1,6.4-.35,5.59,5.59,0,0,1,1.09,3.66v8h-4V424.1a2.24,2.24,0,0,0-.41-1.48,1.77,1.77,0,0,0-1.4-.48,1.9,1.9,0,0,0-1.72.77V432h-4V414h4Z"/><path class="cls-15" d="M567,432a4.55,4.55,0,0,1-.38-1.14,3.66,3.66,0,0,1-3,1.37,4.49,4.49,0,0,1-3-1.08,3.44,3.44,0,0,1-1.26-2.73,3.53,3.53,0,0,1,1.53-3.11,7.69,7.69,0,0,1,4.43-1.06h1.22v-.67c0-1.17-.51-1.75-1.52-1.75a1.23,1.23,0,0,0-1.4,1.39h-3.95a3.55,3.55,0,0,1,1.56-3,6.64,6.64,0,0,1,4-1.15,5.78,5.78,0,0,1,3.84,1.19,4.15,4.15,0,0,1,1.44,3.24v5.62a5.61,5.61,0,0,0,.54,2.67v.2Zm-2.48-2.58a2.23,2.23,0,0,0,1.23-.32,2.05,2.05,0,0,0,.7-.71v-2h-1.15c-1.38,0-2.07.62-2.07,1.85a1.17,1.17,0,0,0,.37.88A1.31,1.31,0,0,0,564.55,429.43Z"/><path class="cls-15" d="M577.22,416.18v3.15h2.09v2.74h-2.09v5.8a1.5,1.5,0,0,0,.26,1,1.37,1.37,0,0,0,1,.28,5.4,5.4,0,0,0,1-.07v2.82a7.16,7.16,0,0,1-2.22.34,4.12,4.12,0,0,1-3-1,3.93,3.93,0,0,1-1-2.92v-6.29h-1.61v-2.74h1.61v-3.15Z"/><circle class="cls-2" cx="512.54" cy="289.54" r="85.26"/><path class="cls-15" d="M459.8,289.86l87.12-36.67a5.18,5.18,0,0,1,7.13,5.57L543.5,326.6c-.9,5.77-5.87,7.73-11.61,5l-29.47-19.71a5.75,5.75,0,0,1-.68-8.89l26.92-25.56c3.73-4.19,1.75-5.76-3.41-2.83l-36.06,24.63a14.74,14.74,0,0,1-12.7,1.86l-16.41-5.18A3.22,3.22,0,0,1,459.8,289.86Z"/></g></g></svg>