<svg xmlns="http://www.w3.org/2000/svg" viewBox="0 0 953.9 639.51"><defs><radialGradient id="f" cx="487.09" cy="583.28" r="306.51" fx="487.09" fy="583.28" gradientTransform="matrix(1 0 0 .04 0 557.43)" gradientUnits="userSpaceOnUse"><stop offset=".18" stop-color="#1d1d1b"/><stop offset="1" stop-color="#1d1d1b" stop-opacity="0"/></radialGradient><style>.ag{fill:#5b4343}.ah{fill:#eb4786}.ai{fill:#fff}.aj{fill:#5a0c0c}.ak{fill:#f99e83}.al{fill:#788388}.am{fill:url(#f)}.an{fill:#1d3039}.ao{fill:#f5a3c2}.ap{fill:#eff1f5}.aq{stroke-width:10px}.aq,.ar{fill:none;stroke:#732644;stroke-linecap:round;stroke-miterlimit:10}.as{fill:#273e44}.at{fill:#383838}.au{fill:#ed5e95}.av{fill:#bf4071}.aw{fill:#f075b9}.ar{stroke-width:5px}.ax{fill:#304b4f}.ay{fill:#732644}.ba{fill:#ededed}</style></defs><g id="b"><g id="c"><g id="d"><path fill="#f5a3c2" d="M304.14 29.65c-19.25-4.94-36.52 22.75-40.65 39.86-4.05 16.77-3.54 40.86-1.49 49.7 3.06 13.2-42.21-2.66-40.76 19.51 49.16 67.32 87.22 51.84 133.16 11.46-3.55-21.44-47.53 5.69-50.62-15.94-2.73-19.09 17.58-29.05 25.73-50.9 7.43-19.93 3.6-46.27-25.37-53.7Z"/><path fill="#bf4071" d="M274.44 210.42c-.17-44.44.53-90.64 17.75-132.3-16.24 41.93-15.91 87.91-14.75 132.22l-3 .07Z"/><path fill="#f075b9" d="M787.11 73.89c-21.21-.61-41.44 18.41-49.18 40.61-4.59 13.18-2.32 33.37-.45 41.74 2.8 12.5-38.25-10.53-42.06.64-5.54 16.27 26.19 70.22 26.92 86.5 1.05 23.48-32.99-17.95-43.3-.36-5.24 8.95.8 64.01 4.75 77.19 6.72 22.4-63.75 5.41-58.08 34.99 4.56 23.8 44.77 78.7 45.61 97.01.74 16.19-48.28-14.14-48.22 2.27.06 15.9 45.91 75.07 93.41 66.47 59.07-10.69 98.23-91.31 87.97-116.37-9.63-23.51-59.7 9.36-62.06-5.69-3.03-19.33 76.94-57.51 79.37-116 .89-21.35-39.94 19.78-41.56-3.6-1.93-27.95 39.12-52.42 37.39-106.52-.92-28.9-33.71 16.91-36.25-3.63-2.24-18.13 11.19-29.7 26.31-51.39 11.51-16.52 21.88-42.64-20.57-43.85Z"/><path fill="#bf4071" d="M745.48 533.34c-31.81-44.42-60.26-99.21-49.13-155.39 3.57-18.4 12.26-35.2 22.08-50.95 12.21-19.37 24-39.37 27.83-62.25 2.55-13.58 1.95-27.44 2.62-41.2 1.75-36.6 5.7-74.32 22.12-107.58-20.06 42-20.45 89.67-21.38 135.28-.92 18.58-6.35 36.75-14.97 53.19-6.36 12.34-14 23.83-20.58 35.99-6.51 11.99-11.67 24.8-14.13 38.23-6.92 36.11 4.14 73.06 20.94 104.95 8.48 16.17 18.54 31.5 29.43 46.19l-4.84 3.55Z"/><path fill="#f075b9" d="M175.71 50.49c-42.38 3.46-9.89 93.85-12.08 101.11-2.3 7.64-35.06-12.17-43.25-31.07-12.61 52.86 40.16 62.24 42.51 96.43.55 7.94-21.78 1.32-49.21-39.83-1.63 72.8 61.38 98.46 53.52 111.25-7.04 11.45-50.83-33.22-49.88-24.27 6.32 59.33 73.93 81.36 70.01 99.87-2.96 14.01-64.04-43.75-62.38-34.35 9.67 54.71 88.81 86.73 87.41 99.16-1.36 12.12-79.84-45.91-79.84-45.91 23.94 86.83 56.19 80.83 55.88 95.08-.25 11.43-19.31 2.44-21.02 18.7-2.04 19.35 89.6 101 157.14 51.48 53.31-39.09 59.78-136.54 53.09-141.33-6.94-4.98-40.35 81.16-53.21 73.14-13.48-8.41 16.64-45.04 2.61-95.42-3.9-14-46.72 68.89-51.96 65.46-5.93-3.88 34.44-89.48 21.81-130.67-3.91-12.74-48.66 75.29-56.39 69.08-8.63-6.94 21-76.92 23.6-134.53 1.26-27.97-47.26 46.51-52.88 40.1-7.33-8.36 41.33-65.11 42.22-119.64-27.12 43.96-55.58 47.87-55.23 44.39 5.26-52.22 39.04-51.32 36.76-97.73-.42-8.45-33.15 37.37-35.03 31.57-1.71-5.29-4.05-18.14 3.03-41.68 6.86-22.82-4.13-56.43-27.24-60.37Z"/><path fill="#bf4071" d="M336.4 549.13C257.53 492.58 208.64 402 187.78 308.61c-11.72-52.42-6.09-106.28-4.05-159.35.76-21.27.87-42.57.16-63.85.94 21.27 1.06 42.58.53 63.87-1.46 52.96-6.52 106.71 5.71 158.82 16.83 72.01 50.43 141.25 101.75 194.95 14.63 15.24 30.61 29.21 47.96 41.15l-3.43 4.92Z"/><path fill="#ed5e95" d="M661.07 1.07c16.37 5.52 26.63 27.78 28.52 49.17 1.97 22.37-.64 56.22 1.74 62.89 2.51 7.02 30.85-36.52 38.26-23.94 1.3 32.26-34.48 79.52-31.13 86.2 2.96 5.92 32.29-36.2 36.56-25.3 7.33 62.23-96.62 99.06-109.29-4.74 4.8-10.08 45.45 32.13 46.45 29.19 1.22-3.61-58.06-75.04-54.38-90.03 2.85-11.6 41.13 19.61 41.96 13.85.76-5.25-24.48-41.24-25.11-60.65-.48-15.01 5.81-43.59 26.41-36.64Z"/><path fill="#bf4071" d="M686.36 197.61c.05.23.12.47.17.61-.02-.04-.06-.11-.09-.15-.62-.85-2.01-.64-2.41.24-.13.35-.06.19-.07.17.02-.13.03-.63.04-.77-1.22-25.52-4.65-50.93-7.98-76.25-3.41-22.84-6.53-45.91-13.35-68.03-1.06-3.12-2.2-6.25-3.93-9.08 1.78 2.79 2.99 5.91 4.11 9.02 3.26 9.39 5.46 19.1 7.55 28.8 5.41 25.92 9.32 52.13 12.73 78.38 1.47 12.59 3.36 25.17 3.81 37.86-.05.53 0 .83-.38 1.46 0 0-.13.26-.64.51-.83.28-1.18.09-1.68-.31-.49-.5-.61-1.13-.78-1.73l2.91-.73Z"/><path fill="#ed5e95" d="M104.07 243.9c13.18 3.43 23.62 8.6 25.62 22.24 1.67 11.43 1.58 20.64 1.93 27.77.53 10.64 21.15-21.74 24.46-4.7 2.69 13.89-2.16 57.56.3 70.73 3.56 19 24.28-23.19 33.68-11.57 4.78 5.92-.63 53.13 3.46 63.87 9.65 25.33 39.2-2.54 44.21 7.5 9.04 18.1-10.76 68.12-8 82.94 2.44 13.11 25.71-20.39 28.6-7.26 2.8 12.71-18.45 80.54-48.84 84.82-11.74 1.66-68.95-6.46-75.64-37.63-1.78-8.29 38.32 16.91 36.33-4.4-14.36-17.23-40.79-26.37-39.94-37.16 1.65-21.04 33.92-21.46 32.67-34.03-1.61-16.15-52.62-30.98-58.15-54.41-3.12-13.21 42.83-3.3 19.7-29.01-15.61-17.35-47.01-26.87-47.13-45.84-.07-10.16 34.26 7.72 32.13-9.28-1.88-15-19.43-33.43-22.05-48.87-2.78-16.41-9.2-42.46 16.67-35.71Z"/><path fill="#bf4071" d="M189.43 595.29c12.25-44.61 20.8-94.67 1.58-138.48-7.3-16.87-20.36-29.97-31.2-44.6-11.17-14.81-17.91-32.42-21.51-50.51-7.61-31.83-15.82-64.57-34.22-92.1 18.84 27.28 27.58 60 35.68 91.76 2.45 10.66 5.61 21.16 10.53 30.94 9.51 20.07 27.11 34.38 38.62 53.2 19.61 32.13 20.36 71.79 15.3 108.04-2.08 14.64-5.22 29.08-8.98 43.34l-5.78-1.59Z"/><path fill="#ed5e95" d="M877.03 147.78c-19.5 5.64-44.04 23.08-45.69 38.87-1.39 13.23 4.29 29.12 4.46 37.28.25 12.17-41.79-9.4-45.08 10.43-2.68 16.16 16.74 52.66 14.34 67.97-3.47 22.09-50.81-8.3-63.82 6.16-6.62 7.36 11.87 45.21 13.08 58.23 2.05 22.15-60.82-6.92-61.12 21.73-.24 23.04 27.06 81.78 24.37 99-2.38 15.24-42.6-22.25-45.66-6.93-2.96 14.84 28.81 78.61 75 79.5 57.44 1.12 109.47-66.7 104.6-91.99-4.57-23.73-57.77-2.48-57.13-16.95.82-18.59 92.85-39.71 97.14-67.22 3.14-20.09-41.91-15.1-38.98-37.2 3.5-26.42 68.24-58.2 69.38-79.95 1.03-19.53-48.92-2.91-47.4-22.53 1.34-17.32 32.02-25.06 34.43-42.98 2.56-19.05 6.38-64.49-31.91-53.43Z"/><path fill="#bf4071" d="M771.6 577.09c-25.24-54.54-42.3-125.2-3.24-177.46 15.59-21.2 37.17-37.54 49.5-61.09 6.3-11.52 10.14-24.1 12.78-36.92 8.94-38.16 19.89-77.49 44.23-108.95-23.91 31.73-34.32 71.06-42.77 109.27-3.19 17.34-9.16 34.35-19.17 48.99-12.14 18.34-29.28 32.74-41.92 50.61-26.34 35.91-25.31 83.42-12.83 124.43 4.89 16.67 11.42 32.85 18.86 48.6l-5.44 2.53Z"/><path fill="#f5a3c2" d="M906.82 266c-17.67 5.4-33.11 32.75-29.04 48.9 3.86 15.35 11.29 38.24 10.42 44.14-1.31 8.88-33-12.83-40.29 4.71-5.43 13.06 3.58 38.89-1.51 51.28-7.84 19.1-28.59-11.4-43.95 2.35-7.74 6.93-5.34 35.15-8.22 50.76-3.86 20.93-44.14-32.26-39.65 23.35.97 11.97 5.01 23.55 11.5 33.15 11.24 16.64 25.22 26.64 47.11 32.64 35.31 9.69 93.31-31.58 68.87-38.08-44.75-5.85-38.35-22.2-37.83-26.23.73-5.74 72.33-11.41 80.79-32.79 4.26-10.76-29.44-7.77-25.1-20.48 6.97-20.41 48.75-39.67 53.68-56.77 4.08-14.13-33.7 19.79-33.58-5.36.13-26.76 22.02-35.61 19.92-56.51-1.96-19.55-9.95-62.16-33.11-55.08Z"/><path fill="#bf4071" d="M821.28 576.07c-17.21-21.27-28.92-50.15-21.54-77.58 10.52-38.81 58.04-26.96 87.9-78.45 15.98-26.29 17.59-58.43 14.06-88.3 4.2 29.99 3.13 62.45-12.43 89.24-29.08 52.4-76.55 42.54-85.33 78.62-2.38 9.65-2.26 19.85-.15 29.55.53 3.01 1.73 6.69 2.61 9.62.32.9.89 2.25 1.2 3.11 4.28 11.05 10.68 21.25 18.34 30.41l-4.65 3.79Z"/><path fill="#f5a3c2" d="M59.18 206.55c-20.8-4.28-28.75 19.46-30.27 38-1.47 17.94 4.82 36.65 5.11 51.08.66 33.37-27.06-17.92-28.56-5.34-1.66 14 29.13 64.12 27.56 74.23-1.41 9.02-31.39-16.89-32.96-7.87-2.14 12.3 54.72 61.02 52.85 73.14-1.49 9.64-51.9-26.65-51.69-14.59 1.41 40.45 73.57 46.46 72.58 55.74-.61 5.69-42.66 5.77-41.65 8.8 10.44 31.5 88.29 20.39 92.33 26.71 19.88 31.11-58.77 12.79-49.07 24.32 14.25 16.56 37.22 19.48 72.61 32.97 40.15 15.3 85.03-22.73 59.81-84.64-4.77-9.32-19.58 44.61-39.88 42.1-6.16-9.98 39.49-63.74 5.67-101.21-14.67-.64-10.5 55.14-27.34 37.97s13.32-63.42-5.17-67.78c-7.78 23.07-28.92 26.73-33.73 24-6.31-3.58 14.59-59.84 0-64.32-9.89 9.49-31.27 30.69-32.11 24.73-4.36-30.86 6.92-40.5 10.22-58.04 7.25-38.51-26.62 11.45-23.12-7.49 6.97-37.78 9.4-31.97 15.42-69.51 3.36-20.95-14.8-32.22-18.62-33Z"/><path fill="#bf4071" d="M149.65 578.81c13.89-42.07-3.61-88.81-32.13-120.74-10.37-10.51-22.13-19.47-32.53-30-5.22-5.3-10.06-10.96-14.6-16.83-4.49-5.94-9.04-11.78-12.76-18.26-3.65-6.53-6.32-13.56-8.17-20.76-8.78-36.23-2.16-74.14 6.75-109.68-9.44 39.94-17.74 92.08 3.05 129.51 7.79 12.35 17.22 23.88 27.5 34.25 7.82 7.75 16.59 14.61 24.81 22 29.54 25.47 50.61 70.52 47.18 109.81-.63 7.53-2.09 14.99-4.33 22.22l-4.76-1.52Z"/><path fill="#f075b9" d="M606.61 61.29c18.53 12.32 14.03 22.34 12.36 28.36-2.58 9.29-16.27 20-17.47 26.07-1.8 9.12-2.13 20.38 28.28 4.79.96 15.07-29.3 27.11-28.28 41.47 1.57 22.14 12.49 5.83 31.2-4.31 10.87-5.89 1.37 24.68-14.39 38.83-10.88 19.16-56.07 10.99-59.93 9.35-15.26-6.47-29.2-15.88-30.62-40.51-.72-12.4 21.84 22.68 21.75 8.39-.15-22.95-24.83-31.1-23.97-49.86.71-15.51 29.34 30.48 38.35 6.47 9.59-25.54-1.79-28.09 2.64-48.9 4.08-19.15 31.8-25.65 40.07-20.15Z"/><path fill="#bf4071" d="M571.5 246.28c.95-38.85-.68-117.71 21.16-148.76-20.92 31.45-17.24 109.92-17.16 148.76h-4Z"/></g><path id="e" fill="#383838" d="M873.22 564.9c0-13.41-88.81-24.29-198.36-24.29-93.82 0-172.42 7.98-193.06 18.69-6.56-.05-13.17-.08-19.84-.08-61.62 0-119.25 2.11-168.39 5.77-21.64-3.51-55.87-5.77-94.39-5.77-65.45 0-118.5 6.54-118.5 14.6 0 5.97 29.11 11.11 70.81 13.37-9.89 3.84-15.24 7.92-15.24 12.17 0 22.17 145.83 40.14 325.71 40.14s325.71-17.97 325.71-40.14c0-4.6-6.3-9.02-17.87-13.14 61.62-4.12 103.42-12.13 103.42-21.33Z"/><ellipse id="g" cx="487.09" cy="583.28" fill="url(#f)" rx="309.73" ry="15.24"/><g id="h"><g id="i"><path fill="#1d3039" d="M803.37 571.18H154.93c-19.69 0-35.65-15.96-35.65-35.65 0-5.89 4.77-10.67 10.67-10.67h266.1l3.79 8.94 158.18.54 2.17-9.48h268.17c5.89 0 10.67 4.77 10.67 10.67 0 19.69-15.96 35.65-35.65 35.65Z"/><path fill="#1d3039" d="M776.86 168.95v355.91H560.19l-2.16 9.48-158.19-.54-3.79-8.94H185.71V168.95c0-9.09 7.37-16.45 16.45-16.45H760.4c9.09 0 16.45 7.37 16.45 16.45Z"/><path fill="#788388" d="M778.11 168.95c-.22 1.31.15 355.95-.01 357.14h-1.24l-216.67 1.97 3.12-2.49-2.16 9.48-.57 2.5h-2.56L399.83 537h-2.11l-.82-1.95-3.79-8.94 2.95 1.95-210.34-2h-1.2v-1.2c0-75.65-.02-274.42-.02-347.1.16-2.8-.33-9.64.39-12.49 1.32-6.3 6.29-11.69 12.54-13.34 2.46-.78 5.28-.66 7.82-.66 126.88-.04 333.41 0 460.28-.02 21.17.08 73.42-.06 94.32 0 9.71-.41 18.45 7.88 18.28 17.71Zm-2.51 0c.07-8.42-7.31-15.6-15.77-15.2h-33.95c-154.81.16-370.98-.39-526.1.17-7.75 1.09-13.45 8.53-12.85 16.3-.01 76.17 0 275.75-.02 354.64l-1.2-1.2 210.34-2 2.11-.02c2.05 4.9 2.92 6.85 4.63 10.91l-2.94-1.95 158.19.54-3.13 2.49c.45-2.07 2.33-10.15 2.73-11.99l2.55.02 216.67 1.96c-2.76 7.79-.64-356.38-1.26-354.67Z"/><path fill="#ededed" d="M205.01 181.96h552.55v317.72H205.01z"/><circle id="j" cx="481.77" cy="167.64" r="7.48" fill="#788388"/><circle id="k" cx="479.35" cy="163.77" r="1.93" fill="#fff"/></g><g id="l"><path id="m" fill="none" stroke="#732644" stroke-linecap="round" stroke-miterlimit="10" stroke-width="10" d="M238.05 398.64h250.14"/><g id="n"><rect width="73.79" height="73.79" x="553.76" y="205.91" fill="#fff" rx="8.38" ry="8.38"/><circle cx="575.04" cy="224.83" r="6.71" fill="#732644"/><path fill="#732644" d="m616.49 260.81-15.32-26.54c-1.65-2.86-5.78-2.86-7.43 0l-10.46 18.13c-.3.52-1.06.52-1.36 0l-3.94-6.82c-1.34-2.32-4.69-2.32-6.03 0l-9.49 16.44c-1.34 2.32.34 5.22 3.02 5.22h47.31c3.3 0 5.37-3.57 3.71-6.43Z"/></g><g id="o"><path fill="none" stroke="#732644" stroke-linecap="round" stroke-miterlimit="10" stroke-width="5" d="M649 220.25h74.15M649 235.29h46.84M649 250.32h74.15M649 265.35h65.52"/></g><g id="p"><rect width="73.79" height="73.79" x="553.76" y="300.29" fill="#fff" rx="8.38" ry="8.38"/><circle cx="575.04" cy="319.21" r="6.71" fill="#732644"/><path fill="#732644" d="m616.49 355.2-15.32-26.54c-1.65-2.86-5.78-2.86-7.43 0l-10.46 18.13c-.3.52-1.06.52-1.36 0l-3.94-6.82c-1.34-2.32-4.69-2.32-6.03 0l-9.49 16.44c-1.34 2.32.34 5.22 3.02 5.22h47.31c3.3 0 5.37-3.57 3.71-6.43Z"/></g><g id="q"><path fill="none" stroke="#732644" stroke-linecap="round" stroke-miterlimit="10" stroke-width="5" d="M649 314.64h65.52M649 329.67h30.06M649 344.7h54.27M649 359.74h54.27"/></g><g id="r"><rect width="73.79" height="73.79" x="553.76" y="394.68" fill="#fff" rx="8.38" ry="8.38"/><circle cx="575.04" cy="413.6" r="6.71" fill="#732644"/><path fill="#732644" d="m616.49 449.58-15.32-26.54c-1.65-2.86-5.78-2.86-7.43 0l-10.46 18.13c-.3.52-1.06.52-1.36 0l-3.94-6.82c-1.34-2.32-4.69-2.32-6.03 0l-9.49 16.44c-1.34 2.32.34 5.22 3.02 5.22h47.31c3.3 0 5.37-3.57 3.71-6.43Z"/></g><g id="s"><path fill="none" stroke="#732644" stroke-linecap="round" stroke-miterlimit="10" stroke-width="5" d="M649 409.02h74.15M649 424.05h44.23M649 439.09h74.15M649 454.12h44.89"/></g><path fill="#732644" d="M230.92 205.91h287.13v168.17H230.92z"/><circle cx="244.79" cy="445.43" r="13.86" fill="#732644"/><path fill="none" stroke="#732644" stroke-linecap="round" stroke-miterlimit="10" stroke-width="5" d="M272.25 438.27h240.19M272.25 453.06h114.53"/><path fill="#fff" d="m398.58 288.01-48.17-27.81c-2.4-1.39-5.4.35-5.4 3.12v55.62c0 2.77 3 4.5 5.4 3.12l48.17-27.81c2.4-1.39 2.4-4.85 0-6.24Z"/></g></g><g id="t"><path id="u" fill="#5a0c0c" d="M776.37 398.72c1.3-8.73 2.05-73.55-31.97-73.55s-37.9 64.36-33.81 75.8c4.09 11.44 63.54 12.87 65.78-2.25Z"/><path id="v" fill="#f99e83" d="M727.65 556.85c-6.59 5.6-16.21 10.52-25.24 13.25-3.87-.96-8.31-3.1-10.41-7.83-2.32-5.2-.34-9.51 1.89-12.3 5.66-1.56 11.87-2.38 16.9-2.92 7.35-8.58 10.42-3.48 10.42-3.48s19.72 1.97 6.43 13.29Z"/><path id="w" fill="#f99e83" d="M786.69 560.63c-1.47 3.08-6.53 6.25-10.14 8.18-8.99-4.13-17.99-9.81-22.03-11.36-3.02-2.14-.62-12.77 12.35-11.75 7.73.61 14.82 2.16 20.49 4.47.72 3.16.96 7.04-.67 10.45Z"/><path id="x" fill="#eb4786" d="M799.51 569.3c-3.18 6.76-13.06 4.07-22.96-.48 3.61-1.94 8.66-5.1 10.14-8.18 1.63-3.41 1.39-7.29.67-10.45 10.36 4.22 15.99 10.97 12.15 19.12Z"/><path id="y" fill="#eb4786" d="M702.42 570.1c-12.08 3.64-23.1 3.35-24.39-4.47-1.4-8.54 6.48-13.1 15.86-15.67-2.23 2.8-4.21 7.11-1.89 12.3 2.11 4.73 6.54 6.87 10.41 7.83Z"/><path id="a`" fill="#273e44" d="m693.23 498.42 51.14 36.57 53.66-36.57h-104.8z"/><path id="aa" fill="#f99e83" d="M754.11 390.03c6.24-4.89 11.24-14.23 11.24-24.62 0-9.6-2.04-16.39-14.51-25.13-3.68 17.57-27.45 18.8-27.45 29.43s5.08 17.32 11.31 20.93v4.8h-6.54s-1.86 15.73 17.55 15.73c16.55 0 17.59-14.1 17.59-14.1l-9.19-1.63v-5.42Z"/><path id="ab" fill="#f99e83" d="M798.03 429.57s7.66 40.15-3.78 50.57l-24.52-51.79 28.3 1.23Z"/><path id="ac" fill="#f99e83" d="M688.37 428.34c-2.6 9.7-3.93 29.01-3.32 36.77.61 7.76 7.76 18.39 7.76 18.39l20.23-53.73-24.67-1.43Z"/><path id="ad" fill="#304b4f" d="M688.1 429.54s-4.48-27.95 22.77-27.95c8.5 0 20.94 4.28 32.17 4.28 17.89 0 33.77-4.28 33.77-4.28s21.21 0 21.21 27.98c-.2.2-21.21 3.06-21.21 3.06l3.64 10.62-72.32 1.43 1.13-10.42-21.17-4.73Z"/><rect id="ae" width="105.73" height="62.31" x="689.55" y="439.27" fill="#eff1f5" rx="6.11" ry="6.11"/><path fill="#788388" d="M752.05 465.04c.14 0 .28 0 .42.02-1.49-2.43-4.05-4.13-7.03-4.47l2.26-4.58-4.16-1.07-.25 5.65c-4.74.53-8.43 4.55-8.43 9.44 0 5.25 4.26 9.5 9.5 9.5 2.15 0 4.14-.72 5.74-1.92-2.6-.83-4.48-3.26-4.48-6.13 0-3.55 2.88-6.43 6.43-6.43Z"/><path id="af" fill="#99335a" d="M663.81 486.57s28.37-4.49 79.24 42.5c1.81 0 52.94-45.79 76.85-42.61.61.52 11.03 3.18 11.03 12.17s-11.24 35.75-65.58 48.62c-5.11.82-5.11 10.42-9.19 10.42s-6.5-3.95-13.1-3.54-11.41 4.56-14.27 4.57c-5.38 0-7.56-15.12-7.56-15.12s-5.31-3.06-8.17 1.02c-1.41 2.02-54.96-11.65-59.25-45.36.2-10.22 10.01-12.67 10.01-12.67Z"/></g><path fill="#5b4343" d="M734.7 390.65s9.84 6.06 19.41-.62v1.2s-4.56 4.68-9.21 4.78-10.2-4.09-10.2-4.09v-1.27Z"/></g></g></svg>