<svg xmlns="http://www.w3.org/2000/svg" xmlns:xlink="http://www.w3.org/1999/xlink" viewBox="0 0 951.41 640.01"><defs><radialGradient id="f" cx="1237.08" cy="579.64" r="187.67" fx="1168.7" fy="579.64" gradientTransform="matrix(.83 0 0 .04 -423.97 553.95)" gradientUnits="userSpaceOnUse"><stop offset=".18" stop-color="#1d1d1b"/><stop offset="1" stop-color="#1d1d1b" stop-opacity="0"/></radialGradient><radialGradient xlink:href="#f" id="h" cx="-4891.6" r="187.67" fx="-4959.99" gradientTransform="matrix(-.83 0 0 .04 -3717.67 553.95)"/><radialGradient id="l" cx="4486.03" cy="500.7" r="25.71" fx="4464.29" fy="500.7" gradientTransform="translate(-3819.8)" gradientUnits="userSpaceOnUse"><stop offset="0" stop-color="#1d3039"/><stop offset=".72" stop-color="#1d3039"/><stop offset=".75" stop-color="#1d3039"/><stop offset=".8" stop-color="#22343d"/><stop offset=".86" stop-color="#31424a"/><stop offset=".92" stop-color="#4a5960"/><stop offset=".98" stop-color="#6d797f"/><stop offset="1" stop-color="#788388"/></radialGradient><radialGradient xlink:href="#l" id="o" cx="-546.85" cy="500.7" r="25.71" fx="-568.59" fy="500.7" gradientTransform="matrix(-1 0 0 1 -266.19 0)"/><linearGradient id="k" x1="4293.25" x2="4360.56" y1="371.61" y2="371.61" gradientTransform="translate(-3819.8)" gradientUnits="userSpaceOnUse"><stop offset="0" stop-color="#283045"/><stop offset=".24" stop-color="#2b3347"/><stop offset=".45" stop-color="#363e50"/><stop offset=".65" stop-color="#47505f"/><stop offset=".85" stop-color="#606a74"/><stop offset="1" stop-color="#788388"/></linearGradient><linearGradient xlink:href="#k" id="n" x1="-739.64" x2="-672.32" y1="371.61" y2="371.61" gradientTransform="matrix(-1 0 0 1 -266.19 0)"/><style>.p{fill:#fff}.q{fill:url(#l)}.q,.r{stroke:#485961}.q,.r,.s,.t{stroke-miterlimit:10}.s,.t,.u{fill:#485961}.r{fill:url(#o)}.v{fill:#788388}.s,.t{stroke:#788388}.w{fill:url(#f)}.x{fill:#1d3039}.y{fill:#f5a3c2}.t{stroke-width:2px}.aa{fill:#383838}.ab{fill:#ed5e95}.ac{fill:#bf4071}.ad{fill:url(#n)}.ae{fill:#f075b9}.af{fill:url(#k)}.ag{fill:#6a7b82}.ah{fill:#ededed}</style></defs><g id="b"><g id="c"><g id="d"><path fill="#f5a3c2" d="M501.06 140.67c-11.28-2.89-21.4 13.33-23.82 23.36-2.37 9.83-2.08 23.94-.87 29.12 1.8 7.74-24.73-1.56-23.88 11.43 28.81 39.45 51.11 30.38 78.03 6.72-2.08-12.56-27.85 3.33-29.66-9.34-1.6-11.19 10.3-17.02 15.08-29.82 4.36-11.68 2.11-27.11-14.87-31.46Z"/><path fill="#bf4071" d="M483.04 246.61c.1-26.06.73-53.18 11.02-77.54-9.31 24.62-8.91 51.52-8.02 77.46l-3 .07Z"/><path fill="#ed5e95" d="M660.52 46.7c16.37 5.52 26.63 27.78 28.52 49.17 1.97 22.37-.64 56.22 1.74 62.89 2.51 7.02 30.85-36.52 38.26-23.94 1.3 32.26-34.48 79.52-31.13 86.2 2.96 5.92 32.29-36.2 36.56-25.3 7.33 62.23-96.62 99.06-109.29-4.74 4.8-10.08 45.45 32.13 46.45 29.19 1.22-3.61-58.06-75.04-54.38-90.03 2.85-11.6 41.13 19.61 41.96 13.85.76-5.25-24.48-41.24-25.11-60.65-.48-15.01 5.81-43.59 26.41-36.64Z"/><path fill="#bf4071" d="M685.81 243.25c.05.23.12.47.17.61-.02-.04-.06-.11-.09-.15-.62-.85-2.01-.64-2.41.24-.13.35-.06.19-.07.17l.02-.22.02-.55c-1.22-25.52-4.65-50.93-7.98-76.25-3.41-22.84-6.53-45.91-13.35-68.03-1.06-3.12-2.2-6.25-3.93-9.08 1.78 2.79 2.99 5.91 4.11 9.02 3.26 9.39 5.46 19.1 7.55 28.8 5.41 25.92 9.32 52.13 12.73 78.38 1.47 12.59 3.36 25.17 3.81 37.86-.05.53 0 .83-.38 1.46 0 0-.13.25-.64.51-.83.28-1.18.09-1.68-.31-.49-.5-.61-1.13-.78-1.73l2.91-.73Z"/><path fill="#f5a3c2" d="M766.74 45.83c-20.98-1.76-40 18.97-46.52 43.98-3.87 14.85-.62 38.05 1.66 47.72 3.39 14.43-38.3-13.97-41.5-1.38-4.66 18.33 29.4 81.64 30.93 100.29 2.21 26.91-33.48-22.19-42.78-2.6-4.73 9.97 4.01 73.26 8.57 88.53 7.77 25.96-62.68 2.98-55.59 37.1 5.7 27.45 48.18 92.27 49.92 113.26 1.54 18.56-48.39-18.61-47.51.17.86 18.19 49.11 88.18 95.59 80.74 57.8-9.26 92.41-99.5 81.02-128.68-10.69-27.38-58.49 7.7-61.58-9.63-3.97-22.26 73.09-61.91 72.54-128.69-.2-24.38-38.45 20.61-41.22-6.21-3.31-32.07 35.99-58 31.57-119.96-2.36-33.11-32.44 17.65-35.98-5.98-3.12-20.85 9.55-33.41 23.39-57.46 10.54-18.31 19.46-47.67-22.52-51.2Z"/><path fill="#bf4071" d="M748.53 569.02c-35.03-54.98-66.53-120.14-55.01-187 1.23-6.4 2.82-12.83 4.86-19 6.43-19.84 17.4-37.66 25.59-56.65 6.16-14.14 10.35-29.11 12.03-44.45.5-4.87.9-10.5.95-15.4-.61-51.31-2.7-104.65 15.98-153.38-18.13 48.9-15.5 102.13-14.29 153.4-.01 3.62-.16 8.1-.45 11.68-1.14 16.89-5.36 33.52-11.92 49.11-7.93 19.08-18.62 36.96-24.74 56.7-2.28 7.26-4.01 14.86-5.08 22.39-6.22 43.46 7.23 87.17 26.16 125.97 9.04 18.46 19.57 36.17 30.93 53.33l-5.02 3.29Z"/><path fill="#f075b9" d="M858.12 72.16c32.43 2.44 5.65 89.75 7.18 96.66 1.61 7.27 28.77-30.83 34.97-19.48 8.58 50.4-33.24 49.29-35.75 82.1-.58 7.62 37.01-32.15 41.23-31.18 24.65 26.92-44.29 77.42-38.52 89.51 5.16 10.83 32.19-22.68 31.28-14.08-6.07 57-58.38 79.5-55.76 97.16 1.98 13.36 50.02-43.25 48.55-34.21-8.54 52.64-69.9 84.95-69.09 96.84.79 11.59 62.18-45.65 62.18-45.65-20.15 83.72-44.76 78.62-44.82 92.28-.05 10.94 14.76 1.94 15.74 17.49 1.17 18.5-70.8 98.65-121.58 52.58-40.08-36.36-43.03-129.63-37.81-134.36 5.42-4.91 29.28 76.95 39.3 69 10.51-8.34-11.83-42.83-.04-91.4 3.28-13.5 34.41 65.07 38.5 61.67 4.63-3.85-24.57-85.05-14.03-124.79 3.26-12.29 35.77 71.16 41.83 65.04 6.76-6.83-14.52-73.29-15.32-128.45-.39-26.78 34.72 23.58 39.16 17.31 5.79-8.16-44.08-67.14-29.34-93.77 5.98-4.51 32.57 41.13 36.16 35.39 19.54-31.32-48.25-59.23-20.89-86.89 6.45-6.52 24.66 35.13 26.21 29.53 1.42-5.11 3.48-17.47-1.46-39.89-4.79-21.73 4.33-54.17 22.14-58.42Z"/><path fill="#bf4071" d="M752.43 554.38c-1.37-20.27 8.26-39.22 17.85-56.27 19.51-33.55 37.48-67.94 50.28-104.66 12.98-36.5 22.97-74.25 26.68-112.9 3.86-38.67 1.81-77.64 2.11-116.46.08-19.44.66-38.88 1.79-58.28-2 38.85-.86 77.71-.2 116.58 1.41 51.14-4.92 102.48-20.54 151.28-7.8 25.65-17.14 50.83-28.59 75.11-8.22 17.65-17.77 34.72-27.06 51.77-6.74 12.69-13.46 25.42-15.72 39.58-.72 4.59-.92 9.24-.61 13.88l-5.99.36Z"/><path fill="#f5a3c2" d="M910.43 237.95c-15.05 4.4-28.04 33.41-24.45 51.75 3.4 17.43 9.9 43.57 9.2 50.07-1.06 9.76-28.26-17.29-34.37 1.56-4.55 14.04 3.32 43.6-.93 56.92-6.56 20.53-24.49-15.3-37.5-1.4-6.56 7-4.32 38.62-6.67 55.72-3.42 24.89-44.06-51.26-31.72 41.13 11.31 31.09 24.28 48.55 48.52 59.78 30.21 14.01 79.44-26.6 58.53-36.07-38.24-10.6-32.89-28.2-32.48-32.64.58-6.32 61.66-6.08 68.74-29.1 3.56-11.58-25.18-11.34-21.57-25.08 5.81-22.07 41.34-39.68 45.43-58.25 3.38-15.35-28.63 18.94-28.7-9.03-.08-29.76 18.55-37.6 16.62-61.05-1.81-21.93-8.92-70.07-28.64-64.31Z"/><path fill="#bf4071" d="M838.5 575c-12.72-22.08-21.16-47.33-20.27-73.08.59-12.8 3.09-26.83 12.52-36.29 9.2-9.27 21.54-13.29 32.08-20.25 15.85-9.76 27.1-25.52 34.13-42.59 12.12-28.95 12.18-61.33 9.55-92.17 3.38 30.96 4.02 63.54-7.53 93-6.82 17.73-18.06 34.19-34.23 44.68-10.09 7.05-22.39 11.46-30.83 20.34-15.2 16.45-11.18 49.5-4.78 69.47 3.66 11.69 9.03 22.81 15.38 33.32L838.5 575Z"/><path fill="#f075b9" d="M247.11 7.42c13.65 11.53 23.08 23.56 17.72 40.84-4.5 14.48-9.83 25.32-13.44 33.95-5.4 12.89 37.35-13.74 31.6 8.3-4.69 17.96-35.17 66.89-39.72 83.88-6.55 24.49 41.87-13.69 46.41 5.39 2.31 9.71-30.85 62.52-32.09 77.54-2.94 35.44 47.82 19.2 48.07 33.92.45 26.54-51.33 74.52-56.46 93.62-4.53 16.89 41.97-9.56 37.96 7.61-3.89 16.63-67.47 84.85-105.86 72.71-14.83-4.69-77.94-46.71-68.19-87.38 2.59-10.82 35.77 41.71 45.48 15.37-7.23-28.52-33.33-54.32-26.22-66.6 13.87-23.96 52.3-6.18 57.94-21.76 7.24-20.02-44.72-66.47-37.99-97.34 3.79-17.4 52.56 20.36 39.75-23.17-8.65-29.38-40.41-58.43-29.8-80.95 5.68-12.06 36.17 28.55 43.28 7.23 6.28-18.82-4.06-50.57 1.59-70.32 6.01-21 13.17-55.46 39.96-32.82Z"/><path fill="#bf4071" d="M149.74 472.23c42.44-49.13 84.72-109.91 79.69-177.81-1.93-23.94-11.19-46.71-13.43-70.68-1.45-14.44-.6-29.09 2.08-43.34 9.83-46.67 21.45-94.66 14.47-142.56 7.56 47.85-3.58 96.04-12.81 142.85-3.34 18.81-3.14 38.22.82 56.93 3.83 18.83 10.4 37.18 12.2 56.49 1 9.67.93 19.47-.07 29.14-6.63 58.46-41.4 109.04-78.41 152.92l-4.53-3.93Z"/><path fill="#ed5e95" d="M147.09 44.73c-27.49-11.07-44.04 20.25-50.54 45.84-6.29 24.77-2.13 52.51-5.18 72.79-7.05 46.9-32.81-31.7-37.86-14.44-5.62 19.2 24.63 96.92 20.06 110.69-4.08 12.29-38.99-31.31-43.29-19.05-5.86 16.71 60.44 98.81 54.98 115.32-4.34 13.14-64.77-49.98-67.35-33.03-7.71 57 89.74 83.01 86.17 95.77-2.19 7.83-59.83-2.31-59.18 2.18 6.8 46.66 116.12 50.07 120.15 59.91 19.83 48.43-83.58 3.59-73.04 22.11 15.58 26.67 46.36 36.35 91.64 63.87 51.37 31.22 121.93-11.11 102.15-103.98-4.32-14.21-37.47 57.71-64.69 49.25-6.07-15.48 69.31-79.66 31.9-140.38-19.95-4.47-27.53 74.67-46.51 46.52-18.98-28.15 33.37-85.58 9.08-96.2-16.17 30.41-46 30.39-51.94 25.39-7.8-6.55 34.27-80.27 15.34-90.09-15.82 10.89-50.16 35.36-49.9 26.82 1.39-44.29 19.14-55.05 27.85-78.81 19.12-52.17-39.2 9.56-29.9-16.12 18.56-51.22 20.5-42.49 37.7-93.61 9.6-28.53-12.61-48.73-17.64-50.76Z"/><path fill="#bf4071" d="M182.28 588.27c19.39-36.69 20.13-80.63 9.2-120.06-5.88-21.05-14.21-41.89-26.49-60.01-11.35-16.06-24.36-30.74-35.44-47.05-8.15-11.99-15.01-24.76-21.3-37.78-2.75-5.92-5.74-11.9-7.83-18.16-18.77-58.45 5.77-128.7 29.26-182.77-23.83 56.8-50.78 137.77-20.54 196.13 6.8 14.03 14.37 27.82 23.29 40.6 11.95 17.12 26.41 32.6 38.36 49.78 27.65 43.85 41.86 101.49 28.95 152.45-2.65 10.37-6.42 20.46-11.22 30.05l-6.23-3.18Z"/><path fill="#f5a3c2" d="M62.97 259.95c28.54 0 3.96 62.46 4.54 69.8.87 11.04 32.85-31.72 39.32-10.16 4.82 16.06-20.93 46.95-16.43 62.19 6.93 23.48 32.59-14.87 47.4 1.54 7.46 8.27-9.34 36.32 5.79 58.78 14.6 21.67 28.54-74.78 37.98.08 1.89 14.99-11.6 36.25-9.44 51.25 10.81 46.75 38.14-23.62 41.6 0 2.92 19.94-26.34 65.64-80.64 80.41-37.42 10.17-88.96-41.55-67.64-44.07 42.48-8.28 39.9-29.74 39.59-34.75-.44-7.14-72.5-10.54-79.96-36.85-3.75-13.24 30.15-11.24 26.42-26.91-5.99-25.17-54.95-22.42-51.32-68.23 1.4-17.73 33.04 23.02 34.21-8.43 1.25-33.46-14.68-94.64 28.57-94.64Z"/><path fill="#bf4071" d="M117.32 577.96c14.35-21.34 29.9-46.92 28.64-73.43-.83-13.24-7.2-25.58-18.21-33.27-10.93-7.94-23.69-13.72-34.21-22.48-16.31-12.96-27.2-31.5-33.94-50.97-11.07-32.6-9.28-67.96-4.31-101.53-4.36 33.49-5.56 68.72 6 100.92 6.95 18.96 17.86 36.93 34.04 49.33 5.3 4.15 11.03 7.73 16.92 11.11 8.82 5.14 18.43 9.99 25.63 17.62 18.02 19.41 14.07 47.39 4.36 69.78-5.38 12.81-12.38 24.78-19.95 36.27l-4.97-3.36Z"/><path fill="#ed5e95" d="M410.4 87.07c-18.53 12.32-14.03 22.34-12.36 28.36 2.58 9.29 16.27 20 17.47 26.07 1.8 9.12 2.13 20.38-28.28 4.79-.96 15.07 29.3 27.11 28.28 41.47-1.57 22.14-12.49 5.83-31.2-4.31-10.87-5.89-1.37 24.68 14.39 38.83 10.88 19.16 56.07 10.99 59.93 9.35 15.26-6.47 29.2-15.88 30.62-40.51.72-12.4-21.84 22.68-21.75 8.39.15-22.95 24.83-31.1 23.97-49.86-.71-15.51-29.34 30.48-38.35 6.47-9.59-25.54 1.79-28.09-2.64-48.9-4.08-19.15-31.8-25.65-40.07-20.15Z"/><path fill="#bf4071" d="M441.51 272.06c.08-38.74 3.77-117.32-17.16-148.76 21.82 31 20.22 109.86 21.16 148.76h-4Z"/><path id="e" fill="#383838" d="M869.72 564.34c0-13.6-88.81-24.63-198.36-24.63-93.82 0-172.42 8.09-193.06 18.96-6.56-.05-13.17-.08-19.84-.08-61.62 0-119.25 2.14-168.39 5.86-21.64-3.56-55.87-5.86-94.39-5.86-65.45 0-118.5 6.63-118.5 14.81 0 6.06 29.11 11.27 70.81 13.56-9.89 3.89-15.24 8.04-15.24 12.34 0 22.49 145.83 40.71 325.71 40.71s325.71-18.23 325.71-40.71c0-4.67-6.3-9.15-17.87-13.33 61.62-4.18 103.42-12.3 103.42-21.63Z"/><ellipse id="g" cx="601.61" cy="579.64" fill="url(#f)" rx="157.22" ry="9.33"/><ellipse id="i" cx="337.61" cy="579.64" fill="url(#h)" rx="157.22" ry="9.33"/></g><g id="j"><path fill="url(#k)" d="m540.05 566.15-61.47-41.33c-3.16-1.67-5.13-4.94-5.13-8.51V221.36c0-3.57 1.98-6.85 5.13-8.51l62.19-35.78-.72 389.08Z"/><path fill="#1d3039" d="M546.53 562.75c-4.12 0-7.11-2.51-7.11-5.98V187.25c0-3.84 3.59-6.85 8.17-6.85.18 0 .35 0 .53.01l225.81 11.27c3.58.18 6.49 3.21 6.49 6.75v329.76c0 3.65-3.13 7.11-6.83 7.56l-225.81 26.93c-.42.05-.84.08-1.26.08Z"/><path fill="#788388" d="M547.6 185.4h.28l225.81 11.27c.89.04 1.74.9 1.74 1.75v329.76c0 1.12-1.25 2.45-2.42 2.59L547.2 557.7c-.23.03-.45.04-.66.04-.55 0-2.11-.18-2.11-.98V187.25c0-.99 1.48-1.85 3.17-1.85m0-10c-7.32 0-13.17 5.17-13.17 11.85v369.52c0 6.36 5.29 10.98 12.11 10.98.6 0 1.22-.04 1.85-.11l225.81-26.93c6.22-.74 11.24-6.35 11.24-12.52V198.43c0-6.17-5.02-11.43-11.24-11.74l-225.81-11.27c-.26-.01-.52-.02-.78-.02Z"/><path fill="#485961" stroke="#788388" stroke-miterlimit="10" stroke-width="2" d="M732.75 396.48c0 34.32-28.92 64.42-65.68 67.3-38.04 2.99-69.85-24.11-69.85-60.61s31.82-66.74 69.85-67.51c36.77-.74 65.68 26.5 65.68 60.82Z"/><path fill="#788388" d="M714 397.41c0 24.53-20.76 45.86-46.93 47.69-26.81 1.88-49.03-17.34-49.03-42.96s22.22-47.03 49.03-47.8c26.17-.75 46.93 18.53 46.93 43.06Z"/><path fill="#ededed" d="M694.92 398.35c0 14.56-12.38 27.12-27.85 28.07-15.69.96-28.58-10.35-28.58-25.28 0-14.93 12.89-27.52 28.58-28.1 15.47-.58 27.85 10.76 27.85 25.32Z"/><path fill="#485961" d="M688.23 398.68c0 11.06-9.42 20.58-21.16 21.26-11.87.69-21.58-7.88-21.58-19.15s9.71-20.81 21.58-21.28c11.74-.47 21.16 8.12 21.16 19.18Z"/><path fill="#fff" d="M626.36 367.37c0 1.75-1.53 3.23-3.42 3.3-1.89.07-3.43-1.3-3.43-3.06s1.54-3.23 3.43-3.3c1.89-.06 3.42 1.31 3.42 3.06ZM712.65 364.43c0 1.69-1.42 3.1-3.16 3.16-1.75.06-3.17-1.26-3.17-2.95s1.42-3.11 3.17-3.16 3.16 1.26 3.16 2.95ZM626.36 436.1c0 1.75-1.53 3.28-3.42 3.4-1.89.13-3.43-1.2-3.43-2.96s1.54-3.28 3.43-3.4c1.89-.12 3.42 1.2 3.42 2.96ZM712.65 430.52c0 1.69-1.42 3.15-3.16 3.26-1.75.12-3.17-1.16-3.17-2.85 0-1.69 1.42-3.15 3.17-3.26s3.16 1.17 3.16 2.85Z"/><path fill="#485961" stroke="#788388" stroke-miterlimit="10" d="M711.23 269.82c0 23.08-19.55 41.98-44.17 42.21-25.18.24-46.02-19.06-46.02-43.11s20.84-42.93 46.02-42.2c24.62.72 44.17 20.01 44.17 43.09Z"/><path fill="#788388" d="M698.54 269.69c0 16.45-13.98 29.83-31.47 29.9-17.78.07-32.4-13.6-32.4-30.53s14.62-30.31 32.4-29.89c17.49.41 31.47 14.08 31.47 30.52Z"/><path fill="#ededed" d="M685.69 269.56c0 9.73-8.3 17.61-18.62 17.59-10.42-.02-18.94-8.06-18.94-17.96s8.52-17.77 18.94-17.58c10.32.19 18.62 8.22 18.62 17.96Z"/><path fill="#485961" d="M681.2 269.52c0 7.39-6.31 13.35-14.14 13.32-7.89-.03-14.32-6.12-14.32-13.6s6.43-13.45 14.32-13.32c7.83.13 14.14 6.21 14.14 13.6Z"/><path fill="#fff" d="M640.13 246.37c0 1.16-1.01 2.08-2.25 2.06s-2.25-.99-2.25-2.15 1.01-2.08 2.25-2.06 2.25.99 2.25 2.15ZM697.63 247.53c0 1.13-.96 2.03-2.13 2.01s-2.14-.96-2.14-2.09.96-2.03 2.14-2.01 2.13.96 2.13 2.09ZM640.13 291.85c0 1.16-1.01 2.1-2.25 2.1s-2.25-.94-2.25-2.1 1.01-2.1 2.25-2.1 2.25.94 2.25 2.1ZM697.63 291.83c0 1.13-.96 2.05-2.13 2.05s-2.14-.92-2.14-2.05.96-2.05 2.14-2.05 2.13.92 2.13 2.05Z"/><path fill="url(#l)" stroke="#485961" stroke-miterlimit="10" d="M691.11 499.49c0 12.56-10.7 23.89-24.04 25.3-13.51 1.43-24.58-7.8-24.58-20.65s11.07-24.2 24.58-25.35c13.34-1.14 24.04 8.13 24.04 20.7Z"/><path fill="#6a7b82" d="M556.68 193.39c0 1.75-1.58 3.11-3.53 3.03-1.95-.08-3.54-1.57-3.54-3.33s1.58-3.11 3.54-3.03c1.95.09 3.53 1.57 3.53 3.33ZM774.82 202.62c0 1.59-1.29 2.82-2.89 2.75s-2.9-1.41-2.9-3 1.3-2.82 2.9-2.75c1.6.07 2.89 1.41 2.89 3ZM556.68 552.28c0 1.75-1.58 3.35-3.53 3.57-1.95.22-3.54-1.02-3.54-2.78s1.58-3.36 3.54-3.58c1.95-.22 3.53 1.03 3.53 2.78ZM774.82 527.62c0 1.59-1.29 3.02-2.89 3.2-1.6.18-2.9-.96-2.9-2.55 0-1.59 1.3-3.02 2.9-3.2 1.6-.18 2.89.96 2.89 2.55Z"/></g><g id="m"><path fill="url(#n)" d="m406.85 566.15 61.47-41.33c3.16-1.67 5.13-4.94 5.13-8.51V221.36c0-3.57-1.98-6.85-5.13-8.51l-62.19-35.78.72 389.08Z"/><path fill="#1d3039" d="M400.37 562.75c-.41 0-.83-.03-1.26-.08L173.3 535.74c-3.7-.44-6.83-3.9-6.83-7.56V198.43c0-3.54 2.91-6.57 6.49-6.75l225.81-11.27c.18 0 .36-.01.53-.01 4.58 0 8.17 3.01 8.17 6.85v369.52c0 2.07-1 3.4-1.83 4.15-1.31 1.18-3.19 1.83-5.27 1.83Z"/><path fill="#788388" d="M399.3 185.4c1.69 0 3.17.87 3.17 1.85v369.52c0 .8-1.56.98-2.11.98-.21 0-.44-.01-.66-.04l-225.81-26.93c-1.18-.14-2.43-1.47-2.43-2.59V198.43c0-.86.85-1.71 1.74-1.75l225.81-11.27h.29m0-10c-.26 0-.52 0-.78.02L172.71 186.7c-6.22.31-11.24 5.57-11.24 11.74V528.2c0 6.17 5.02 11.78 11.24 12.52l225.81 26.93c.63.07 1.24.11 1.85.11 6.82 0 12.11-4.62 12.11-10.98V187.25c0-6.68-5.85-11.85-13.17-11.85Z"/><path fill="#485961" stroke="#788388" stroke-miterlimit="10" stroke-width="2" d="M214.15 396.48c0 34.32 28.92 64.42 65.68 67.3 38.04 2.99 69.85-24.11 69.85-60.61s-31.82-66.74-69.85-67.51c-36.77-.74-65.68 26.5-65.68 60.82Z"/><path fill="#788388" d="M232.9 397.41c0 24.53 20.76 45.86 46.93 47.69 26.81 1.88 49.03-17.34 49.03-42.96s-22.22-47.03-49.03-47.8c-26.17-.75-46.93 18.53-46.93 43.06Z"/><path fill="#ededed" d="M251.98 398.35c0 14.56 12.38 27.12 27.85 28.07 15.69.96 28.58-10.35 28.58-25.28 0-14.93-12.89-27.52-28.58-28.1-15.47-.58-27.85 10.76-27.85 25.32Z"/><path fill="#485961" d="M258.67 398.68c0 11.06 9.42 20.58 21.16 21.26 11.87.69 21.58-7.88 21.58-19.15s-9.71-20.81-21.58-21.28c-11.74-.47-21.16 8.12-21.16 19.18Z"/><path fill="#fff" d="M320.54 367.37c0 1.75 1.53 3.23 3.42 3.3s3.43-1.3 3.43-3.06-1.54-3.23-3.43-3.3c-1.89-.06-3.42 1.31-3.42 3.06ZM234.24 364.43c0 1.69 1.42 3.1 3.16 3.16 1.75.06 3.17-1.26 3.17-2.95s-1.42-3.11-3.17-3.16-3.16 1.26-3.16 2.95ZM320.54 436.1c0 1.75 1.53 3.28 3.42 3.4 1.89.13 3.43-1.2 3.43-2.96s-1.54-3.28-3.43-3.4c-1.89-.12-3.42 1.2-3.42 2.96ZM234.24 430.52c0 1.69 1.42 3.15 3.16 3.26 1.75.12 3.17-1.16 3.17-2.85 0-1.69-1.42-3.15-3.17-3.26s-3.16 1.17-3.16 2.85Z"/><path fill="#485961" stroke="#788388" stroke-miterlimit="10" d="M235.66 269.82c0 23.08 19.55 41.98 44.17 42.21 25.18.24 46.02-19.06 46.02-43.11s-20.84-42.93-46.02-42.2c-24.62.72-44.17 20.01-44.17 43.09Z"/><path fill="#788388" d="M248.36 269.69c0 16.45 13.98 29.83 31.47 29.9 17.78.07 32.4-13.6 32.4-30.53s-14.62-30.31-32.4-29.89c-17.49.41-31.47 14.08-31.47 30.52Z"/><path fill="#ededed" d="M261.21 269.56c0 9.73 8.3 17.61 18.62 17.59s18.94-8.06 18.94-17.96-8.52-17.77-18.94-17.58c-10.32.19-18.62 8.22-18.62 17.96Z"/><path fill="#485961" d="M265.7 269.52c0 7.39 6.31 13.35 14.14 13.32 7.89-.03 14.32-6.12 14.32-13.6s-6.43-13.45-14.32-13.32c-7.83.13-14.14 6.21-14.14 13.6Z"/><path fill="#fff" d="M306.77 246.37c0 1.16 1.01 2.08 2.25 2.06s2.25-.99 2.25-2.15-1.01-2.08-2.25-2.06-2.25.99-2.25 2.15ZM249.27 247.53c0 1.13.96 2.03 2.13 2.01s2.14-.96 2.14-2.09-.96-2.03-2.14-2.01c-1.18.02-2.13.96-2.13 2.09ZM306.77 291.85c0 1.16 1.01 2.1 2.25 2.1s2.25-.94 2.25-2.1-1.01-2.1-2.25-2.1-2.25.94-2.25 2.1ZM249.27 291.83c0 1.13.96 2.05 2.13 2.05 1.18 0 2.14-.92 2.14-2.05s-.96-2.05-2.14-2.05c-1.18 0-2.13.92-2.13 2.05Z"/><path fill="url(#o)" stroke="#485961" stroke-miterlimit="10" d="M255.79 499.49c0 12.56 10.7 23.89 24.04 25.3 13.51 1.43 24.58-7.8 24.58-20.65s-11.07-24.2-24.58-25.35c-13.34-1.14-24.04 8.13-24.04 20.7Z"/><path fill="#6a7b82" d="M390.22 193.39c0 1.75 1.58 3.11 3.53 3.03 1.95-.08 3.54-1.57 3.54-3.33s-1.58-3.11-3.54-3.03c-1.95.09-3.53 1.57-3.53 3.33ZM172.08 202.62c0 1.59 1.29 2.82 2.89 2.75 1.6-.07 2.9-1.41 2.9-3s-1.3-2.82-2.9-2.75c-1.6.07-2.89 1.41-2.89 3ZM390.22 552.28c0 1.75 1.58 3.35 3.53 3.57 1.95.22 3.54-1.02 3.54-2.78s-1.58-3.36-3.54-3.58-3.53 1.03-3.53 2.78ZM172.08 527.62c0 1.59 1.29 3.02 2.89 3.2s2.9-.96 2.9-2.55c0-1.59-1.3-3.02-2.9-3.2-1.6-.18-2.89.96-2.89 2.55Z"/></g></g></g></svg>