<svg xmlns="http://www.w3.org/2000/svg" viewBox="0 0 949.01 639.07"><defs><radialGradient id="e" cx="468.2" cy="578.4" r="306.51" fx="468.2" fy="578.4" gradientTransform="matrix(1 0 0 .04 0 552.76)" gradientUnits="userSpaceOnUse"><stop offset=".18" stop-color="#1d1d1b"/><stop offset="1" stop-color="#1d1d1b" stop-opacity="0"/></radialGradient><style>.k{fill:#ea4c89}.l{fill:#fff}.m{fill:#f5a3d0}.n{fill:#f2f8f8}.o{fill:#788388}.p{stroke:#fffdff;stroke-width:2px}.p,.q,.r{fill:none;stroke-linecap:round;stroke-miterlimit:10}.s{fill:#1d3039}.t{fill:#fffdff}.q,.r{stroke:#ea4c89;stroke-width:10px}.r{stroke:#485961}.u{fill:url(#e)}.v{fill:#383838}.w{fill:#ed5e95}.x{fill:#bf4071}.y{fill:#f28cc4}</style></defs><g id="b"><g id="c"><path fill="#f28cc4" d="M142.5 8.29c21.31 14.62 43.98 45.54 39.66 65.29-3.62 16.55-16.85 33.49-20.32 43.28-5.18 14.62 54.28 5.39 50.31 30.67-3.24 20.61-43.41 76.65-46.63 96.13-4.65 28.09 55.98-33.55 65.91-10.86 5.05 11.55-21.62 74.06-28.29 89.32-11.35 25.95 76.29 16.01 65.17 50.75-8.94 27.95-65.47 88.01-69.12 109.91-3.22 19.37 60.41-9.82 57.97 9.91-2.36 19.12-91.87 73.66-148.05 56.24-21.79-6.75-54.35-64.74-58.49-100.54-2.67-23.09 47.83-13.41 42.34-30.48-13.3-41.34-49.59-39.83-51.68-59.87-3.19-30.6 38.93-3.57 43.95-21.32 6.45-22.8-49.16-64.18-43.34-99.15 4.25-25.55 47.96 9.52 53.28-18.36 6.36-33.34-40.78-75.22-33.45-101.96 6.58-24.02 43.19 25.63 49.22 1.3 5.32-21.48-2.41-33.01-6.09-55.14-4.02-24.14-4.19-83.83 37.66-55.11Z"/><path fill="#bf4071" d="M92.99 564.78c49.86-52.2 97.5-123.54 78.81-198.89-8.3-33.75-29.05-63.25-35.55-97.62-2.88-14.26-3.51-28.97-2.26-43.44 5.12-48.76 11.38-98.01 6.23-147.02-1.35-11.47-3.41-22.92-7.23-33.86 5.82 16.39 8 33.83 9.1 51.11 2.76 44.86-2.9 89.6-6.73 134.2-1.01 18.66 1.61 37.47 7.48 55.2 9.04 27.5 25.04 52.37 32.23 80.6 13.98 52.07-5.03 105.98-34.15 149.3-12.89 19.45-27.72 37.5-43.55 54.54l-4.36-4.12Z"/><path fill="#ed5e95" d="M846.38 79.17c-18.18 30.34-14.56 37.52-7.37 64.5 6.83 25.64 8.7 35.05 7.37 44.97-1.99 14.92-62.21-1.89-74.03 27.68-8.81 22.02 54.35 38.35 46.12 59.24-12.69 32.2-62.85-2.56-88.27 20.85-12.81 11.8 40.55 24.31 36.09 50.54-5.98 35.18-156.23-7.41-147.4 85.71 1.9 20.05 8.95 39.36 20.05 55.3 19.23 27.63 43.2 42.99 79.74 53.62 68.8 20.02 51.61-3.34 91.04-52 21.11-26.05 101.23-30.61 125.51-106.57 5.52-17.27-86.55 16.38-85.79 9.61 1.09-9.64 121.06-46.84 96.17-108.88-6.19-15.43-69.24 57.7-62.27 36.29 11.2-34.38 69.51-99.9 63.35-162.67-2.41-24.54-53.66 51.39-54.05 9.23-.41-44.86 16-30.27 8.22-68.76-6.53-32.29-41.87-39.69-54.47-18.67Z"/><path fill="#bf4071" d="M734.24 571.57c-38.85-46.35-45.11-101.23-11.6-152.62 6.43-9.04 14.54-16.59 23-23.43 16.94-13.52 35.16-25.12 51.63-39.14 31.98-27.11 60.29-64.47 70.35-105.67 9.49-42.24 6.81-86.18 1.26-128.8 6.02 42.63 9.16 86.68.1 129.11-4.52 21.31-14.84 40.87-26.7 58.99-11.95 18.14-26.67 34.41-43.13 48.56-16.3 14.22-34.52 26.13-51.19 39.77-8.24 6.82-16 14.25-22.02 22.93-5.96 8.67-10.26 18.67-13.82 28.58-10.89 30.1-7.35 64.16 8.53 91.82 5.14 9.26 11.32 17.95 18.21 26.05l-4.6 3.86Z"/><path fill="#ed5e95" d="M83.09 170.33c-16.37 4.48-29.63 25.56-31.4 43.02-1.85 18.24-3.31 33.5-5.67 38.94-2.47 5.72-16.5-19.02-23.85-8.76-1.12 26.32 20.59 58.3 17.28 63.74-2.94 4.83-26.73-15.73-30.88-6.83-6.26 13.43 38.71 42.73 31.54 51.92-6.43 8.22-37.38-13.77-39.94-7.6-3.44 8.27 52.74 54.36 48.01 68.38-3.58 10.61-44.24-21.25-46.51-14.02-7.87 25.1 61.55 57.34 59.31 66.88C58.8 475.3.39 432.76.46 450.17c.07 17.41 77.63 46.25 76.04 57.31-1.28 8.87-53.47-8.28-55.39-.85-5.45 21.14 50.34 15.52 66.7 30.1 6.88 6.13-43.14-1.71-39.34 4.91 8.61 15.02 67.2 29.73 90.78 22.72 50.72-15.08 62.57-94.65 49.1-99.43-9.75-3.46-38.32 59.24-47.31 51.75-9.42-7.85 28.2-59.81 11.07-73.99-6.37-5.27-41.98 49.08-45.63 45.9-4.13-3.6 51.68-88.51 28.98-99.56-6.28-3.06-44.07 53.87-49.33 48.28-5.88-6.24 33.2-79.1 30.7-102.39-1.33-12.46-40.26 31.61-43.91 26.07-4.76-7.21 44.46-67.4 38.33-77.77-4.87-8.23-40.29 14.91-41.3 12.51-1.25-2.94 42.9-56.28 39.12-68.52-2.92-9.47-26.25 11.09-27.12 6.39-.79-4.28 24.76-23.6 25.28-39.44.4-12.24-3.56-29.46-24.15-23.82Z"/><path fill="#bf4071" d="M143.02 572.15C98.65 529.97 71.76 472.07 59.83 412.6c-12.46-63.16-8.7-129.67 9.84-191.25-17.49 61.71-20.22 127.87-6.81 190.62 1.33 5.48 2.66 11.55 4.07 16.98.57 1.96 3.52 12.21 4.04 13.98.62 1.84 2.16 6.39 2.79 8.27 12.43 36.62 31.39 71.18 57.12 100.12 5.15 5.73 10.55 11.24 16.22 16.43l-4.08 4.4Z"/><path fill="#f5a3d0" d="M238.65 173.55c-20.21-13.58-38.96 8.16-48.62 27.17-9.35 18.39-10.8 40.98-16.76 56.41-13.79 35.69-20.93-30.76-27.98-18.07-7.84 14.13 3.06 80.69-3 90.72-5.41 8.96-25.97-31.55-31.55-22.66-7.61 12.13 31.56 88.51 24.31 100.55-5.77 9.58-36.64-59.03-48.51-37.92-7.06 36.67 57.88 81.25 52.8 90.66-3.12 5.78-47.76-12.4-48.01-8.75-2.6 37.95 90.06 60.67 86.36 68.43-2.84 5.95-53.95-9.71-62.62 4.5-8.24 13.5 31.03 36.83 62.72 66.51 35.95 33.67 101-57.06 100.22-63.83-.79-6.79-57.18 29.5-59.2 17.34-2.21-13.27 50.71-86.3 48.57-94.91-1.78-7.18-34.82 48.58-44.07 33.77-10.95-17.53 43.12-78.13 35.01-86.2-6.24-6.22-45.21 17.12-49.13 12.14-5.15-6.54 41.09-75.8 41.09-75.8-6.66-20.61-73.73 38.46-72.04 31.78 8.78-34.64 29.45-46.53 40.58-63.7 24.42-37.71-33.21.59-21.28-17.98 23.8-37.05 23.86-29.84 46.54-67.05 12.66-20.77-1.72-40.61-5.42-43.1Z"/><path fill="#bf4071" d="M172.87 607.71c33.45-39.06 35-98.34 17.08-144.75-6.28-14.61-14.1-28.41-20.13-43.17-3.21-7.9-5.86-16.02-8.09-24.22-1.68-6.1-3.16-12.39-4.51-18.58-9.54-50.49 25.13-106.18 53.97-145.33-27.41 38.25-58.92 90-53.15 138.75.83 6.19 2.62 12.39 4.23 18.43 4.76 18.44 12.3 35.8 21.37 52.52 3.87 7.56 7.84 15.16 11.21 22.97 14.7 40 16.35 86.78-3.1 125.51-3.94 7.72-8.74 15.02-14.27 21.71l-4.6-3.85Z"/><path fill="#f28cc4" d="M816.57 2.12c26.92 7.03 37.15 41.41 18.12 71.5-19.15 30.27-37.24 46.75-45.19 57.46-11.96 16.11 102.33-17.86 62.91 24.4-18.12 19.43-91.33 38.88-97.97 64.54-5.31 20.51 81.4-3.01 67.67 15.11-30.73 40.58-49.35 29.43-79.48 45.79-42.81 40.98 66.96 8.2 63.42 24.9-8.5 40.09-49.37 52.96-57.76 75.69-13.79 37.33 61.84-5.91 58.34 4.93-28.04 86.97-101.2 57.67-113.31 89.88-5.12 15.9 73.98 17.71 49.43 31.43-64.29 27.18-79.6 6.22-105.39 1.04-30.93-6.22-46.52 17.01-57.41 15.29-59.18-9.32-56.75-145.86-16.1-139.06 65.14 22.78 64.99-18.24 66.46-33.08 1.14-11.48-52.66-85.57-30.52-128.23 11.14-21.47 51.07-1.73 65.09-26.58 22.52-39.91-25.78-62.09-10.62-104.97 13.98-39.54 52.43 67.42 86.09 21.39 18.03-24.65-.59-23.14 7.35-68.37 5.33-30.39 33.71-52.26 68.89-43.07Z"/><path fill="#bf4071" d="M539.79 542.51c58.54-25.22 121.05-67.61 150.35-125.85 8.04-17.35 8.03-34.28 2.76-52.42-3.24-11.76-7.35-23.39-9.79-35.42-2.54-12.08-3.44-24.53-2.62-36.84 1.67-24.63 9.5-48.34 19.4-70.76 5.03-11.22 11.23-21.88 18.23-31.94 17.43-25.16 38.85-47.39 52.81-74.75 4.26-8.11 7.79-16.58 10.76-25.24 2.9-8.7 5.11-17.6 6.79-26.62-1.58 9.03-3.71 17.97-6.52 26.71-2.89 8.71-6.34 17.24-10.53 25.41-13.67 27.51-34.99 50.16-52.06 75.34-19.71 29.12-33.83 66.86-36.25 102.01-.69 12.09.32 24.24 2.93 36.06 2.55 11.94 6.74 23.38 10.11 35.14 5.69 18.86 5.79 36.72-2.42 54.93-18.81 39.11-51.91 69.57-86.98 94.13-20.34 13.9-42.07 25.69-64.58 35.63l-2.39-5.5Z"/><path fill="#f5a3d0" d="M913.07 220.26c-14.31 3.48-25.65 8.72-27.82 22.55-1.82 11.59-1.71 20.93-2.1 28.15-.58 10.78-22.97-22.04-26.56-4.76-2.92 14.08 2.35 58.36-.33 71.71-3.86 19.26-26.36-23.51-36.57-11.72-5.19 6 .68 53.86-3.75 64.75-10.47 25.68-42.56-2.58-48.01 7.6-9.82 18.35 11.68 69.06 8.68 84.09-2.65 13.29-27.92-20.67-31.06-7.36-3.04 12.89 20.04 81.65 53.04 85.99 12.75 1.68 74.87-6.55 82.14-38.15 1.93-8.41-41.61 17.14-39.45-4.46 15.59-17.46 44.29-26.74 43.37-37.67-1.79-21.33-36.83-21.76-35.47-34.5 1.75-16.37 57.14-31.41 63.15-55.17 3.38-13.39-46.51-3.35-21.39-29.41 16.96-17.59 51.05-27.24 51.18-46.48.07-10.3-37.2 7.83-34.89-9.4 2.04-15.21 21.1-33.89 23.94-49.54 3.02-16.64 9.99-43.04-18.1-36.21Z"/><path fill="#bf4071" d="M814.37 578.17c-13.83-49.79-22.63-108.58 7.26-154.33 12.54-18.76 31-32.83 41.34-53.08 5.32-9.87 8.77-20.55 11.44-31.42 8.79-32.37 18.45-65.72 38.67-93-19.8 27.55-28.93 60.93-37.22 93.37-2.52 11-5.82 21.95-11.03 32.02-9.94 20.46-28.24 35.08-40.41 53.93-28.33 45.2-18.59 102.38-4.28 150.82l-5.75 1.7Z"/><path id="d" fill="#383838" d="M868.88 562.61c0-13.74-88.81-24.89-198.36-24.89-93.82 0-172.42 8.17-193.06 19.15-6.56-.05-13.17-.08-19.84-.08-61.62 0-119.25 2.16-168.39 5.92-21.64-3.6-55.87-5.92-94.39-5.92-65.45 0-118.5 6.7-118.5 14.96 0 6.12 29.11 11.38 70.81 13.7-9.89 3.93-15.24 8.12-15.24 12.47 0 22.72 145.83 41.13 325.71 41.13s325.71-18.42 325.71-41.13c0-4.72-6.3-9.25-17.87-13.46 61.62-4.22 103.42-12.43 103.42-21.86Z"/><ellipse id="f" cx="468.2" cy="578.4" fill="url(#e)" rx="309.73" ry="15.24"/><g id="g"><path fill="#1d3039" d="m717.77 255.04-505.37 1.72-.2 311.19 506.64-1.38-1.07-311.53z"/><circle cx="463.2" cy="378.45" r="68.98" fill="#ea4c89"/><path fill="#f2f8f8" d="M488.76 374.78 452.21 353c-3.48-2.07-7.89.43-7.9 4.48l-.12 43.35c-.01 4.05 4.39 6.57 7.88 4.52l36.67-21.57c3.42-2.01 3.44-6.96.03-9Z"/><path fill="none" stroke="#485961" stroke-linecap="round" stroke-miterlimit="10" stroke-width="10" d="m236 505.4 457.91-1.62"/><path fill="none" stroke="#ea4c89" stroke-linecap="round" stroke-miterlimit="10" stroke-width="10" d="m236 505.4 137.48-.49"/><path fill="#fffdff" d="m250.49 536.08-15.32-8.67c-.59-.34-1.33.1-1.31.78l.38 17.98c.01.68.77 1.09 1.34.73l14.94-9.31c.57-.35.55-1.18-.03-1.51ZM274.69 543.2l-5.79.18c-.47.01-.85-.35-.86-.82l-.19-9.19c0-.46.35-.84.81-.86l5.8-.18c.21 0 .41-.09.56-.24l5.08-5.02c.52-.51 1.4-.16 1.43.57l.61 19.61c.02.72-.82 1.13-1.37.67l-5.51-4.54c-.16-.13-.36-.2-.56-.19Z"/><path fill="none" stroke="#fffdff" stroke-linecap="round" stroke-miterlimit="10" stroke-width="2" d="M286.35 528.3c4.66-.1 8.52 3.92 8.63 8.97.11 5.05-3.58 9.22-8.24 9.32"/><path fill="#fffdff" d="M286.09 541.41c0 .21.17.38.36.36 2.04-.24 3.59-2.14 3.55-4.41s-1.69-4.1-3.73-4.25c-.19-.01-.35.17-.35.38l.17 7.93Z"/><path fill="#fff" d="M672.95 532.45v-4.57h4.56v-4.16h-8.73v8.73h4.17zM685.19 527.88h4.56v4.57h4.16v-8.73h-8.72v4.16zM677.51 544.69h-4.56v-4.57h-4.17v8.73h8.73v-4.16zM689.75 540.12v4.57h-4.56v4.16h8.72v-8.73h-4.16z"/></g><g id="h"><path fill="#1d3039" d="M698.66 5.23 182 103.06l13.6 80.03L712.98 83.2 698.66 5.23z"/><path fill="#fffdff" d="m504.94 123.37-49.35 9.52 51.57-91.4 50.69-9.6-52.91 91.48zM401 143.43l-48.96 9.46 51.81-91.84 50.31-9.52-53.16 91.9zM300 80.71l50.47-9.55-53.41 92.34-49.12 9.49L300 80.71zM195.15 180.4 182 103.06l65-12.31-51.85 89.65zM608.71 103.33l-48.79 9.42 51.32-90.97 50.12-9.49-52.65 91.04zM702.19 24.41l10.79 58.79-49.33 9.52 38.54-68.31z"/></g><g id="i"><path fill="#1d3039" d="m722.86 263.94-525.84-.35-1.47-81.17 526.92 2.25.39 79.27z"/><path fill="#fffdff" d="m510.59 183.76-50.26-.21 67.62 80.26 51.59.03-68.95-80.08zM404.73 183.31l-49.86-.21 67.94 80.64 51.2.03-69.28-80.46zM317.11 263.67l51.37.04-69.6-80.85-50.03-.21 68.26 81.02zM195.59 185.15l1.43 78.44 66.15.05-67.58-78.49zM616.27 184.21l-49.69-.21 67.3 79.88 51.01.03-68.62-79.7zM722.76 244.44l-.29-59.77-50.24-.22 50.53 59.99z"/></g><g id="j"><path fill="#1d3039" d="M330.56 246.16c-1.25-75.09-62.28-132.27-131.56-128.78l1.3 129.29 130.26-.51Z"/><circle cx="218.98" cy="143.39" r="9.48" fill="#788388"/><circle cx="300.41" cy="222.29" r="9.48" fill="#788388"/><circle cx="220.01" cy="221.5" r="9.48" fill="#788388"/></g></g></g></svg>