<svg xmlns="http://www.w3.org/2000/svg" xmlns:xlink="http://www.w3.org/1999/xlink" viewBox="0 0 512 512"><defs><style>.cls-1{fill:#363d44;}.cls-2{fill:url(#linear-gradient);}.cls-3{fill:url(#linear-gradient-2);}.cls-4{fill:url(#linear-gradient-3);}</style><linearGradient id="linear-gradient" x1="347.66" y1="424.1" x2="240.47" y2="262.41" gradientUnits="userSpaceOnUse"><stop offset="0" stop-color="#e1d1b5"/><stop offset="0.15" stop-color="#deceb3"/><stop offset="0.26" stop-color="#d4c6ac"/><stop offset="0.35" stop-color="#c4b9a0"/><stop offset="0.44" stop-color="#aea690"/><stop offset="0.53" stop-color="#908d7b"/><stop offset="0.61" stop-color="#6c6f61"/><stop offset="0.69" stop-color="#424b43"/><stop offset="0.76" stop-color="#182825"/><stop offset="1" stop-color="#182825"/></linearGradient><linearGradient id="linear-gradient-2" x1="364.88" y1="192.04" x2="197.99" y2="192.04" gradientUnits="userSpaceOnUse"><stop offset="0" stop-color="#f0e0c4"/><stop offset="1" stop-color="#182825"/></linearGradient><linearGradient id="linear-gradient-3" x1="114.19" y1="239.94" x2="322.79" y2="239.94" xlink:href="#linear-gradient-2"/></defs><g id="Layer_2" data-name="Layer 2"><g id="Layer_1_copy" data-name="Layer 1 copy"><rect class="cls-1" width="512" height="512" rx="28.65"/><path class="cls-2" d="M372.87,413H313.81a34,34,0,0,1-27.36-13.78l-60.73-82A124.63,124.63,0,0,0,304,288.56L381,397.34A9.92,9.92,0,0,1,372.87,413Z"/><path class="cls-3" d="M364.52,192a125.17,125.17,0,0,1-123.8,125.16h-1.37a125,125,0,0,1-41.72-7.12V192a41.69,41.69,0,0,0,40.65,41.7c.35,0,1.79,0,2.15,0A83.44,83.44,0,0,0,241.5,66.89,125.16,125.16,0,0,1,364.52,192Z"/><path class="cls-4" d="M322.79,150.31a83.35,83.35,0,0,1-82.36,83.42,41.72,41.72,0,1,0-42.8-41.7V394.4A18.59,18.59,0,0,1,179,413h0a64.84,64.84,0,0,1-64.84-64.84V192A125.07,125.07,0,0,1,236.13,66.93c.18,0,4.66-.06,5.37,0A83.44,83.44,0,0,1,322.79,150.31Z"/></g></g></svg>